<?xml version="1.0" encoding="UTF-8"?><svg id="uuid-c49fe303-e404-42ea-b906-67fefd10360e" xmlns="http://www.w3.org/2000/svg" width="216.09" height="410.81" xmlns:xlink="http://www.w3.org/1999/xlink" viewBox="0 0 216.09 410.81"><defs><style>.uuid-e764eab2-850d-4058-964c-d223d758172b{fill:#49616b;}.uuid-6ccabfe1-b680-46ba-bced-b516edfb8ab2{fill:#fff;}.uuid-a6f67455-3a19-4529-9713-0ed47e875d9c{fill:#687ab9;}.uuid-b4cb6f3f-351c-445f-917e-49f62f793bf4{clip-path:url(#uuid-4263ce85-7e44-4559-9257-045e32526472);}.uuid-2428d265-2e7f-4596-9005-6f403e0bed0b{fill:#94c6d6;}.uuid-ff7df6da-9ca1-4d90-acb0-4d9d4251ddcc{fill:#3f535c;}.uuid-095bb03b-5a6e-4f18-9abf-f0873e963fc9{fill:#dc958c;}.uuid-3f39846b-3a3b-418d-b4f0-5eec6eb05360{fill:#cf6465;}.uuid-ae3256fb-4cf7-40db-b55f-8dc10150d45f{fill:#b2d4e4;}.uuid-1c7fa9d4-6d85-4862-a8e7-4f7376bdce1f{fill:#e2a683;}.uuid-0626b59f-8d34-492f-bc7d-8d220a55c903{fill:#607f8d;}.uuid-b07cd488-e008-4015-99de-4e0a22506d82{fill:#bfdadd;}.uuid-50a97012-00b3-4602-b888-64ca83882e2c{fill:#d8e7e9;}.uuid-a573f10b-d6a9-4a31-9f4a-c307090083ec{fill:#d7e7e9;}.uuid-1734a8dc-40f9-4bbf-b970-26640f5ddae5{fill:#ebc2a1;}.uuid-8fead2ee-8407-4b3c-a2e2-4a4860126bb7{fill:none;}.uuid-9b0ebe04-792c-410d-82f9-248166045c9b{fill:#e3edf4;}.uuid-4f793738-4b5e-4ef8-8792-55c72e7c734b{fill:#d4785c;}.uuid-e2b68523-fe81-412f-bec4-6f8ca073fbc0{fill:#ab4c4d;}</style><clipPath id="uuid-4263ce85-7e44-4559-9257-045e32526472"><rect class="uuid-8fead2ee-8407-4b3c-a2e2-4a4860126bb7" x="13.82" y="13.54" width="187.69" height="374.32"/></clipPath></defs><g id="uuid-f6ed79f0-95cd-4218-9bba-f4278e37e954"><g><rect class="uuid-50a97012-00b3-4602-b888-64ca83882e2c" x="13.82" y="13.54" width="187.69" height="374.32"/><g><path class="uuid-9b0ebe04-792c-410d-82f9-248166045c9b" d="M183.83,160.43c-18.55,35.1-16.61,80.14,4.91,113.51,3.81,5.92,8.15,11.41,12.78,16.66V137.96c-7.29,6.01-13.25,14.07-17.69,22.46Z"/><path class="uuid-b07cd488-e008-4015-99de-4e0a22506d82" d="M66.96,361.44c-6.06-25.44-15.27-50.06-26.27-73.79-8.58-18.51-18.27-36.53-26.86-55.03v155.23h59.29c-2.31-8.73-4.08-17.7-6.16-26.42Z"/><path class="uuid-9b0ebe04-792c-410d-82f9-248166045c9b" d="M13.82,78.35c7.62-8.79,16.97-15.91,27.8-20.34,25.81-10.54,55.48-4.83,82.45-11.91,19.12-5.02,36.2-16.88,48.19-32.57H13.82V78.35Z"/></g><path class="uuid-b07cd488-e008-4015-99de-4e0a22506d82" d="M201.52,387.86v-69.19c-9.41,2.27-18.4,7.68-25.46,14.43-12.18,11.66-20.22,26.86-30,40.59-3.49,4.9-7.23,9.63-11.18,14.17h66.64Z"/><g class="uuid-b4cb6f3f-351c-445f-917e-49f62f793bf4"><g><path class="uuid-1734a8dc-40f9-4bbf-b970-26640f5ddae5" d="M144.74,246.35c-1.79,9.09-9.95,24.47-10.8,34.28s16.53,96.19,16.53,96.19l-51.57,5.75s-6.47-83.56-8.62-90.45-25.88-30.86-29.29-40.97-2.46-25.84-4.82-34.4c-2.36-8.56-5.65-14.46-3.74-19.35,1.91-4.88,11.41-3.15,16.06,6.8,4.65,9.95,23.39,31.18,23.39,31.18l52.87,10.95Z"/><path class="uuid-2428d265-2e7f-4596-9005-6f403e0bed0b" d="M56.92,161.06c-.28,6.75,29.24,115.8,31.06,120.46,1.81,4.67,50.58-5.33,51.67-8.98,1.09-3.65-22.9-117.9-24.9-122.14s-21.83-17.55-24.05-19.55c-2.21-2.01-1.3-7.96-2.35-7.8-11.9,1.87-15.28,3.07-15.28,3.07,0,0,1.43,5.53,1.23,7.76-.21,2.23-17.14,21.35-17.38,27.17Z"/><path class="uuid-0626b59f-8d34-492f-bc7d-8d220a55c903" d="M70.73,120.53c-.5,1.56,1.37,8.86,1.94,9.4,.57,.55,17.32-2.7,18.02-3.31,.69-.61-.68-9.23-1.05-9.91-.37-.69-18.61,2.93-18.9,3.82Z"/><path class="uuid-e764eab2-850d-4058-964c-d223d758172b" d="M75.11,122.36c-.09-.22-.19-.45-.28-.67-.2-.47-.61-.78-1.14-.69-.5,.08-.86,.51-.85,1.02,0,.24,0,.48,0,.72,0,.31,.08,.62,.13,.93l.24,1.33c.08,.47,.12,.98,.29,1.43,.16,.44,.35,.76,.76,1.02,.22,.14,.46,.23,.73,.18,.27-.05,.45-.2,.6-.41,.17-.24,.3-.43,.33-.73,.02-.15,.03-.3,.02-.46-.03-.54-.2-1.08-.32-1.6-.11-.45-.21-.91-.32-1.36-.06-.24-.1-.47-.19-.7Z"/><path class="uuid-e764eab2-850d-4058-964c-d223d758172b" d="M79.26,121.91c-.19-.39-.41-.76-.63-1.14-.22-.39-.74-.5-1.13-.32-.43,.2-.58,.63-.48,1.07,.05,.23,.09,.47,.14,.71,0,.04,0,.04,.01,.05,0,.01,0,.02,.01,.07,.03,.16,.05,.33,.08,.49,.1,.43,.23,.86,.33,1.29,.05,.2,.09,.4,.13,.6,.02,.12,.05,.24,.07,.35,.01,.06,.07,.43,.02,.14,.06,.35,.18,.65,.4,.93,.31,.41,.82,.63,1.31,.4,.38-.18,.56-.51,.65-.91,.08-.36,.05-.67-.04-1.02-.1-.43-.22-.86-.35-1.28-.15-.48-.29-.98-.51-1.44Z"/><path class="uuid-e764eab2-850d-4058-964c-d223d758172b" d="M83.33,121.15c-.18-.49-.31-1.08-.74-1.41-.53-.42-1.25-.21-1.45,.45-.15,.51,.05,1.04,.15,1.54,.04,.21,.08,.42,.12,.63,.02,.11,.04,.23,.06,.34,.01,.06,.07,.35,.01,.08,.09,.49,.12,.99,.23,1.47,.04,.19,.09,.38,.14,.57,.12,.42,.38,.69,.77,.87,.39,.19,.84,.11,1.14-.2,.29-.29,.46-.64,.43-1.06-.02-.19-.05-.39-.08-.58-.08-.51-.23-1-.39-1.5-.13-.4-.26-.81-.4-1.2Z"/><path class="uuid-e764eab2-850d-4058-964c-d223d758172b" d="M86.61,118.83c-.48-.52-1.34-.15-1.5,.46-.12,.47,.04,1.04,.07,1.52,.04,.47,.07,.94,.1,1.41,.03,.47,.05,.95,.06,1.42,0,.22,.03,.44,.06,.66,.03,.19,.04,.38,.09,.57,.1,.38,.38,.59,.69,.81,.48,.33,1.09,.07,1.47-.25,.52-.44,.46-1.34,.36-1.96-.09-.57-.19-1.13-.32-1.69-.1-.46-.23-.91-.38-1.36-.18-.54-.33-1.16-.72-1.58Z"/><path class="uuid-ae3256fb-4cf7-40db-b55f-8dc10150d45f" d="M63.48,160.21c-3.33,5.56,24.76,107.92,28.13,112.51,3.36,4.59,40.05-1.22,40.66-5.81,.61-4.59-19.87-109.76-22.01-113.43-2.14-3.67-44.94,3.67-46.78,6.73Z"/><path class="uuid-1734a8dc-40f9-4bbf-b970-26640f5ddae5" d="M146.48,188.71c-14.71-2.4-28.04,2.1-35.11,6.1s-1.07,11.76,6.7,11.44c0,0-12.79,4.51-10.83,11.39s11.72,7.25,11.72,7.25c0,0-7.9,7.53-4.28,13.02,3.63,5.49,10.42,4.56,10.42,4.56,0,0-11.48,7.21-7.86,12.7,3.63,5.49,19.67-.79,26.09-3.31,6.42-2.51,4.32-13.53,4.32-13.53,0,0,5.95-3.07,1.25-13.81,0,0,8.18-10.6,.83-20.55,0,0,3.86-14.09-3.26-15.25Z"/><path class="uuid-1c7fa9d4-6d85-4862-a8e7-4f7376bdce1f" d="M145.56,199.9c-4.89,.79-9.76,1.67-14.63,2.56-2.39,.44-4.77,1.03-7.15,1.56-1.15,.26-2.3,.53-3.45,.79-1.15,.26-2.44,.42-3.39,1.17-.56,.45-.47,1.44,.24,1.7,1.14,.41,2.37,.17,3.56,.04,1.17-.12,2.34-.24,3.51-.37,2.42-.26,4.85-.47,7.25-.83,4.89-.73,9.79-1.47,14.66-2.3,2.77-.47,2.17-4.77-.61-4.33Z"/><path class="uuid-1c7fa9d4-6d85-4862-a8e7-4f7376bdce1f" d="M147.35,220.8c-.15,.01-.29,0-.43,0-.67-.41-1.6-.29-2.34-.11-.92,.22-1.84,.32-2.78,.44-2.6,.33-5.2,.75-7.79,1.12-2.51,.37-5.03,.72-7.55,1.07l-3.78,.52c-1.29,.18-2.65,.23-3.87,.7-1.31,.51-.94,2.47,.38,2.66,1.28,.18,2.65-.1,3.94-.21,1.35-.12,2.7-.25,4.05-.37,2.79-.26,5.58-.49,8.36-.72,2.64-.22,5.29-.36,7.92-.71,1.04-.14,2.29-.28,3.19-.87,.99-.65,1.27-1.79,1.28-2.92,0-.35-.22-.6-.58-.58Z"/><path class="uuid-1c7fa9d4-6d85-4862-a8e7-4f7376bdce1f" d="M144.61,237.7c-.4-.51-1.11-.82-1.76-.7-3.58,.66-7.2,1.35-10.75,2.2-1.03,.25-8.9,1.49-7.69,3.5,.79,1.3,2.84,.85,4.06,.66,1.64-.24,3.29-.46,4.92-.74,3.33-.56,6.67-1.19,9.99-1.86,.61-.12,1.3-.51,1.49-1.16,.33-1.11,.43-1-.27-1.9Z"/><path class="uuid-a573f10b-d6a9-4a31-9f4a-c307090083ec" d="M97.19,139.75c-.25-1.11-1.22-1.72-2.08-2.35-.54-.39-1.08-.78-1.62-1.17-.64-.46-1.29-.86-2.02-1.17-.29-.12-.57-.25-.87-.36-.4-.15-.82-.15-1.24-.17-.72-.04-1.38,.78-1.13,1.48,.15,.41,.27,.83,.54,1.18,.24,.32,.49,.63,.75,.94,.51,.61,1.14,1.09,1.77,1.57,.53,.41,1.06,.81,1.59,1.22,.26,.2,.52,.42,.79,.61,.48,.33,1.16,.56,1.75,.52,1.22-.08,2.03-1.1,1.76-2.31Z"/><path class="uuid-a573f10b-d6a9-4a31-9f4a-c307090083ec" d="M104.48,144.76c0-.07,0-.15-.02-.23-.08-.29-.2-.44-.38-.66-.08-.1-.16-.18-.25-.25-.09-.08-.19-.15-.28-.23-.34-.27-.3-.24-.7-.4-.06-.02-.11-.05-.17-.07-.1-.04-.21-.09-.31-.13-.19-.08-.38-.1-.59-.11-.36-.01-.67,.09-.97,.27-.15-.02-.27,.13-.2,.26-.09,.32-.1,.63,0,.96,.03,.1,.07,.18,.11,.28,.07,.18,.18,.31,.3,.46,.08,.1,.17,.2,.25,.31,.11,.14,.21,.25,.36,.37,.14,.11,.28,.2,.42,.3,.11,.08,.22,.14,.34,.19,.25,.11,.47,.21,.76,.2,.09,0,.17-.03,.25-.04,.37-.01,.74-.07,.98-.4,.25-.33,.21-.7,.11-1.06Z"/><path class="uuid-2428d265-2e7f-4596-9005-6f403e0bed0b" d="M109.85,165.97c-1.46-1.04-4.08-.17-5.75,.05-1.92,.26-3.83,.55-5.74,.87-3.7,.61-7.39,1.33-11.05,2.16-3.53,.8-7.09,1.66-10.52,2.84-3.32,1.14-7.15,2.28-9.89,4.53-1.04,.85,.14,2.13,1.16,1.99,1.71-.24,3.45-.9,5.09-1.44,1.69-.55,3.39-1.06,5.1-1.53,3.43-.95,6.87-1.85,10.35-2.59,3.6-.77,7.22-1.43,10.85-2.02,1.73-.28,3.46-.54,5.2-.77,1.7-.22,4.36,0,5.56-1.36,.79-.9,.6-2.07-.35-2.74Z"/><path class="uuid-2428d265-2e7f-4596-9005-6f403e0bed0b" d="M112.85,179.23c-.28-.58-1.06-1.01-1.7-.98-7.19,.42-14.41,1.41-21.39,3.22-3.45,.89-6.89,1.86-10.28,2.97-1.65,.54-3.29,1.12-4.93,1.67-.9,.3-1.8,.6-2.7,.87-.87,.26-1.77,.41-2.54,.9-1.13,.72-.58,2.23,.64,2.37,1.59,.17,3.44-.63,4.96-1.07,1.67-.48,3.31-1.02,4.97-1.54,3.41-1.06,6.85-1.99,10.35-2.69,6.92-1.38,13.88-2.34,20.93-2.75,.93-.05,1.59-.59,1.9-1.45,.2-.56,.05-1.02-.2-1.52Z"/><path class="uuid-2428d265-2e7f-4596-9005-6f403e0bed0b" d="M108.55,189.84c-1.48-.69-1.22-.72-2.4-.52-.71,.12-1.42,.24-2.13,.36-1.5,.26-2.99,.56-4.47,.89-2.97,.64-5.93,1.34-8.88,2.09-2.87,.73-5.73,1.51-8.57,2.34-1.46,.43-2.91,.89-4.36,1.36-1.45,.47-2.97,.79-4.02,1.96-.54,.6-.37,1.69,.5,1.89,1.41,.33,2.61-.08,3.96-.46,1.47-.41,2.94-.79,4.41-1.18,2.86-.76,5.73-1.49,8.62-2.16,5.77-1.34,11.59-2.46,17.42-3.53,.76-.14,1.55-1.11,1.45-1.9-.13-.98,.03-.44-1.52-1.15Z"/><g><path class="uuid-4f793738-4b5e-4ef8-8792-55c72e7c734b" d="M66.01,218.04h.01s-.04,.02-.05,.03c0,0,.02-.01,.03-.02,0,0,0,0,.01-.01Z"/><path class="uuid-1c7fa9d4-6d85-4862-a8e7-4f7376bdce1f" d="M68.65,217.71s-.01-.04-.02-.06c0,0,0,0,0-.01-.02-.24-.14-.44-.38-.5-.07-.02-.13-.02-.19-.02,0,0,0,0-.01,0,0,0,0,0,0,0-.18-.03-.32-.05-.5,0-.22,.05-.48,.12-.67,.25,.01,0-.24,.18-.2,.16,0,0-.01,.01-.02,.01-.14,.11-.29,.21-.42,.33-.07,.06-.14,.11-.21,.17,.01,0,.02-.02,.03-.02-.02,0-.04,.03-.06,.04-.06,.05-.06,.04-.03,.02,0,0-.01,0-.01,.01-.17,.13-.35,.25-.53,.37-.37,.24-.77,.43-1.15,.66-.18,.11-.37,.22-.56,.32-.25,.13-.54,.23-.73,.44-.44,.48-.28,1.3,.39,1.48,.46,.12,1.05-.06,1.5-.19,.45-.12,.86-.3,1.27-.52,.74-.4,1.53-.89,2.09-1.52,.22-.24,.35-.54,.43-.85,.04-.19,.04-.37,0-.56Z"/></g><path class="uuid-3f39846b-3a3b-418d-b4f0-5eec6eb05360" d="M95.43,408.47c-3.31-9.92-2.29-35.31-1.83-43.57,.46-8.25,52.28-16.05,55.95-9.63s15.59,52.28,14.22,53.66c-1.38,1.38-66.96,3.67-68.33-.46Z"/><path class="uuid-095bb03b-5a6e-4f18-9abf-f0873e963fc9" d="M103.4,370.59c-.09-.66-.16-1.32-.29-1.97-.27-1.37-.59-2.72-1.26-3.95-.55-1.02-2.14-.76-2.44,.32-.37,1.36-.37,2.78-.32,4.18,.02,.66,.1,1.33,.17,1.99,.05,.45,.11,.87,.26,1.3,.33,.94,1.18,1.59,2.2,1.45,1.03-.14,1.64-.98,1.74-1.98,.04-.46,0-.87-.06-1.32Z"/><path class="uuid-095bb03b-5a6e-4f18-9abf-f0873e963fc9" d="M112.65,370.95c0-.06,0-.13,0-.17-.02-.38-.05-.76-.09-1.13-.09-.87-.22-1.75-.42-2.61-.19-.86-.48-1.64-.85-2.45-.34-.73-.84-1.71-1.59-2.07-.6-.28-1.31-.07-1.51,.61-.25,.86,.13,1.94,.3,2.8,.18,.87,.39,1.74,.54,2.62,.02,.11,.03,.21,.05,.32,0,.02,0,.02,0,.03,0,0,0,0,0,0,.03,.21,.05,.43,.07,.64,.04,.43,.06,.86,.07,1.29,.01,.53,.02,1.05,.23,1.54,.28,.65,.79,1.17,1.5,1.33,.82,.19,1.65-.18,1.98-.97,.25-.58,.13-1.34-.31-1.81Z"/><path class="uuid-095bb03b-5a6e-4f18-9abf-f0873e963fc9" d="M121.83,366.13c-.27-.81-.51-1.62-.73-2.45-.22-.82-.36-1.66-.62-2.47-.28-.89-.5-1.71-1.14-2.42-.41-.45-1.2-.32-1.48,.19-.5,.89-.47,1.84-.43,2.82,.04,.93,.26,1.86,.46,2.76,.18,.83,.39,1.66,.63,2.47,.32,1.1,.65,2.13,1.72,2.71,.78,.41,1.57,.02,1.86-.76,.38-.99,.04-1.91-.28-2.86Z"/><path class="uuid-095bb03b-5a6e-4f18-9abf-f0873e963fc9" d="M132.51,366.58c-.24-.91-.49-1.81-.73-2.72-.25-.91-.51-1.8-.8-2.7-.33-1.01-.59-2.1-1.55-2.69-.52-.32-1.26-.12-1.56,.41-.57,.99-.25,2.11-.06,3.16,.17,.93,.36,1.84,.58,2.76,.22,.91,.43,1.83,.65,2.74,.15,.63,.3,1.22,.78,1.7,.44,.44,1.06,.77,1.7,.6,.62-.17,1-.76,1.16-1.35,.18-.66,.01-1.27-.16-1.91Z"/><path class="uuid-095bb03b-5a6e-4f18-9abf-f0873e963fc9" d="M140.55,362.31c-.21-.78-.44-1.54-.78-2.27-.13-.29-.27-.57-.41-.86-.19-.38-.48-.71-.74-1.04-.31-.39-.99-.45-1.4-.27-.49,.21-.76,.64-.79,1.17-.09,1.44,.23,2.85,.51,4.26,.28,1.4,.32,2.98,.98,4.26,.33,.65,1.15,.97,1.83,.88,.65-.09,1.42-.61,1.53-1.32,.24-1.61-.3-3.27-.72-4.81Z"/><path class="uuid-095bb03b-5a6e-4f18-9abf-f0873e963fc9" d="M150.6,364.49c-.19-1-.52-1.96-.88-2.92-.38-1.03-.9-2-1.45-2.96-.3-.53-.67-.95-1.13-1.34-.16-.13-.31-.28-.5-.37-.19-.1-.61-.07-.75-.22-.09-.09-.21,0-.2,.11,.02,.13-.28,.58-.31,.75-.04,.2-.03,.41-.04,.61-.02,.55,.05,1.08,.18,1.61,.21,.86,.35,1.74,.56,2.6,.21,.87,.37,1.74,.57,2.61,.06,.24,.11,.5,.19,.74,.04,.18,.05,.22,.04,.13,.01,.1,.03,.19,.04,.29,.02,.12,.12,.67,.05,.11,.03,.27,.08,.51,.17,.73,.03,.12,.07,.23,.12,.33,.03,.16,.08,.31,.17,.42,.14,.18,.33,.29,.55,.35,.1,.03,.22,.03,.33,.05,.02,0,.01,0,.02,0,.49,.13,1.07-.08,1.42-.42,.03-.03,.06-.06,.1-.09,.38-.31,.65-.75,.79-1.24,.19-.64,.08-1.24-.04-1.89Z"/><path class="uuid-3f39846b-3a3b-418d-b4f0-5eec6eb05360" d="M140.8,301.71c-.26-2.13-1.7-3.61-3.66-4.36-2.12-.81-4.53-.65-6.76-.6-2.79,.06-5.57,.19-8.35,.4-5.56,.41-11.1,1.11-16.59,2.07-4.6,.81-9.43,1.86-13.27,4.66-1.98,1.45-3.91,3.39-4.18,5.95-.28,2.57,1.56,4.96,4.18,5.06,1.84,.07,2.25-2.81,.44-3.23-1.68-.38-1-2.16-.23-3.08,1.08-1.28,2.59-2.22,4.06-2.98,3.31-1.69,7.08-2.35,10.71-2.98,8.47-1.47,17.16-2.31,25.76-2.25,1.22,0,3.47-.02,4.14,1.26,.16,.31,.23,.86,.09,1.2-.15,.34-.21,.17-.51,.51-.37,.43-.47,.84-.55,1.39-.07,.55,.36,1.13,.8,1.39,.04,.02,.08,.05,.11,.07,.53,.32,1.31,.35,1.83,0,1.52-1,2.19-2.72,1.98-4.5Z"/><path class="uuid-a6f67455-3a19-4529-9713-0ed47e875d9c" d="M141.02,314.14c-2.04-1.44-4.68-1.58-7.1-1.57-2.63,.02-5.26,.06-7.89,.13-10.54,.29-21.35,1.2-31.18,5.31-2.52,1.05-5.06,2.54-5.53,5.48-.44,2.74,1.81,5.32,4.65,4.27,1.53-.57,1.42-3.03-.4-2.99-.75,.02-.63-.64-.33-1.21,.46-.87,1.5-1.34,2.35-1.73,2.13-.96,4.4-1.67,6.65-2.3,4.6-1.28,9.32-2,14.07-2.41,4.82-.41,9.65-.52,14.48-.58,2.19-.03,4.66-.33,6.79,.31,.82,.25,1.56,.66,2.04,1.4,.2,.31,.25,.57,.35,.91,.02,.08,.03,.14,.04,.2-.79,.23-1.21,1.23-1.02,1.98,.34,1.27,1.6,1.93,2.85,1.53,1.3-.41,1.92-1.79,2.06-3.04,.25-2.29-1.05-4.41-2.88-5.7Z"/><path class="uuid-e2b68523-fe81-412f-bec4-6f8ca073fbc0" d="M152.63,374.59c-1.27-1.53-3.91-1.89-5.77-1.93-2.09-.05-4.18,.36-6.2,.84-4.82,1.15-9.65,2.2-14.53,3.07-4.92,.87-9.87,1.6-14.83,2.2-2.56,.31-5.13,.56-7.7,.79-1.29,.12-2.57,.24-3.86,.35-1.13,.1-2.38,.01-3.38,.6-.59,.35-.66,1.32,0,1.66,1.06,.53,2.22,.38,3.38,.37,1.29-.01,2.57-.02,3.86-.07,2.41-.09,4.82-.24,7.22-.42,4.82-.35,9.61-.89,14.39-1.59,4.78-.7,9.55-1.56,14.28-2.56,1.94-.41,3.89-.94,5.87-1.12,.92-.09,1.88-.13,2.79,.02,.96,.16,1.74,.68,2.67,.92,1.92,.49,2.97-1.73,1.82-3.12Z"/></g><path class="uuid-6ccabfe1-b680-46ba-bced-b516edfb8ab2" d="M193.34,345.08c-2.69,1.32-5.06,3.18-6.98,5.48-.95,1.13-1.77,2.36-2.46,3.67,.07-1,.11-2,.13-3,.01-.84,0-1.69-.03-2.54,.07-.1,.13-.21,.15-.34,.06-.37-.05-.75-.23-1.13-.02-.37-.05-.73-.08-1.09,.31-.92,.6-1.86,.84-2.81,.53-2.05,.91-4.15,.84-6.27-.15-4.73-2.54-8.77-5.45-12.35-.62-.77-1.64-.21-1.81,.6-.88,4.15-.9,8.45-.06,12.61,.41,2.01,1.01,3.99,1.79,5.89,.4,.98,.85,1.95,1.37,2.88,.08,.14,.16,.29,.24,.45-.01,.44,.02,.89,.05,1.35,0,.12,.1,.2,.2,.24,0,.4,0,.8,0,1.2-.04,1.5-.15,2.98-.29,4.47-.36-1.11-.81-2.19-1.33-3.22-2.12-4.14-5.37-7.54-8.61-10.82-.77-.78-2.13-.19-1.96,.94,.61,4.08,1.98,8.05,4.04,11.63,1,1.74,2.16,3.38,3.48,4.89,.7,.8,1.43,1.57,2.21,2.3,.28,.26,.57,.5,.92,.66,.03,.31,.07,.62,.14,.92-.65,3.06-1.51,6.07-2.52,9.03-.36-1.08-.79-2.14-1.31-3.15-1.53-3.02-3.7-5.7-6.34-7.83-.63-.51-1.28-.99-1.96-1.43-.6-.39-1.35-.99-2.09-1.04-2.17-.14-1.56,2.52-1.26,3.75,.91,3.74,2.61,7.26,4.95,10.32,1.25,1.63,2.69,3.1,4.33,4.34,.46,.35,.94,.67,1.46,.93-1.02,2.48-2.1,4.94-3.24,7.35-.08,.17-.16,.33-.24,.49-.51-1.84-1.26-3.63-2.26-5.26-2.25-3.68-5.52-6.6-9.5-8.26-.7-.29-1.54,.42-1.36,1.16,1,4.15,2.02,8.39,4.11,12.15,.9,1.61,1.96,3.16,3.29,4.44,.79,.76,1.65,1.57,2.65,1.94-.45,.84-.94,1.67-1.3,2.54-.44,1.07-.23,2.27-1.13,3.1-.19,.17-.04,.49,.21,.45,2.1-.33,3.26-1.9,4.17-3.66,.32-.62,.62-1.25,.94-1.87,.06-.03,.11-.07,.15-.13,.33-.5,.52-.94,.62-1.41,.21-.43,.43-.86,.64-1.28,.58,.13,1.2,.15,1.77,.18,.91,.06,1.82,.07,2.72,.04,1.84-.06,3.66-.29,5.45-.71,1.74-.41,3.46-.98,5.1-1.71,.83-.37,1.64-.78,2.43-1.23,.83-.47,1.59-1.1,2.44-1.52,.64-.32,.83-1.17,.35-1.71-1.19-1.36-3.2-1.91-4.94-2.25-1.79-.35-3.67-.36-5.46-.02-1.92,.37-3.71,1.17-5.38,2.19-.62,.38-1.24,.77-1.85,1.16,.79-1.76,1.54-3.53,2.25-5.32,.07-.06,.12-.12,.17-.21,.22-.45,.34-.84,.4-1.26,.07-.19,.15-.37,.21-.56,.1-.28,.2-.57,.3-.85,1.38-.02,2.87-.65,4.12-1.05,1.57-.49,3.12-1.05,4.6-1.76,2.66-1.28,5.12-3.05,6.91-5.42,.67-.89,1.82-2.37,1.68-3.55-.17-1.48-1.75-1.35-2.8-1.08-2.82,.73-5.47,1.96-7.86,3.64-1.36,.96-2.62,2.05-3.75,3.27-.44,.48-1.01,1.04-1.5,1.65,1.09-3.63,1.95-7.34,2.5-11.09,.05-.01,.1-.02,.14-.03,.79-.27,1.57-.73,2.28-1.16,1.44-.86,2.77-1.89,3.94-3.08,2.41-2.45,4.04-5.39,4.89-8.72,.19-.74-.5-1.51-1.27-1.14Z"/><path class="uuid-6ccabfe1-b680-46ba-bced-b516edfb8ab2" d="M31.75,265.81c.42-2.97,.21-5.97-.61-8.86-.4-1.42-.96-2.8-1.66-4.1,.79,.62,1.59,1.22,2.4,1.79,.69,.49,1.4,.95,2.12,1.4,.04,.11,.1,.22,.2,.32,.27,.26,.65,.38,1.06,.45,.32,.19,.63,.37,.95,.55,.59,.78,1.2,1.54,1.85,2.28,1.39,1.59,2.93,3.08,4.72,4.22,4,2.54,8.68,2.83,13.28,2.43,.98-.08,1.09-1.24,.53-1.83-2.93-3.06-6.48-5.49-10.39-7.13-1.89-.79-3.87-1.41-5.88-1.83-1.04-.22-2.09-.39-3.15-.49-.16-.01-.33-.03-.51-.05-.36-.26-.75-.49-1.15-.72-.1-.06-.22-.03-.31,.03-.33-.23-.67-.44-.99-.68-1.21-.88-2.38-1.8-3.53-2.75,1.12,.32,2.26,.56,3.41,.71,4.62,.58,9.25-.21,13.78-1.04,1.08-.2,1.36-1.65,.32-2.15-3.72-1.79-7.77-2.89-11.89-3.2-2-.15-4.01-.11-6,.13-1.05,.13-2.11,.3-3.14,.54-.37,.08-.74,.2-1.06,.38-.27-.16-.55-.29-.84-.4-2.16-2.25-4.17-4.66-6.05-7.16,1.1,.31,2.21,.54,3.34,.69,3.36,.43,6.79,.14,10.04-.84,.77-.24,1.54-.5,2.29-.81,.66-.27,1.58-.56,2.03-1.14,1.33-1.72-1.2-2.7-2.39-3.15-3.61-1.35-7.47-1.92-11.32-1.7-2.05,.11-4.08,.48-6.02,1.14-.54,.18-1.09,.4-1.59,.68-1.48-2.24-2.9-4.52-4.26-6.82-.09-.16-.18-.32-.27-.47,1.81,.61,3.71,1,5.62,1.09,4.3,.21,8.56-.86,12.18-3.21,.64-.41,.52-1.51-.19-1.78-3.99-1.5-8.08-3.05-12.36-3.43-1.83-.16-3.72-.16-5.53,.22-1.07,.23-2.22,.48-3.09,1.1-.44-.84-.86-1.71-1.37-2.5-.63-.97-1.74-1.47-1.93-2.67-.04-.25-.38-.31-.49-.07-.91,1.92-.26,3.77,.69,5.51,.33,.61,.68,1.21,1.02,1.82,0,.07,0,.13,.02,.2,.23,.55,.48,.96,.82,1.31,.23,.42,.47,.84,.7,1.26-.43,.41-.79,.91-1.15,1.36-.56,.72-1.08,1.46-1.57,2.23-.98,1.55-1.81,3.19-2.47,4.91-.64,1.67-1.13,3.41-1.45,5.17-.16,.89-.28,1.8-.35,2.7-.07,.95,.01,1.93-.11,2.87-.1,.71,.5,1.34,1.22,1.26,1.8-.21,3.38-1.58,4.64-2.82,1.3-1.28,2.36-2.83,3.08-4.51,.78-1.8,1.12-3.73,1.21-5.68,.03-.73,.06-1.46,.08-2.19,1.01,1.64,2.05,3.26,3.14,4.85,0,.09,.03,.17,.08,.26,.25,.44,.5,.76,.82,1.04,.11,.16,.22,.33,.34,.49,.18,.24,.36,.48,.54,.73-.76,1.15-1.07,2.74-1.45,4-.47,1.57-.88,3.17-1.13,4.8-.44,2.91-.35,5.95,.6,8.76,.36,1.06,.93,2.84,1.99,3.39,1.32,.68,2.1-.69,2.47-1.71,.98-2.74,1.45-5.63,1.41-8.54-.03-1.66-.23-3.32-.6-4.94-.15-.63-.29-1.42-.52-2.17,2.39,2.94,4.97,5.74,7.76,8.3-.02,.05-.04,.09-.05,.14-.22,.8-.28,1.71-.33,2.54-.09,1.67,0,3.35,.33,4.99,.68,3.37,2.19,6.37,4.46,8.95,.51,.57,1.53,.43,1.65-.41Z"/><path class="uuid-6ccabfe1-b680-46ba-bced-b516edfb8ab2" d="M158.13,118.21c2.5,1.66,5.3,2.75,8.26,3.25,1.46,.24,2.94,.33,4.41,.26-.89,.45-1.78,.91-2.65,1.4-.74,.41-1.46,.86-2.17,1.31-.12-.01-.24,0-.37,.04-.35,.14-.62,.43-.86,.77-.3,.21-.61,.41-.91,.62-.96,.2-1.91,.43-2.85,.69-2.03,.58-4.04,1.32-5.84,2.45-4.01,2.52-6.28,6.62-7.9,10.95-.35,.92,.65,1.52,1.43,1.26,4.03-1.34,7.74-3.5,10.9-6.33,1.53-1.37,2.93-2.89,4.17-4.53,.64-.84,1.25-1.72,1.79-2.63,.08-.14,.17-.29,.27-.44,.39-.21,.76-.47,1.14-.73,.1-.07,.12-.18,.11-.3,.35-.2,.69-.41,1.04-.61,1.31-.72,2.65-1.38,4-2.01-.77,.87-1.48,1.8-2.1,2.78-2.5,3.92-3.78,8.45-4.97,12.9-.29,1.06,.91,1.93,1.8,1.21,3.21-2.59,5.95-5.78,7.99-9.37,.99-1.74,1.82-3.57,2.46-5.47,.34-1.01,.63-2.03,.86-3.07,.08-.37,.14-.75,.11-1.13,.26-.18,.5-.37,.72-.59,2.96-.99,6-1.77,9.06-2.39-.75,.86-1.44,1.77-2.06,2.72-1.83,2.85-3.04,6.08-3.54,9.43-.12,.8-.21,1.61-.25,2.41-.03,.71-.17,1.67,.16,2.33,.98,1.94,2.96,.07,3.87-.81,2.77-2.68,4.94-5.93,6.39-9.49,.77-1.9,1.31-3.89,1.55-5.93,.07-.57,.1-1.15,.07-1.73,2.66-.38,5.32-.68,7.98-.92,.18-.02,.36-.03,.55-.04-1.33,1.37-2.49,2.92-3.39,4.61-2.03,3.8-2.9,8.1-2.32,12.38,.1,.75,1.14,1.11,1.69,.59,3.07-2.96,6.22-5.99,8.4-9.69,.93-1.59,1.74-3.29,2.17-5.09,.26-1.07,.52-2.21,.33-3.27,.95-.04,1.92-.04,2.85-.17,1.15-.16,2.07-.94,3.24-.6,.24,.07,.44-.21,.28-.41-1.34-1.64-3.29-1.85-5.27-1.74-.7,.04-1.39,.09-2.08,.14-.05-.04-.12-.06-.19-.07-.6-.03-1.07,.03-1.53,.18-.48,.03-.96,.06-1.43,.09-.18-.56-.48-1.11-.74-1.62-.41-.81-.86-1.6-1.34-2.37-.98-1.55-2.11-3.01-3.37-4.34-1.23-1.3-2.59-2.49-4.05-3.53-.74-.53-1.5-1.02-2.29-1.48-.83-.47-1.75-.82-2.55-1.34-.6-.39-1.43-.12-1.66,.56-.58,1.71-.02,3.73,.56,5.4,.6,1.72,1.55,3.35,2.75,4.72,1.29,1.47,2.89,2.61,4.61,3.53,.64,.34,1.29,.68,1.94,1.01-1.91,.21-3.83,.45-5.73,.76-.08-.03-.17-.04-.27-.04-.5,.04-.9,.13-1.29,.3-.2,.03-.39,.06-.59,.1-.3,.05-.59,.12-.89,.17-.71-1.18-2.02-2.15-2.99-3.03-1.22-1.1-2.48-2.16-3.85-3.08-2.44-1.64-5.22-2.87-8.17-3.22-1.11-.13-2.96-.38-3.92,.35-1.18,.9-.28,2.2,.49,2.96,2.06,2.06,4.46,3.73,7.11,4.94,1.51,.69,3.1,1.22,4.72,1.58,.63,.14,1.41,.35,2.18,.46-3.68,.9-7.32,2.03-10.83,3.45-.04-.03-.06-.07-.1-.11-.63-.55-1.42-.98-2.15-1.38-1.47-.8-3.03-1.43-4.65-1.84-3.34-.84-6.69-.76-10,.19-.73,.21-1.05,1.2-.34,1.67Z"/><path class="uuid-6ccabfe1-b680-46ba-bced-b516edfb8ab2" d="M58.47,35.13c-1.23-2.74-3.01-5.16-5.25-7.16-1.1-.98-2.3-1.85-3.59-2.58,.99,.1,1.99,.18,2.99,.23,.84,.04,1.69,.05,2.54,.05,.09,.07,.2,.14,.34,.16,.37,.07,.76-.03,1.14-.19,.37-.01,.73-.02,1.1-.04,.91,.35,1.84,.66,2.78,.94,2.03,.6,4.12,1.04,6.24,1.05,4.73,.01,8.85-2.24,12.53-5.03,.79-.6,.26-1.63-.53-1.83-4.12-1.02-8.41-1.18-12.6-.48-2.02,.34-4.02,.88-5.95,1.59-.99,.37-1.98,.79-2.92,1.27-.14,.07-.3,.15-.46,.23-.44-.03-.89-.01-1.35,0-.12,0-.2,.09-.25,.19-.4-.02-.8-.02-1.2-.04-1.49-.09-2.98-.25-4.46-.44,1.12-.32,2.21-.73,3.26-1.22,4.21-1.98,7.71-5.12,11.1-8.24,.81-.75,.26-2.12-.87-1.99-4.1,.47-8.12,1.71-11.76,3.65-1.77,.94-3.45,2.05-5,3.31-.82,.67-1.62,1.38-2.37,2.13-.27,.27-.52,.56-.69,.89-.31,.02-.62,.05-.92,.11-3.03-.75-6.01-1.71-8.94-2.82,1.09-.33,2.16-.72,3.19-1.2,3.07-1.43,5.82-3.51,8.03-6.07,.53-.61,1.03-1.25,1.5-1.91,.41-.58,1.04-1.31,1.11-2.05,.21-2.16-2.46-1.64-3.71-1.38-3.77,.79-7.34,2.37-10.48,4.6-1.67,1.19-3.19,2.58-4.48,4.18-.36,.45-.7,.92-.98,1.43-2.45-1.1-4.86-2.27-7.24-3.49-.16-.08-.32-.17-.49-.25,1.86-.45,3.67-1.14,5.33-2.08,3.75-2.12,6.78-5.29,8.58-9.22,.32-.69-.37-1.55-1.11-1.4-4.18,.86-8.46,1.74-12.28,3.7-1.64,.84-3.23,1.85-4.55,3.14-.79,.76-1.62,1.59-2.03,2.59-.82-.48-1.64-.99-2.5-1.38-1.05-.48-2.26-.31-3.06-1.23-.17-.19-.49-.06-.45,.2,.26,2.11,1.79,3.32,3.52,4.29,.61,.34,1.22,.66,1.83,1,.03,.06,.07,.12,.13,.16,.49,.34,.92,.55,1.39,.67,.42,.23,.84,.46,1.26,.69-.15,.57-.19,1.19-.24,1.77-.09,.9-.13,1.81-.13,2.72,0,1.84,.17,3.67,.53,5.47,.35,1.76,.86,3.49,1.53,5.15,.34,.84,.72,1.67,1.15,2.47,.45,.84,1.04,1.63,1.44,2.49,.3,.65,1.14,.87,1.7,.41,1.4-1.14,2.01-3.14,2.41-4.86,.41-1.78,.48-3.65,.2-5.46-.3-1.94-1.05-3.75-2.01-5.45-.36-.63-.73-1.26-1.1-1.89,1.73,.85,3.48,1.66,5.24,2.42,.05,.07,.12,.13,.21,.18,.45,.24,.83,.37,1.25,.44,.18,.08,.36,.16,.55,.23,.28,.11,.56,.22,.84,.33-.03,1.38,.56,2.89,.91,4.15,.44,1.58,.95,3.15,1.61,4.66,1.19,2.7,2.88,5.22,5.18,7.09,.87,.7,2.3,1.9,3.5,1.8,1.48-.13,1.41-1.71,1.17-2.77-.64-2.84-1.78-5.54-3.37-7.97-.91-1.39-1.96-2.69-3.15-3.86-.46-.46-1.01-1.05-1.6-1.56,3.59,1.21,7.27,2.2,11,2.87,.01,.05,.01,.1,.03,.14,.24,.8,.68,1.59,1.08,2.32,.81,1.46,1.79,2.83,2.95,4.04,2.37,2.49,5.25,4.22,8.55,5.18,.73,.21,1.53-.45,1.18-1.23Z"/></g><path class="uuid-ff7df6da-9ca1-4d90-acb0-4d9d4251ddcc" d="M30.32,124.76c0-.46-.07-.66-.23-1.03-.06-.22-.17-.41-.33-.57-.07-.09-.14-.18-.21-.27-.01-.01-.02-.03-.04-.04-.13-.14-.44-.35-.6-.45-.16-.1-.34-.17-.52-.23-.1-.04-.19-.08-.29-.12-.26-.04-.53-.07-.79-.11-.26,.04-.53,.07-.79,.11-.03,0-.06,.01-.09,.02-.04,0-.08,.02-.12,.03-.16,.04-.27,.1-.45,.18-.18,.08-.3,.12-.44,.2-.08,.05-.16,.09-.25,.14-.07,.04-.15,.08-.22,.12-.02,.01-.04,.02-.05,.03-.2,.15-.4,.31-.6,.46-.03,.03-.05,.06-.08,.09-.26,.28-.51,.58-.69,.92-.24,.41-.36,.85-.36,1.33-.01,.36,.06,.7,.23,1.01,.11,.33,.29,.61,.54,.85,.33,.33,.71,.55,1.16,.68,.78,.22,1.59,.2,2.37-.03,.08-.02,.16-.05,.24-.07,.04-.01,.08-.02,.12-.04,.24-.1,.48-.2,.72-.31,.02-.01,.04-.02,.05-.03,.18-.11,.34-.25,.51-.37,.22-.13,.4-.31,.53-.53,.18-.19,.31-.4,.38-.66,.07-.13,.12-.26,.16-.4,.05-.13,.05-.15,.09-.48,.05-.34,.04-.26,.04-.42Z"/><path class="uuid-ff7df6da-9ca1-4d90-acb0-4d9d4251ddcc" d="M34.83,114.41c-.04-.14-.11-.26-.21-.37-.12-.18-.27-.32-.47-.43-.38-.2-.86-.32-1.28-.17-.11,.04-.22,.08-.34,.12-.06,.02-.11,.04-.17,.06-.03,.01-.06,.02-.08,.03-.14,.06-.27,.11-.41,.17-.07,.05-.14,.1-.21,.16-.23,.18-.44,.39-.66,.59-.08,.1-.15,.2-.23,.29-.05,.12-.1,.23-.15,.35-.02,.13-.03,.26-.05,.39,0,.2,.03,.39,.12,.56,.03,.12,.1,.23,.19,.32,.06,.11,.15,.2,.26,.26,.24,.19,.57,.33,.88,.31,.3-.02,.59-.04,.88-.08,.27-.04,.23-.02,.47-.12,.09-.04,.18-.07,.26-.12,.05-.03,.11-.05,.16-.08,.11-.06,.23-.11,.34-.17,.19-.1,.35-.25,.47-.43,.15-.16,.25-.35,.3-.56,.02-.15,.04-.29,.06-.44,0-.23-.04-.44-.14-.64Z"/><path class="uuid-ff7df6da-9ca1-4d90-acb0-4d9d4251ddcc" d="M38.19,124.27c-.05-.11-.09-.21-.14-.32-.07-.09-.14-.18-.21-.27-.12-.13-.27-.22-.43-.28-.16-.08-.33-.12-.52-.12-.04,0-.08,0-.11,0-.02,0-.03,0-.05,0-.07,0-.13,.02-.2,.03-.13,0-.25,.03-.35,.1-.13,.05-.25,.11-.37,.16-.07,.03-.08,.05-.18,.12-.1,.06-.19,.14-.25,.25-.09,.09-.15,.19-.18,.31-.04,.09-.07,.14-.09,.23,0,.02,0,.04-.01,.06-.06,.27-.05,.27-.02,.49,0,.11,.03,.21,.08,.3,.05,.15,.13,.27,.24,.38,.09,.09,.22,.18,.34,.26,.33,.24,.78,.25,1.16,.14,.06-.02,.13-.03,.19-.05,.23-.07,.33-.13,.48-.25,.09-.07,.18-.14,.27-.21,.13-.12,.22-.27,.28-.43,.06-.11,.09-.22,.09-.34,.04-.18,.03-.36-.02-.54Z"/><path class="uuid-ff7df6da-9ca1-4d90-acb0-4d9d4251ddcc" d="M27.19,134.25c-.08-.05-.16-.07-.24-.09-.47-.26-1.09-.31-1.59-.2-.27,.06-.54,.17-.8,.27-.38,.14-.69,.32-1.03,.53-.42,.26-.83,.64-1,1.12-.19,.28-.28,.58-.18,.93,.09,.34,.4,.71,.77,.77,.02,0,.03,0,.05,0,.1,.06,.2,.12,.32,.14,.15,.03,.31,.04,.46,.06,.26,.03,.51,0,.77-.05,.27-.04,.57-.07,.83-.17,.36-.14,.75-.26,1.08-.44,.23-.12,.42-.31,.59-.49,.18-.2,.32-.41,.41-.63,.06-.11,.12-.21,.16-.34,.17-.53-.11-1.13-.57-1.4Z"/><g><path class="uuid-ff7df6da-9ca1-4d90-acb0-4d9d4251ddcc" d="M35.56,134.36s0,0,0,0c.06-.03,.07-.03,0,0Z"/><path class="uuid-ff7df6da-9ca1-4d90-acb0-4d9d4251ddcc" d="M36.23,135.12s-.02-.03-.02-.04c-.01-.24-.06-.51-.22-.66-.13-.12-.27-.12-.42-.06-.04,.02-.08,.04-.12,.07-.13-.05-.26-.09-.4-.09-.14-.04-.29-.04-.43,0-.17,0-.33,.06-.48,.14-.11,.04-.21,.08-.33,.1-.28,.05-.51,.2-.76,.31-.01,0-.02,.01-.04,.02-.18,.1-.33,.23-.44,.4-.2,.26-.35,.61-.34,.95,.01,.28,.08,.55,.21,.79,.18,.35,.57,.61,.94,.72,.45,.14,.94,.17,1.38,0,.31-.12,.62-.24,.89-.44,.19-.1,.34-.24,.45-.42,.14-.16,.24-.34,.29-.55,.1-.43,.06-.86-.16-1.25Z"/><polygon class="uuid-ff7df6da-9ca1-4d90-acb0-4d9d4251ddcc" points="35.55 134.36 35.56 134.36 35.56 134.36 35.55 134.36"/></g><path class="uuid-ff7df6da-9ca1-4d90-acb0-4d9d4251ddcc" d="M48.09,127.34c-.12-.36-.35-.77-.72-.93-.05-.02-.1-.04-.15-.07-.01,0-.03-.01-.05-.02-.02-.01-.05-.02-.07-.03-.38-.19-.84-.25-1.23-.12-.41,.13-.87,.24-1.22,.48-.17,.11-.33,.23-.5,.35-.18,.14-.31,.28-.44,.49-.01,.02-.03,.04-.04,.07l-.1,.17c-.23,.37-.23,.83-.07,1.22,.17,.4,.47,.65,.89,.79,.18,.06,.34,.11,.53,.13,.16,.02,.26,.02,.41,.01l.22-.02c.2-.02,.42-.03,.61-.09,.07-.02,.14-.06,.21-.08l.43-.17c.14-.06,.28-.12,.42-.18,.2-.11,.37-.26,.49-.45,.03-.04,.04-.09,.07-.12,.06-.07,.11-.14,.15-.23,.18-.37,.29-.8,.16-1.2Z"/><path class="uuid-ff7df6da-9ca1-4d90-acb0-4d9d4251ddcc" d="M48.12,118.1s-.01-.09-.02-.14c0-.01,0-.02,0-.03,0-.14-.01-.28-.06-.41-.05-.19-.13-.36-.26-.5-.1-.16-.24-.28-.41-.38-.11-.08-.23-.13-.37-.16,0,0-.02,0-.02,0-.05-.02-.09-.05-.14-.06-.04,0-.07,0-.11-.01-.1-.03-.2-.05-.3-.05-.17-.05-.34-.05-.51,0-.26,.01-.5,.09-.72,.23l-.34,.2c-.37,.21-.58,.44-.81,.79-.03,.05-.07,.1-.1,.15-.07,.1-.14,.2-.21,.31-.06,.14-.12,.28-.18,.43-.03,.16-.05,.32-.06,.48,0,.02,0,.04,0,.05,0,.04,0,.09,.01,.13,.02,.13,.04,.27,.05,.4,.05,.2,.14,.37,.27,.51,.07,.11,.16,.2,.27,.27,.15,.13,.32,.22,.51,.27,.04,.01,.08,.03,.11,.04,.02,0,.03,.01,.05,.02,.08,.02,.17,.03,.26,.04,.24,.05,.47,.04,.71-.03,.12-.03,.24-.07,.36-.11,.05-.02,.11-.03,.16-.05,.09-.03,.18-.06,.27-.11,.1-.03,.19-.07,.27-.12,.13-.1,.27-.21,.4-.31,.02-.02,.03-.03,.05-.05,.1-.09,.19-.18,.29-.27,.1-.13,.2-.26,.3-.39,.14-.22,.22-.46,.23-.72,.03-.1,.03-.19,.03-.29,0-.04,.02-.08,.02-.12Z"/><path class="uuid-ff7df6da-9ca1-4d90-acb0-4d9d4251ddcc" d="M167.53,333.16c-.08-.28-.21-.5-.37-.7-.05-.08-.09-.16-.16-.23-.18-.18-.4-.29-.64-.35-.2-.12-.48-.07-.64,.08-.04-.18-.16-.17-.36,.04-.05,.02-.09,.06-.13,.09-.09,.03-.19,.05-.28,.08-.21,.06-.42,.12-.63,.18-.33,.09-.62,.23-.9,.43-.32,.23-.62,.49-.84,.82-.34,.52-.13,1.38,.44,1.66,.36,.18,.76,.26,1.16,.3,.1,.01,.2,.02,.3,.02,.24,0,.47-.05,.7-.11,.21-.05,.42-.11,.64-.16,.34-.08,.69-.15,.98-.36l.32-.25c.16-.14,.27-.32,.33-.51,.14-.32,.18-.7,.08-1.04Z"/><path class="uuid-ff7df6da-9ca1-4d90-acb0-4d9d4251ddcc" d="M173.93,324.92c-.06-.19-.13-.4-.22-.56-.22-.37-.59-.68-1.03-.74,.01,0,.02,.01,.03,.02-.12-.04-.25-.08-.4-.08-.12,0-.23,.02-.35,.05-.17,.02-.33,.12-.4,.28-.03,.04-.07,.08-.1,.12,0,0,0,0,0,0-.03,.01-.05,.02-.08,.04-.1,.05-.2,.09-.31,.14-.2,.09-.39,.18-.59,.27-.1,.05-.21,.09-.3,.15-.19,.11-.35,.28-.52,.42-.24,.21-.41,.47-.59,.72-.28,.38-.22,.97,0,1.36,.24,.41,.68,.66,1.16,.67,.1,0,.2,0,.3,0,.23,0,.45-.04,.68-.09,.1-.02,.2-.04,.3-.07,.23-.08,.43-.19,.65-.3,.19-.1,.38-.2,.57-.31,.09-.05,.18-.1,.27-.15,.21-.12,.38-.28,.55-.45,.39-.38,.55-.98,.4-1.5Z"/><g><path class="uuid-ff7df6da-9ca1-4d90-acb0-4d9d4251ddcc" d="M160.93,326.06c-.01-.1-.02-.21-.04-.31-.04-.15-.13-.28-.23-.4-.01-.02-.03-.03-.04-.05-.01-.01-.02-.03-.04-.05h0c-.08-.08-.18-.13-.3-.15,0,0,.02,0,.02,0-.04-.01-.07,0-.1-.02,0,0-.01,0-.02,0-.21-.05-.4-.04-.62,0,.1-.01,.19-.03,.29-.04-.07,0-.13,.01-.2,.02-.25,.02-.46,.05-.69,.18-.03,.02-.06,.05-.09,.07-.2,.15-.41,.3-.6,.48-.08,.07-.16,.14-.24,.21-.25,.18-.51,.36-.77,.53-.2,.14-.41,.3-.56,.49-.05,.06-.11,.12-.16,.19-.12,.14-.19,.29-.23,.45-.02,.06-.04,.13-.04,.19,0,.01,0,.02,0,.03,0,0,0-.02,0-.02,0,.15,.04,.3,.15,.43-.12-.13,.13,.18,.17,.21,.07,.05,.09,.07,.16,.1,.12,.05,.25,.11,.38,.15,.21,.08,.48,.1,.7,.1,.53,0,1.09-.24,1.54-.5,.15-.09,.29-.18,.43-.28,.15-.11,.29-.22,.44-.34,.15-.12,.26-.28,.38-.44,.21-.29,.36-.62,.33-.98,0-.07-.01-.15-.02-.22Z"/><path class="uuid-ff7df6da-9ca1-4d90-acb0-4d9d4251ddcc" d="M158.61,325.5c.09-.07,.18-.14,.27-.21,0,0,0,0,0,0-.09,.07-.18,.14-.27,.21Z"/></g><path class="uuid-ff7df6da-9ca1-4d90-acb0-4d9d4251ddcc" d="M167.1,321.76c-.07-.23-.18-.44-.36-.61-.13-.13-.27-.23-.44-.29-.16-.09-.34-.13-.53-.12-.25,0-.48,.06-.7,.19-.16,.1-.24,.18-.36,.29-.03,.03-.06,.06-.1,.08,.1-.08,.2-.15,.29-.23-.14,.1-.28,.2-.4,.32-.01,0-.02,.02-.03,.02-.07,.04-.14,.09-.2,.14-.03,0-.05,0-.08,.01-.17,.04-.32,.12-.45,.23-.1,.06-.18,.14-.23,.23-.12,.13-.19,.27-.23,.45-.02,.12-.03,.23-.05,.35,.02,.12,.03,.23,.05,.35,.04,.17,.12,.32,.23,.45,.09,.14,.21,.25,.37,.34,.32,.21,.66,.26,1.03,.3,.06,0,.13,0,.19,0,.34-.03,.63-.06,.92-.26,.21-.14,.44-.31,.6-.51,.09-.11,.19-.21,.26-.33,.04-.07,.12-.26,.16-.39,.01-.03,.02-.06,.03-.09,0-.03,.02-.07,.02-.1,0-.02,0-.04,0-.05,.07-.41,.06-.36,0-.76Z"/><g><path class="uuid-ff7df6da-9ca1-4d90-acb0-4d9d4251ddcc" d="M164.19,316.86s-.07,.08-.07,.09c.03-.05,.06-.07,.07-.09Z"/><path class="uuid-ff7df6da-9ca1-4d90-acb0-4d9d4251ddcc" d="M164.66,315.07c-.2,0-.4-.01-.6-.02-.19-.07-.38-.11-.6-.08-.13,.02-.26,.02-.39,.03-.08,0-.16,0-.24,0-.34,.01-.47,.09-.78,.22-.05,.02-.1,.04-.15,.06-.01,0-.02,0-.05,.02-.38,.15-.79,.26-1.15,.46-.29,.16-.57,.32-.87,.46-.33,.17-.64,.65-.59,1.03,.01,.1,.03,.21,.04,.31,.14,.98,.86,.91,1.41,.86,.08,0,.17-.02,.25-.03,.26-.03,.52-.06,.78-.1,.41-.07,.83-.29,1.2-.45,.4-.17,.75-.34,1.03-.69,.05-.06,.1-.13,.15-.19,.09-.12,.11-.15,.08-.1,.04-.04,.08-.08,.1-.1,.21-.24,.34-.47,.38-.77,.08-.17,.16-.34,.24-.52,.08-.19,0-.41-.24-.41Z"/></g><path class="uuid-ff7df6da-9ca1-4d90-acb0-4d9d4251ddcc" d="M175.62,315.12c-.05-.19-.15-.35-.28-.49-.2-.27-.48-.46-.8-.55-.22-.06-.42-.06-.63-.05-.32,0-.63,.08-.94,.14-.09,.02-.18,.03-.27,.05-.21,.05-.41,.16-.6,.25-.08,.04-.15,.08-.23,.11-.32,.16-.56,.44-.67,.78,0,0,0,0,0,0-.13,.18-.16,.53-.1,.74,.05,.17,.15,.29,.26,.41,.11,.17,.25,.33,.42,.42,.23,.12,.43,.15,.7,.19,.1,.01,.2,.02,.3,.04,.17,.02,.29,.03,.47,0,.16-.02,.31-.04,.47-.07,.2-.03,.4-.05,.59-.11,.19-.06,.38-.12,.56-.22,.32-.17,.57-.48,.68-.83,.12-.25,.15-.55,.08-.81Z"/></g></g></svg>