<?xml version="1.0" encoding="UTF-8"?><svg id="uuid-b4fc0c06-6689-47e0-aec2-acde87595391" xmlns="http://www.w3.org/2000/svg" width="225.04" height="413.63" xmlns:xlink="http://www.w3.org/1999/xlink" viewBox="0 0 225.04 413.63"><defs><style>.uuid-62981969-eeda-4b06-99a2-049158370f60{fill:#fff;}.uuid-cb3002f0-086c-44db-a567-84d1b78dc1c9{fill:#687ab9;}.uuid-1232e3c9-0356-4fed-96ee-4f8f7c8f435a{fill:#648566;}.uuid-ddcff6e9-a366-435c-aa74-5272de2067f5{fill:#f2d6b6;}.uuid-d6a26cf7-39ac-4185-a92e-bbfac51e1c43{fill:#cc5151;}.uuid-219a0514-0165-465b-a3a3-bab05a48cca0{fill:#e0a07f;}.uuid-fe015cca-26bd-445f-8843-c8cefcad8abf{fill:#80a689;}.uuid-d068b424-1ae2-4785-a0b6-9fb7da7dc0d4{fill:#7e90c7;}.uuid-d16c1d93-cc53-4c81-ba8c-f3739c5dbf8a{fill:#f8e9d7;}.uuid-1a625138-d134-49eb-b8a7-32b8fdf570e0{fill:#935748;}.uuid-76e03499-0b15-40bb-96c2-95ab05285eee{fill:#fffbeb;}.uuid-3bdb9236-41b0-4d30-914a-9f0c61f355c8{fill:none;}.uuid-da0f5f87-9dc9-4576-b2ae-4763777805df{fill:#c7373f;}.uuid-479b19c1-55be-4047-9b18-48051fac0002{clip-path:url(#uuid-f215ffe0-b833-4bb5-9fbe-df5d2d5159b5);}.uuid-451580c1-3953-42ec-ad46-1965aa2610e0{fill:#415793;}.uuid-c414442c-8ce3-4d9f-bec4-f4b29ca44092{fill:#d4785c;}</style><clipPath id="uuid-f215ffe0-b833-4bb5-9fbe-df5d2d5159b5"><rect class="uuid-3bdb9236-41b0-4d30-914a-9f0c61f355c8" x="13.15" y="16.76" width="187.69" height="374.32"/></clipPath></defs><g id="uuid-5bae28e2-3b3c-4c02-a985-5642483c4aa2"><g><rect class="uuid-d16c1d93-cc53-4c81-ba8c-f3739c5dbf8a" x="13.15" y="16.76" width="187.69" height="374.32"/><path class="uuid-ddcff6e9-a366-435c-aa74-5272de2067f5" d="M167.57,136.16c-18.24,20.96-36.64,42.14-49.81,66.6-4.69,8.71-8.74,17.94-10.09,27.75-1.17,8.46-.31,17.06,.62,25.56,1.91,17.42,4.5,35.85,15.66,49.37,6.15,7.45,14.42,12.77,21.84,18.96,22.16,18.51,36.4,44.57,54.97,66.68h.09V97.93c-11.09,12.74-22.18,25.48-33.27,38.23Z"/><path class="uuid-76e03499-0b15-40bb-96c2-95ab05285eee" d="M13.15,16.76v118.59c34.31-1.99,67.37-23.23,82.26-54.39,3.25-6.81,5.73-14.06,9.99-20.29,4.44-6.5,10.59-11.59,16.67-16.59,8.4-6.92,16.8-13.83,25.19-20.75,2.72-2.24,5.5-4.5,8.39-6.57H13.15Z"/><path class="uuid-ddcff6e9-a366-435c-aa74-5272de2067f5" d="M147.08,384.68c-6.61-3.54-13.98-5.33-21.05-7.82-30.03-10.59-54.9-34.92-66.14-64.71-3.47-9.18-5.7-19.19-3.79-28.82,1.53-7.73,5.64-14.72,7.54-22.37,3.2-12.89-.29-27-8.18-37.68s-19.84-18.02-32.66-21.48c-3.16-.85-6.39-1.47-9.64-1.81v191.08H155.59c-2.43-2.58-5.39-4.73-8.51-6.4Z"/><path class="uuid-1a625138-d134-49eb-b8a7-32b8fdf570e0" d="M35.2,25.75c-.04-.52-.21-.93-.63-1.25-.15-.14-.33-.24-.54-.29-.18-.05-.35-.05-.53-.04-.05,0-.1,.01-.15,.02-.47,.05-.81,.13-1.19,.43-.19,.14-.37,.29-.55,.44,.13-.1,.27-.21,.4-.31-.27,.21-.54,.42-.81,.63-.23,.17-.46,.34-.7,.5-.24,.15-.5,.28-.73,.45-.25,.13-.44,.31-.59,.54-.19,.2-.31,.44-.38,.72-.04,.14-.08,.44-.08,.64,.01,.71,.36,1.32,.96,1.69,.53,.33,1.17,.42,1.77,.24,.31-.09,.56-.23,.81-.4,.6-.42,1.19-.88,1.71-1.4,.3-.3,.56-.66,.8-1.01,.17-.25,.31-.48,.38-.78,.08-.3,.07-.52,.05-.8Z"/><path class="uuid-1a625138-d134-49eb-b8a7-32b8fdf570e0" d="M23.06,28.96c-.08-.34-.36-.75-.68-.91-.25-.12-.49-.22-.76-.26-.23-.03-.47-.03-.7,.03-.14,.04-.32,.13-.45,.19-.07,.03-.13,.06-.2,.09-.38,.18-.69,.44-1.02,.7-.54,.42-1.13,.86-1.5,1.44-.04,.06-.08,.12-.11,.18-.21,.38-.3,.8-.24,1.23,.04,.28,.1,.54,.25,.79,.23,.4,.63,.65,1.07,.77,.55,.15,1.12,.05,1.61-.24,.6-.36,1.06-.93,1.57-1.41,.11-.1,.22-.2,.33-.3,.11-.11,.2-.24,.3-.37,.09-.11,.17-.22,.26-.33,.24-.31,.39-.7,.37-1.1,0-.17-.03-.36-.07-.52Z"/><path class="uuid-1a625138-d134-49eb-b8a7-32b8fdf570e0" d="M30.51,36.32c-.4-.37-1.04-.5-1.51-.2-.18,.11-.36,.22-.55,.33-.2,.11-.38,.25-.56,.39-.17,.13-.33,.25-.51,.36-.19,.13-.39,.24-.55,.41-.12,.12-.22,.26-.32,.4-.06,.08-.13,.16-.17,.22-.08,.13-.13,.28-.19,.42-.06,.14-.09,.29-.09,.45,0,.03-.02,.05-.03,.08-.05,.32,.03,.77,.37,.92,.1,.04,.18,.07,.26,.09,.45,.27,1.04,.2,1.53,.06,.18-.05,.37-.11,.53-.21,.15-.09,.31-.24,.45-.35,.1-.09,.2-.17,.3-.26,.29-.26,.59-.53,.8-.86,.15-.23,.28-.48,.41-.73,.25-.48,.23-1.13-.2-1.51Z"/><path class="uuid-1a625138-d134-49eb-b8a7-32b8fdf570e0" d="M21.94,43.36c-.03-.2-.05-.3-.16-.5,0,0,0-.02-.01-.03l.11,.26c-.1-.26-.23-.5-.48-.64-.08-.04-.14-.07-.23-.11-.16-.08-.32-.12-.51-.11-.13-.01-.26,0-.39,.05-.05,0-.1,.02-.15,.02-.09,.01-.17,.02-.26,.04-.25,.06-.39,.17-.58,.3-.15,.11-.31,.22-.46,.33-.02,.02-.04,.03-.07,.05-.25,.15-.45,.35-.6,.6-.02,.03-.04,.07-.06,.1-.03,.04-.06,.09-.08,.13-.19,.31-.2,.51-.24,.86,0,.22,.04,.42,.13,.6,.06,.19,.17,.36,.32,.5,.31,.28,.68,.46,1.1,.46,.35,0,.56-.09,.87-.23,.04-.02,.07-.04,.11-.05,.2-.1,.39-.23,.54-.39,.14-.15,.27-.29,.4-.44,.03-.04,.06-.07,.1-.11,.02-.02,.04-.04,.06-.06,.15-.14,.26-.31,.33-.51,.06-.14,.1-.26,.14-.4,.01-.04,.02-.08,.03-.12,.06-.23,.06-.38,.04-.59Z"/><path class="uuid-1a625138-d134-49eb-b8a7-32b8fdf570e0" d="M29.5,45.74c-.06-.24-.22-.44-.41-.59-.21-.16-.42-.22-.69-.24-.12,0-.2,0-.32,.01-.19,.03-.35,.08-.53,.17-.04,.02-.08,.04-.11,.06-.14,.08-.28,.15-.43,.22-.26,.13-.48,.31-.71,.5-.08,.06-.15,.12-.23,.19-.06,.04-.12,.09-.18,.13-.28,.21-.51,.39-.68,.71-.04,.07-.07,.14-.11,.21-.13,.24-.22,.53-.22,.81,.02,.14,.04,.28,.06,.43,.05,.21,.15,.39,.29,.55,.07,.12,.17,.22,.29,.29,.1,.1,.22,.17,.35,.21,.13,.07,.26,.11,.4,.11,.21,.05,.43,.04,.64-.03,.23-.07,.48-.14,.69-.26,.22-.12,.41-.31,.58-.49,.17-.18,.34-.37,.5-.56,.16-.19,.32-.37,.42-.6,.07-.16,.14-.32,.21-.48,.06-.15,.13-.3,.19-.46,.1-.28,.06-.6-.01-.89Z"/><path class="uuid-1a625138-d134-49eb-b8a7-32b8fdf570e0" d="M41.49,33.69c0-.06-.02-.12-.05-.18-.02-.08-.03-.1-.03-.05,0-.04,0-.08,0-.11,0-.11-.1-.16-.2-.15-.03,0-.05,0-.08,.01-.05-.02-.11-.04-.16-.05-.33-.16-.67-.23-1.04-.1-.11,.04-.21,.08-.32,.11-.35,.12-.68,.28-1.02,.45-.29,.15-.57,.28-.84,.48-.25,.2-.5,.4-.75,.6-.18,.15-.35,.31-.47,.52-.05,.07-.1,.13-.15,.2-.14,.18-.22,.33-.29,.58-.04,.14-.05,.28-.06,.42h0c-.26,.91,.46,1.79,1.37,1.81,.14,.04,.28,.06,.44,.06,.43,0,.61-.11,.99-.27,.09-.04,.19-.08,.28-.12,.2-.09,.35-.25,.52-.38,.4-.33,.74-.63,1.04-1.06,.19-.28,.4-.57,.56-.87,.12-.23,.21-.51,.31-.75,.16-.4,.12-.77-.05-1.14Z"/><path class="uuid-1a625138-d134-49eb-b8a7-32b8fdf570e0" d="M175.18,265.2c-.02-.12-.05-.24-.07-.36-.05-.31-.37-.58-.66-.66-.03,0-.07-.02-.1-.03-.04-.02-.06-.03-.11-.05-.29-.08-.6-.04-.88,.03-.21,.06-.42,.12-.62,.19-.31,.11-.67,.27-.96,.44-.32,.18-.62,.49-.9,.74-.38,.33-.77,.65-1.15,.98-.29,.24-.5,.55-.71,.86-.19,.27-.27,.58-.37,.88-.02,.06-.05,.11-.07,.17-.2,.58,.13,1.4,.68,1.68,.36,.18,.75,.27,1.16,.25,.52-.03,.96-.19,1.4-.46,.6-.36,1.08-.92,1.58-1.4,.2-.19,.4-.38,.6-.58,.28-.27,.5-.62,.69-.96,.17-.31,.28-.66,.42-.99,.09-.23,.12-.49,.09-.73Z"/><path class="uuid-1a625138-d134-49eb-b8a7-32b8fdf570e0" d="M175.12,251.6c-.35-.21-.82-.25-1.21-.15-.29,.08-.58,.25-.85,.39-.3,.15-.55,.3-.81,.52-.1,.08-.19,.16-.29,.25-.13,.09-.25,.19-.39,.26-.15,.08-.26,.14-.4,.24-.13,.1-.24,.22-.34,.34-.11,.13-.24,.25-.32,.4-.21,.39-.25,.83-.08,1.24,.22,.51,.65,.77,1.16,.93,.93,.3,1.74-.26,2.42-.81,.16-.13,.31-.26,.46-.4,.27-.24,.47-.53,.67-.83,.18-.27,.39-.55,.47-.87,.14-.55,.02-1.2-.49-1.51Z"/><path class="uuid-1a625138-d134-49eb-b8a7-32b8fdf570e0" d="M162.73,258.17c-.23-.3-.54-.44-.92-.46-.14,0-.28-.02-.42-.02-.29-.01-.55,.05-.82,.14-.3,.09-.61,.18-.9,.29-.47,.16-.92,.39-1.38,.59-.17,.07-.31,.15-.46,.26-.2,.15-.46,.32-.62,.47-.38,.38-.49,.68-.68,1.17l.24-.57c-.09,.21-.2,.44-.27,.66-.1,.31-.11,.62-.04,.93,.01,.31,.11,.6,.28,.87,.32,.5,.8,.94,1.39,1.07,.25,.06,.51,.1,.77,.09,.59-.02,1.07-.18,1.54-.54,.15-.11,.28-.22,.42-.34,.22-.2,.35-.39,.54-.65,.2-.27,.39-.54,.59-.82,.19-.27,.34-.57,.51-.86,.14-.24,.3-.48,.35-.76,.03-.16,.05-.33,.08-.49,.06-.38,.03-.7-.21-1.02Z"/><path class="uuid-1a625138-d134-49eb-b8a7-32b8fdf570e0" d="M163.47,248.75c-.01-.05-.03-.1-.04-.16-.04-.26-.3-.57-.53-.69-.28-.15-.56-.17-.86-.12,.08-.01,.17-.02,.25-.03-.24,.02-.47,.03-.69,.13-.15,.06-.28,.16-.41,.26-.16,.12-.33,.22-.5,.33-.18,.12-.35,.25-.54,.36-.1,.06-.2,.11-.3,.16-.2,.1-.37,.23-.54,.38-.07,.06-.14,.13-.22,.19-.25,.2-.43,.54-.48,.87-.07,.18-.1,.4-.05,.58,.06,.18,.17,.31,.3,.44,.15,.21,.38,.37,.61,.47,.21,.09,.44,.12,.67,.12,.25,0,.54,0,.78-.08,.39-.11,.78-.36,1.11-.61,.21-.15,.44-.3,.6-.51,.16-.2,.32-.4,.46-.61,.08-.12,.16-.24,.22-.37,.18-.36,.21-.71,.13-1.1Z"/><path class="uuid-1a625138-d134-49eb-b8a7-32b8fdf570e0" d="M149.09,256.46c-.28-.36-.62-.48-1.07-.53-.48-.06-.92,.01-1.38,.15-.3,.09-.64,.19-.9,.37-.16,.11-.31,.23-.46,.34-.28,.21-.56,.42-.83,.64-.06,.05-.12,.1-.18,.15-.22,.18-.32,.34-.51,.59-.11,.14-.22,.28-.31,.43-.34,.57-.41,1.29-.17,1.91,.11,.44,.45,.82,.87,.99,.86,.47,1.81,.14,2.57-.37,.44-.3,.78-.68,1.16-1.04,.13-.13,.26-.25,.39-.37,.24-.24,.4-.5,.56-.79,.15-.26,.3-.51,.4-.79,.05-.16,.08-.32,.11-.48,.08-.44,.04-.82-.24-1.18Z"/><path class="uuid-1a625138-d134-49eb-b8a7-32b8fdf570e0" d="M149.34,271.3c-.24-.31-.55-.43-.94-.47-.16-.02-.32-.03-.49-.03-.09,0-.19,0-.28,0-.37,.02-.61,.1-.94,.24-.36,.16-.72,.33-1.09,.5-.35,.16-.67,.36-1,.55-.78,.46-1.49,1.13-1.47,2.12,.01,.59,.31,1.19,.85,1.47,.51,.27,1.13,.39,1.68,.16,.33-.13,.63-.26,.92-.45,.44-.28,.85-.57,1.26-.9,.29-.23,.59-.46,.87-.71,.42-.36,.64-.97,.83-1.47,.13-.35,0-.76-.21-1.04Z"/><path class="uuid-1a625138-d134-49eb-b8a7-32b8fdf570e0" d="M160.76,274.56c0-.08,0-.16,0-.23,0-.55-.25-1.03-.68-1.36-.17-.15-.36-.26-.59-.31-.18-.05-.36-.06-.53-.05-.12-.02-.24-.04-.43-.04-.31,0-.61,.07-.91,.14-.44,.1-.82,.37-1.23,.55l.1-.04c-.09,.04-.18,.08-.26,.14-.07,.05-.13,.09-.2,.14-.67,.44-1.24,1.2-1.18,2.05-.03,.4,.08,.81,.29,1.16,.01,.02,.02,.04,.03,.07,.36,.69,1.27,1.25,2.06,1.18,.09,0,.17-.02,.26-.03,.24-.03,.5-.05,.73-.1,.24-.05,.45-.17,.67-.28,.16-.08,.32-.17,.47-.28,.18-.12,.38-.27,.54-.42,.08-.07,.32-.39,.44-.58,.04-.06,.08-.13,.11-.2,.2-.37,.32-.77,.33-1.19,0-.1-.01-.19-.03-.3Z"/><path class="uuid-1a625138-d134-49eb-b8a7-32b8fdf570e0" d="M137.75,269.52c-.39-.25-.88-.31-1.32-.18-.24,.07-.48,.21-.7,.32-.25,.13-.52,.25-.77,.4-.23,.14-.46,.35-.68,.52-.11,.09-.22,.17-.34,.26-.11,.09-.23,.17-.34,.26-.33,.28-.53,.72-.61,1.14-.09,.32-.09,.65,0,.97,.06,.24,.17,.45,.33,.62,.33,.43,.87,.75,1.44,.72,.06,0,.12,0,.18-.01,.36,0,.69-.09,1-.27,.17-.09,.32-.21,.45-.34,.1-.1,.2-.2,.3-.3,.32-.32,.64-.62,.9-.99,.16-.24,.32-.48,.49-.71,.15-.21,.27-.41,.34-.67,.18-.68-.09-1.37-.68-1.75Z"/><path class="uuid-1a625138-d134-49eb-b8a7-32b8fdf570e0" d="M148.59,282.92c0-.22-.04-.43-.14-.63-.13-.32-.36-.61-.66-.78-.36-.2-.83-.33-1.25-.34-.51,0-1.35,.23-1.76,.51-.22,.15-.43,.32-.65,.48-.21,.16-.47,.32-.64,.49-.19,.19-.33,.42-.49,.63-.2,.27-.33,.48-.43,.84-.28,1.01,.14,2.14,1.05,2.67,.79,.46,1.75,.4,2.53-.05,.12-.07,.23-.14,.34-.21,.32-.22,.5-.39,.74-.65,.1-.12,.21-.23,.31-.35,.04-.04,.08-.09,.12-.13,.39-.45,.46-.59,.68-1.13,.04-.11,.09-.22,.13-.32,.12-.3,.14-.61,.11-.92,0-.04,.01-.08,.02-.12Z"/><path class="uuid-1a625138-d134-49eb-b8a7-32b8fdf570e0" d="M169.26,277.52c-.26-.34-.7-.61-1.15-.58-.16,.01-.32,.01-.48,.02-.36,.02-.58,.07-.89,.2-.16,.07-.32,.14-.49,.21-.38,.16-.7,.41-1.04,.65-.48,.34-.9,.71-1.29,1.15-.34,.39-.67,.8-.76,1.32-.05,.3-.1,.61-.13,.91-.05,.38,.22,.94,.5,1.2,.33,.31,.74,.49,1.2,.5,.16,0,.32,0,.48-.02,.55-.03,1.02-.18,1.46-.5,.45-.33,.93-.64,1.3-1.06,.36-.41,.76-.8,1.03-1.28,.17-.29,.36-.59,.43-.92,.03-.18,.06-.36,.09-.54,.09-.47,.04-.89-.26-1.28Z"/><g class="uuid-479b19c1-55be-4047-9b18-48051fac0002"><g><path class="uuid-1a625138-d134-49eb-b8a7-32b8fdf570e0" d="M123.16,133.83c.48-.97-.17-2.29-1.26-2.43-1.61-.21-3.22-.46-4.83-.62-1.26-.12-2.46,.05-3.22,1.19-.74,1.11-.96,2.73-1.26,4-.36,1.55-.64,3.11-.83,4.69-.36,2.99-.41,6.02-.14,9.02,.11,1.21,.26,2.44,.5,3.65-.07,1.7-.14,3.39-.21,5.08-.1,2.17,3.11,2.88,3.43,.59,.03-.2,.07-.4,.1-.61,.1-.15,.17-.33,.18-.52,0-.17-.01-.34-.01-.51,1.32-8.19,3.85-16.1,7.56-23.54Z"/><path class="uuid-219a0514-0165-465b-a3a3-bab05a48cca0" d="M139.96,216.71c-4.39,8.16-16.71,20.46-20.41,29.59-3.7,9.13-8.43,70.73-8.43,70.73l-50.98-9.68s14.32-55.7,14.29-62.92-15.66-37.11-15.93-47.77c-.28-10.66,5.25-25.42,5.51-34.29,.26-8.87-1.14-15.48,2.12-19.59,3.26-4.11,11.83,.35,13.34,11.23,1.51,10.88,13.18,36.68,13.18,36.68l47.3,26.03Z"/><path class="uuid-da0f5f87-9dc9-4576-b2ae-4763777805df" d="M115.32,154.97c-5.19,1.41-9.59-15.94-33.55-4.65-23.96,11.29-9.78,54.27-.35,64.4,9.44,10.13,17.53,5.74,21.22,6.76,3.68,1.02,11.46,7.39,22.55,3.52,11.09-3.87,29.84-31.89,27.84-51.53s-12.59-25.34-37.71-18.5Z"/><path class="uuid-219a0514-0165-465b-a3a3-bab05a48cca0" d="M157.99,154.7c-14.34-4.07-28.09-1.13-35.57,2.03-7.48,3.16-2.41,11.56,5.34,12.13,0,0-13.22,3.02-12.07,10.08,1.15,7.06,10.81,8.55,10.81,8.55,0,0-8.72,6.58-5.74,12.44,2.97,5.87,9.82,5.72,9.82,5.72,0,0-12.24,5.84-9.26,11.71,2.97,5.87,19.63,1.47,26.29-.29,6.66-1.76,5.85-12.95,5.85-12.95,0,0,6.26-2.37,2.83-13.58,0,0,9.35-9.59,3.19-20.32,0,0,5.45-13.55-1.49-15.52Z"/><path class="uuid-fe015cca-26bd-445f-8843-c8cefcad8abf" d="M117.06,139.92c-1.28-4.95-6.22-8.78-10.7-10.76-4.99-2.2-10.73-2.48-15.94-.93-.96,.29-2.48,.59-3.1,1.47-.64,.91-.18,2.12,.1,3.09,.67,2.29,1.82,4.48,3.28,6.37,3.01,3.89,7.47,6.59,12.43,6.94,2.64,.19,5.34-.16,7.81-1.13,1.79-.71,4.98-2.15,5.55-4.28,.36,.02,.7-.29,.58-.76Z"/><path class="uuid-cb3002f0-086c-44db-a567-84d1b78dc1c9" d="M10.88,407.63c2.69-4.27,10.65-21.26,16.67-31.91,6.02-10.65,3.87-12.69,8.43-26.1s13.43-22.03,16.65-32.61c3.23-10.58,3.57-24.58,7.56-32.38,4-7.8,56.03,2.06,56.87,7.64,.84,5.58-3.32,34.37-3.08,43.46,.23,9.09,2.49,15.33,.05,29.38-2.44,14.06-5.92,42.13-8.59,47.1-2.67,4.97-94.57-4.57-94.57-4.57Z"/><path class="uuid-451580c1-3953-42ec-ad46-1965aa2610e0" d="M110.16,330.43c-2.2-1.24-4.97-1.86-7.38-2.61-2.26-.7-4.54-1.35-6.84-1.94-4.67-1.2-9.4-2.15-14.17-2.86-2.5-.37-5.01-.67-7.52-.93-2.34-.24-4.72-.2-7.08-.29-2.39-.09-4.71,.02-7.1,.13-1.26,.06-2.53,.06-3.79,.18-1.17,.12-2.32,.16-3.21,.97-.46,.42-.45,1.34,.04,1.73,.95,.76,2.08,.73,3.26,.81,1.1,.08,2.22,.08,3.32,.14,2.37,.12,4.75,.43,7.12,.61,2.31,.18,4.57,.6,6.87,.87,2.35,.28,4.7,.61,7.03,1,4.67,.78,9.31,1.79,13.89,3.01,2.29,.61,4.57,1.27,6.82,2,2.21,.71,4.47,1.81,6.74,2.26,3,.59,4.77-3.5,1.98-5.07Z"/><path class="uuid-451580c1-3953-42ec-ad46-1965aa2610e0" d="M73.36,286.99c-.3-.49-.92-.71-1.46-.55-1.89,.54-2.44,3.61-3.03,5.25-.75,2.09-1.45,4.2-2.08,6.33-1.29,4.32-2.39,8.73-3.12,13.18-.28,1.71-.95,4.58,.7,5.82,1.39,1.05,2.55-1.53,2.81-2.51,.57-2.21,.79-4.54,1.22-6.78,.42-2.18,.9-4.35,1.44-6.5,.6-2.38,1.27-4.75,2.02-7.09,.38-1.21,.79-2.41,1.21-3.6,.42-1.18,1.01-2.38,.29-3.55Z"/><path class="uuid-451580c1-3953-42ec-ad46-1965aa2610e0" d="M64.82,287.31c-.05-.12-.17-.15-.27-.06-.8,.7-1.11,1.86-1.46,2.85-.46,1.27-.79,2.58-1.16,3.88-.7,2.43-1.43,4.86-2.05,7.31-.61,2.45-1.23,4.91-1.84,7.36-.56,2.24-1.62,4.83-.61,7.06,.12,.27,.59,.38,.82,.19,1.91-1.52,2.14-4.3,2.65-6.55,.57-2.47,1.13-4.93,1.7-7.4,.57-2.47,1.01-4.96,1.49-7.45,.26-1.33,.56-2.65,.73-3.99,.13-1.04,.39-2.22,0-3.21Z"/><path class="uuid-451580c1-3953-42ec-ad46-1965aa2610e0" d="M78.24,289.08c-.11-.83-1.37-1.4-1.79-.44-.95,2.17-1.24,4.59-1.73,6.91-.49,2.33-.94,4.67-1.43,7-.49,2.33-1.02,4.65-1.58,6.97-.57,2.35-1.3,4.75-1.38,7.17-.01,.43,.23,.83,.56,1.1,.06,.13,.12,.27,.18,.4,.09,.2,.35,.37,.56,.21,.31-.08,.38-.18,.21-.28,.5,0,1.02-.31,1.25-.76,1.09-2.14,1.56-4.64,2.07-6.99,.5-2.33,.98-4.67,1.41-7.01,.44-2.35,.85-4.7,1.16-7.06,.3-2.36,.81-4.85,.51-7.22Z"/><path class="uuid-451580c1-3953-42ec-ad46-1965aa2610e0" d="M85.26,286.5c-.16-.97-1.69-.84-1.88,.05-.59,2.81-.65,5.73-.99,8.59-.34,2.88-.78,5.75-1.33,8.6-.53,2.77-1.14,5.54-1.81,8.28-.35,1.41-.73,2.82-1.12,4.22-.29,1.03-.56,2.14-.49,3.23-.16,.43-.01,.98,.38,1.28,1.27,.98,2.52-.52,3.02-1.56,.79-1.65,1.14-3.56,1.57-5.33,.44-1.8,.86-3.62,1.2-5.45,.66-3.64,1.1-7.33,1.4-11.02,.3-3.59,.65-7.32,.05-10.89Z"/><path class="uuid-451580c1-3953-42ec-ad46-1965aa2610e0" d="M92.74,288.45c-.27-.83-1.46-.79-1.68,.04-.7,2.58-.57,5.45-.77,8.11-.21,2.87-.41,5.73-.76,8.58-.33,2.76-.71,5.51-1.15,8.25-.22,1.37-.46,2.74-.72,4.11-.28,1.45-.7,2.91-.26,4.37,.01-.01,.03-.02,.04-.03,.42,1.08,1.83,1.89,2.8,.71,.98-1.19,1.17-2.56,1.42-4.05,.23-1.37,.44-2.75,.63-4.13,.41-2.93,.72-5.87,.9-8.83,.18-2.85,.3-5.72,.29-8.57-.01-2.77,.11-5.9-.75-8.56Z"/><path class="uuid-451580c1-3953-42ec-ad46-1965aa2610e0" d="M101.7,292.8c-.27-.32-.87-.27-1.12,.03-.73,.84-.83,1.9-.94,2.97-.13,1.28-.27,2.56-.45,3.84-.33,2.35-.78,4.69-1.25,7.01-.47,2.34-1.04,4.66-1.63,6.97-.32,1.23-.67,2.46-1.04,3.68-.38,1.25-.9,2.47-.77,3.79,.16,1.66,2.2,2.66,3.45,1.32,1.67-1.8,2.1-4.9,2.68-7.23,.64-2.56,1.09-5.14,1.43-7.75,.32-2.54,.48-5.1,.53-7.66,.04-2.1,.55-5.24-.88-6.97Z"/><path class="uuid-451580c1-3953-42ec-ad46-1965aa2610e0" d="M110.54,296.68c-.45-.63-1.19-.67-1.76-.18-.93,.79-1.03,2.19-1.3,3.32-.34,1.38-.61,2.76-.89,4.15-.53,2.7-1.08,5.39-1.6,8.09-.5,2.62-1.02,5.25-1.43,7.89-.2,1.34-.41,2.78-.32,4.14,.02,.3,.08,.59,.12,.88,0,.03,0,.04,0,.05,0,.02,0,.03,0,.06,0,.27-.01,.43,.03,.7,.08,.45,.53,.75,.93,.88,2.65,.84,3.83-2.56,4.26-4.43,.66-2.84,.97-5.8,1.3-8.69,.33-2.87,.6-5.74,.83-8.61,.11-1.41,.24-2.81,.26-4.22,.02-1.3,.34-2.91-.45-4.02Z"/><path class="uuid-451580c1-3953-42ec-ad46-1965aa2610e0" d="M72.82,395.19c-1.05,.18-1.99-.33-2.78-.98-.85-.69-1.61-1.19-2.62-1.65-1.85-.86-3.78-1.55-5.69-2.28-3.72-1.42-7.5-2.72-11.18-4.23-1.47-.61-2.93-1.31-4.07-2.43-1.3-1.27-2.23-2.85-3.11-4.43-.95-1.7-1.81-3.45-2.65-5.2-.85-1.76-1.47-4-2.96-5.33-.84-.76-1.96-.11-2.05,.91-.18,2.11,1.13,4.45,1.91,6.35,.85,2.08,1.74,4.14,2.67,6.18,.86,1.88,1.83,3.68,3.35,5.11,1.5,1.41,3.34,2.37,5.22,3.16,4.25,1.78,8.56,3.41,12.86,5.08,3.33,1.29,8.52,3.64,11.6,.55,.39-.39-.06-.89-.5-.82Z"/><path class="uuid-451580c1-3953-42ec-ad46-1965aa2610e0" d="M104.16,369.82c-.82,.06-1.53,.57-2.37,.63-.5,.04-1,.03-1.48,.21-.5,.18-.99,.46-1.46,.7-1.67,.84-3.45,1.47-5.28,1.88-1.79,.4-3.59,.51-5.41,.63-.81,.05-1.43,.05-2.2-.21-.25-.08-1.01-.49-1.27-.36-.81,.42-.9,1.4-.43,2.15,.5,.79,1.41,1.23,2.28,1.5,2.19,.68,4.7,.49,6.92,.13,2.33-.38,4.55-1.08,6.7-2.07,1.11-.51,2.2-1.05,2.83-2.15,.25-.44,.46-.89,.75-1.31,.3-.43,.65-.75,.79-1.26,.06-.23-.13-.48-.38-.47Z"/><path class="uuid-d068b424-1ae2-4785-a0b6-9fb7da7dc0d4" d="M53.06,355.6c.04-.2,.09-.4,.14-.59,.67-1.27,1.13-2.71,1.51-4.12,2.72-4.86,4.13-10.44,3.95-16.05-.07-2.32-3.09-4.49-5.18-2.8-5.33,4.32-9.98,10.46-11.5,17.3-.83,.9-1.4,2.06-1.58,3.33-.36,2.59,.25,5.43,1.05,7.89,.8,2.44,1.87,5.19,4.29,6.43,1.48,.76,3.21,.59,4.56-.34,1.38-.95,1.9-2.46,2.01-4.06,.07-.95,.12-1.88,.18-2.8,.16-.27,.27-.56,.31-.88,.13-1.08,.24-2.2,.25-3.32Z"/><path class="uuid-d068b424-1ae2-4785-a0b6-9fb7da7dc0d4" d="M107.8,343.02c-.26-3.89-5.76-4.58-6.83-.75-.4,1.43-.8,2.87-1.19,4.3-.38,1.41-1.01,2.95-.83,4.43-.26,.36-.52,.71-.81,1.04-1.47,1.68-2.66,2.65-4.6,3.79-.46,.27-.94,.52-1.42,.76-.22,.11-.43,.21-.65,.31-.1,.05-.16,.08-.22,.11,0,0-.05,.02-.16,.07-1.24,.56-2.49,1.09-3.7,1.72-2.44,1.27-5.28,3.17-4.78,6.31,.48,3.02,3.73,4.1,6.4,3.67,2.22-.36,4.44-1.43,6.35-2.56,3.73-2.21,6.84-5.46,9.04-9.19,2.47-4.19,3.74-9.16,3.41-14.02Z"/><path class="uuid-d068b424-1ae2-4785-a0b6-9fb7da7dc0d4" d="M105.12,387.08c-1.28-1.12-2.96-1.12-4.26-.15,.08-.06,.15-.13,.23-.19-.18,.14-.37,.28-.55,.44,0,0-.01,0-.02,.01-.03,.02-.05,.05-.08,.07,.01,0,.02-.02,.04-.03-.06,.06-.13,.11-.18,.18-.16,.21-.3,.41-.42,.62-.39,.14-.79,.28-1.12,.52-.37,.26-.71,.57-1.07,.84-.89,.69-1.63,1.48-2.4,2.29-1.32,1.39-2.47,2.95-3.63,4.48-.49,.64-.9,1.34-.84,2.2,.05,.69,.27,1.3,.71,1.85,.92,1.13,2.71,1.56,3.99,.69,3.7-2.54,7.03-5.64,9.73-9.23,.54-.72,.92-1.39,.89-2.32-.02-.8-.4-1.74-1.01-2.27Z"/><path class="uuid-d068b424-1ae2-4785-a0b6-9fb7da7dc0d4" d="M61.69,399c-.48,.17-.92,.26-1.41,.35-.22-.19-.47-.35-.74-.47-.02-.02-.04-.05-.06-.07-.54-.5-1.25-.73-1.93-.95-.4-.14-.91-.29-1.48-.43-1.91-.47-3.67-.89-5.31-1.61-4.23-1.85-8.29-4.09-12.14-6.63-2.59-1.71-5.79,1.31-4.97,4.03,1.49,4.94,5.07,9.37,9.81,11.52,2.65,1.2,5.51,1.82,8.42,1.73,1.46-.04,2.9-.27,4.27-.77,1.41-.52,2.57-1.42,3.87-2.15,1.15-.65,1.42-1.82,1.11-2.85,.36-.3,.69-.63,1-.97,.28-.31-.02-.87-.44-.72Z"/><path class="uuid-c414442c-8ce3-4d9f-bec4-f4b29ca44092" d="M155.8,165.71c-4.95,.22-9.88,.54-14.82,.87-2.43,.16-4.86,.47-7.28,.73-1.17,.13-2.34,.26-3.51,.39-1.18,.13-2.48,.14-3.5,.78-.61,.38-.64,1.38,.04,1.71,1.09,.53,2.34,.44,3.53,.45,1.17,.01,2.35,.03,3.52,.04,2.43,.02,4.87,.09,7.3,0,4.95-.16,9.89-.34,14.83-.61,2.8-.15,2.71-4.49-.11-4.37Z"/><path class="uuid-c414442c-8ce3-4d9f-bec4-f4b29ca44092" d="M155.18,186.68c-.15,0-.29-.03-.42-.05-.62-.48-1.56-.47-2.31-.38-.94,.11-1.87,.11-2.81,.12-2.62,.02-5.25,.14-7.87,.22-2.54,.07-5.08,.14-7.62,.19l-3.81,.08c-1.3,.03-2.66-.08-3.92,.25-1.36,.35-1.22,2.35,.07,2.68,1.25,.33,2.64,.21,3.93,.24,1.36,.03,2.71,.06,4.07,.1,2.8,.07,5.59,.15,8.39,.24,2.64,.08,5.3,.25,7.95,.21,1.05-.02,2.31-.02,3.26-.5,1.06-.54,1.47-1.63,1.61-2.75,.04-.35-.15-.62-.51-.64Z"/><path class="uuid-c414442c-8ce3-4d9f-bec4-f4b29ca44092" d="M150.52,203.15c-.33-.55-1.01-.94-1.66-.9-3.64,.25-7.31,.51-10.93,.95-1.05,.13-9.02,.46-8.04,2.6,.63,1.38,2.72,1.17,3.96,1.13,1.66-.05,3.32-.08,4.97-.17,3.38-.18,6.77-.42,10.14-.7,.62-.05,1.35-.36,1.62-.98,.45-1.07,.54-.94-.05-1.92Z"/><path class="uuid-c414442c-8ce3-4d9f-bec4-f4b29ca44092" d="M96.64,230.21c-.39-.8-.92-1.55-1.45-2.26-.58-.77-1.21-1.52-1.89-2.21-.69-.7-1.49-1.28-2.31-1.81-.63-.41-1.53-.13-1.94,.44-.44,.6-.38,1.46,.17,1.98,.6,.57,1.15,1.17,1.72,1.77,.15,.16,.31,.33,.45,.5,.07,.08,.13,.15,.2,.23,.02,.02,.03,.03,.04,.05,.26,.32,.5,.64,.73,.98,.47,.68,.87,1.39,1.28,2.11,.42,.73,1,1.68,1.82,2.04,.3,.34,.69,.77,1.17,.55,.46-.21,.49-.74,.5-1.21,.44-.96-.05-2.28-.48-3.15Z"/><path class="uuid-c414442c-8ce3-4d9f-bec4-f4b29ca44092" d="M120.06,227.83c-.36,.07-.7,.07-1.06,.18,0,0-.22,.06-.23,.06,.22,.05,.14,.04-.24-.01-.16,.02-.32,.05-.47,.08-.72,.21-1.36,.59-2,.96-.59,.34-1.13,.69-1.67,1.11-.64,.49-1.51,1.19-1.47,2.06,0,.02,0,.03,0,.05-.02,.04-.04,.08-.05,.11-.17,.35,.06,.77,.47,.77,.07,0,.14,.01,.22,.03,.76,.38,1.72-.08,2.43-.45,.6-.31,1.15-.66,1.71-1.04,.61-.42,1.23-.84,1.73-1.4,.09-.12,.18-.25,.27-.37,.13-.34,.16-.41,.09-.23,.06-.08,.09-.12,.16-.2,.13-.14,.29-.3,.38-.47,.09-.16,.13-.27,.24-.42,.3-.4,0-.92-.5-.82Z"/><path class="uuid-d6a26cf7-39ac-4185-a92e-bbfac51e1c43" d="M92.8,164.01c2.24-2.59,1.41-7.29-2.34-8.01-6.09-1.17-10.66,4.07-12.44,9.41-1.74,5.26-2.02,14.53,3.13,17.74,1.35,.84,3.25,.7,4.57-.12,4.28-2.67,3.29-6.95,3.28-11.29,0-3.98,1.37-4.94,3.79-7.73Z"/><path class="uuid-d6a26cf7-39ac-4185-a92e-bbfac51e1c43" d="M87.94,190.18c-1.15-1.33-3.24-1.89-4.79-.87-.55,.36-1.05,.83-1.37,1.42-.57,1.03-.5,1.16-.38,1.04-.08,.2-.16,.41-.24,.61-.18,.74-.16,1.48,.06,2.22,.05,.27,.12,.55,.2,.82,.46,1.63,2.22,2.96,3.94,2.84,1.81-.13,3.29-1.28,3.79-3.04,.17-.61,.24-1.3,.24-1.94,0-1.27-.65-2.19-1.44-3.1Z"/><path class="uuid-1232e3c9-0356-4fed-96ee-4f8f7c8f435a" d="M113.81,138.22c-1.55-.12-3.1-.32-4.63-.55,.24-.44,.04-1.03-.08-1.49-.14-.52-.29-1.03-.47-1.54-.17-.49-.36-.97-.57-1.45-.24-.54-.46-1.03-.88-1.45-.31-.31-.99-.07-.92,.41,.15,1.01,.66,1.94,.96,2.92,.15,.48,.28,.96,.39,1.45,.07,.29,.12,.64,.24,.95-2.27-.39-4.51-.9-6.72-1.56-.39-.12-.78-.25-1.16-.37-.05-.19-.1-.37-.15-.54-.14-.52-.28-1.04-.42-1.55-.14-.52-.28-1.04-.42-1.55-.14-.51-.28-1.09-.6-1.53-.26-.36-1-.38-1.06,.17-.07,.57,.05,1.13,.18,1.68,.13,.54,.27,1.08,.4,1.63,.09,.38,.18,.75,.28,1.13-1.09-.37-2.17-.77-3.24-1.21-1.93-.78-3.27-1.74-4.73-3.2-.59-.58-1.36,.19-1.05,.85,.83,1.74,2.62,2.81,4.32,3.6-.19,.03-.38,.06-.6,.08-.41,.05-.84,.09-1.24,.2-.18,.05-.36,.1-.52,.2-.11,.07-.32,.27-.27,.43,.14,.45,.65,.56,1.08,.59,.39,.03,.78,.02,1.17-.01,.39-.03,.78-.07,1.16-.12,.45-.06,.94-.08,1.34-.3,.05-.03,.09-.07,.13-.11,1.42,.58,2.85,1.11,4.31,1.57,.88,.27,1.77,.5,2.66,.73-.06,.04-.12,.08-.18,.11-.61,.34-1.25,.63-1.91,.87-.66,.23-1.34,.43-2.02,.61-.35,.09-.71,.2-1.03,.39-.11,.06-.38,.32-.28,.47,.2,.32,.4,.39,.78,.45,.36,.06,.71,.03,1.07-.01,.77-.09,1.51-.28,2.24-.53,.71-.25,1.4-.55,2.06-.9,.5-.26,1.07-.55,1.52-.93,1.49,.32,2.99,.59,4.5,.81-.22,.18-.44,.37-.67,.54-.63,.49-1.27,.96-1.94,1.39-.65,.42-1.3,.84-1.96,1.25-.32,.2-.65,.46-.91,.74-.06,.06-.34,.43-.21,.53,.26,.2,.56,.16,.87,.11,.42-.08,.79-.2,1.18-.37,.79-.34,1.54-.74,2.27-1.2,.69-.43,1.37-.89,2.02-1.38,.53-.4,1.11-.79,1.4-1.36,.79,.09,1.58,.16,2.37,.21,1.19,.08,1.12-1.75-.05-1.84Z"/></g><path class="uuid-62981969-eeda-4b06-99a2-049158370f60" d="M51.05,252.19c-3.31,.03-6.54,.75-9.55,2.12-1.48,.67-2.89,1.5-4.19,2.48,.54-.96,1.06-1.93,1.56-2.91,.42-.83,.8-1.68,1.18-2.54,.12-.06,.23-.15,.31-.27,.24-.34,.31-.77,.32-1.23,.15-.37,.3-.75,.45-1.12,.75-.77,1.48-1.57,2.18-2.39,1.51-1.78,2.88-3.7,3.83-5.83,2.11-4.77,1.66-9.92,.47-14.87-.25-1.06-1.53-.99-2.09-.27-2.86,3.7-4.92,7.97-6.07,12.5-.56,2.19-.9,4.45-1.03,6.71-.07,1.17-.08,2.34-.02,3.51,.01,.17,.02,.37,.03,.57-.23,.44-.41,.9-.6,1.37-.05,.12,0,.25,.08,.34-.19,.4-.37,.8-.58,1.19-.76,1.46-1.57,2.89-2.42,4.3,.17-1.27,.24-2.56,.21-3.83-.13-5.12-1.75-10.05-3.4-14.85-.39-1.15-2.02-1.21-2.39,0-1.34,4.35-1.88,8.95-1.53,13.48,.17,2.2,.54,4.39,1.12,6.52,.31,1.13,.67,2.25,1.1,3.34,.15,.39,.33,.77,.59,1.1-.12,.32-.22,.65-.3,.98-2.1,2.73-4.39,5.31-6.81,7.77,.15-1.25,.23-2.5,.2-3.76-.08-3.74-.96-7.43-2.57-10.8-.38-.81-.8-1.6-1.26-2.36-.41-.67-.87-1.63-1.58-2.03-2.09-1.17-2.75,1.76-3.04,3.13-.88,4.16-.86,8.46,0,12.61,.46,2.21,1.19,4.36,2.23,6.37,.29,.56,.62,1.12,1.01,1.63-2.19,1.98-4.45,3.9-6.73,5.76-.16,.13-.32,.25-.47,.38,.37-2.08,.48-4.2,.26-6.3-.48-4.73-2.34-9.19-5.5-12.74-.56-.62-1.73-.32-1.91,.5-.98,4.6-2,9.3-1.71,14.03,.12,2.03,.44,4.08,1.15,5.99,.42,1.13,.89,2.34,1.71,3.19-.85,.62-1.73,1.21-2.5,1.91-.95,.85-1.31,2.14-2.6,2.54-.27,.08-.27,.46,0,.55,2.24,.67,4.15-.34,5.89-1.65,.61-.46,1.21-.94,1.82-1.41,.07,0,.15-.02,.22-.06,.56-.34,.97-.69,1.29-1.11,.42-.32,.83-.65,1.25-.97,.52,.4,1.12,.72,1.67,1.03,.87,.49,1.77,.94,2.69,1.34,1.85,.81,3.78,1.45,5.75,1.89,1.93,.43,3.9,.68,5.88,.73,1,.03,2,0,3-.06,1.05-.08,2.1-.33,3.15-.35,.78-.01,1.38-.77,1.17-1.53-.53-1.92-2.27-3.42-3.84-4.59-1.61-1.2-3.47-2.11-5.42-2.62-2.09-.55-4.25-.6-6.39-.38-.8,.08-1.6,.18-2.4,.27,1.62-1.37,3.22-2.77,4.77-4.22,.09-.02,.18-.06,.27-.13,.44-.34,.75-.67,1-1.07,.16-.15,.32-.3,.48-.45,.24-.23,.47-.47,.7-.7,1.38,.64,3.16,.72,4.6,.93,1.79,.26,3.6,.44,5.41,.44,3.25,0,6.54-.59,9.45-2.09,1.09-.56,2.94-1.48,3.37-2.73,.53-1.55-1.1-2.18-2.27-2.41-3.15-.62-6.38-.66-9.54-.13-1.81,.3-3.58,.79-5.29,1.46-.67,.26-1.5,.55-2.28,.93,2.81-3.09,5.44-6.36,7.77-9.82,.05,0,.1,.03,.16,.04,.91,.11,1.91,.02,2.82-.06,1.84-.17,3.65-.56,5.39-1.18,3.57-1.29,6.59-3.43,9.02-6.33,.54-.64,.22-1.74-.72-1.73Z"/><path class="uuid-62981969-eeda-4b06-99a2-049158370f60" d="M168.63,324.07c-.25,3.3,.2,6.58,1.31,9.7,.55,1.53,1.26,3.01,2.11,4.39-.91-.62-1.83-1.22-2.77-1.8-.79-.49-1.61-.94-2.43-1.39-.05-.12-.13-.24-.24-.34-.32-.26-.75-.37-1.2-.42-.36-.18-.72-.36-1.08-.54-.7-.82-1.44-1.61-2.19-2.37-1.65-1.65-3.44-3.18-5.49-4.3-4.58-2.5-9.75-2.49-14.78-1.72-1.08,.16-1.11,1.44-.45,2.05,3.45,3.16,7.53,5.57,11.94,7.1,2.14,.74,4.36,1.27,6.6,1.59,1.16,.16,2.33,.28,3.5,.31,.17,0,.37,.01,.57,.02,.42,.26,.86,.48,1.31,.71,.11,.06,.24,.02,.34-.06,.38,.23,.77,.44,1.14,.67,1.4,.88,2.75,1.81,4.08,2.77-1.25-.28-2.53-.46-3.8-.53-5.12-.3-10.16,.89-15.09,2.13-1.18,.3-1.37,1.91-.2,2.38,4.22,1.7,8.76,2.62,13.31,2.66,2.21,.02,4.42-.17,6.59-.57,1.15-.21,2.3-.48,3.42-.82,.4-.12,.79-.27,1.14-.5,.31,.15,.63,.28,.95,.38,2.54,2.32,4.92,4.83,7.17,7.44-1.23-.26-2.47-.44-3.73-.52-3.73-.23-7.48,.33-10.98,1.65-.83,.31-1.66,.66-2.46,1.06-.7,.35-1.7,.73-2.15,1.4-1.34,1.98,1.52,2.89,2.86,3.29,4.07,1.22,8.36,1.57,12.57,1.06,2.24-.27,4.45-.82,6.54-1.68,.58-.24,1.17-.52,1.7-.86,1.79,2.35,3.51,4.76,5.17,7.19,.11,.17,.22,.34,.34,.5-2.04-.54-4.15-.83-6.26-.79-4.75,.08-9.35,1.55-13.16,4.41-.67,.5-.46,1.7,.34,1.94,4.5,1.37,9.1,2.77,13.84,2.89,2.03,.05,4.1-.09,6.06-.64,1.16-.33,2.41-.69,3.32-1.44,.54,.89,1.07,1.82,1.69,2.65,.77,1.02,2.02,1.49,2.32,2.8,.06,.27,.44,.31,.54,.05,.86-2.18,.01-4.16-1.15-6.01-.41-.65-.84-1.29-1.25-1.93,0-.07,0-.15-.04-.22-.29-.59-.6-1.02-.99-1.38-.29-.44-.57-.89-.86-1.33,.44-.48,.81-1.06,1.17-1.58,.56-.83,1.08-1.68,1.56-2.56,.97-1.78,1.77-3.64,2.37-5.57,.59-1.88,1-3.83,1.23-5.79,.11-1,.18-2,.19-3,.01-1.05-.15-2.12-.08-3.17,.05-.78-.65-1.44-1.43-1.29-1.96,.37-3.6,1.98-4.9,3.44-1.34,1.5-2.39,3.28-3.07,5.18-.73,2.03-.96,4.18-.92,6.33,.01,.8,.04,1.61,.07,2.41-1.23-1.73-2.49-3.44-3.8-5.11-.02-.09-.05-.19-.11-.28-.31-.47-.61-.8-.98-1.09-.14-.17-.27-.34-.41-.51-.21-.26-.43-.51-.64-.76,.75-1.32,.98-3.09,1.31-4.5,.41-1.77,.74-3.55,.89-5.36,.27-3.24-.04-6.57-1.29-9.59-.47-1.13-1.23-3.06-2.44-3.59-1.5-.66-2.26,.91-2.59,2.06-.88,3.09-1.19,6.3-.94,9.5,.15,1.83,.49,3.64,1.01,5.39,.21,.69,.42,1.54,.73,2.35-2.84-3.07-5.88-5.96-9.13-8.57,.01-.05,.04-.1,.05-.15,.19-.9,.18-1.9,.18-2.81-.02-1.84-.25-3.68-.73-5.47-.98-3.66-2.86-6.85-5.55-9.52-.6-.59-1.72-.37-1.79,.57Z"/><path class="uuid-62981969-eeda-4b06-99a2-049158370f60" d="M195.87,288.73c-1.3,2.33-2.08,4.87-2.32,7.52-.12,1.3-.1,2.62,.06,3.92-.45-.76-.92-1.51-1.42-2.25-.42-.62-.86-1.23-1.31-1.83,0-.11-.01-.22-.06-.33-.14-.3-.42-.52-.74-.71-.2-.25-.4-.51-.61-.76-.24-.83-.5-1.66-.8-2.47-.64-1.76-1.44-3.49-2.56-5-2.5-3.37-6.28-5.11-10.21-6.25-.84-.24-1.3,.68-1.02,1.35,1.45,3.47,3.61,6.61,6.32,9.22,1.31,1.26,2.75,2.4,4.28,3.39,.79,.51,1.6,.99,2.45,1.41,.13,.06,.26,.13,.41,.21,.21,.33,.46,.64,.72,.96,.06,.08,.17,.1,.27,.08,.2,.29,.41,.58,.61,.88,.72,1.11,1.4,2.25,2.04,3.4-.82-.62-1.69-1.19-2.6-1.67-3.63-1.95-7.72-2.78-11.74-3.54-.96-.18-1.65,.93-.95,1.67,2.5,2.67,5.51,4.87,8.82,6.44,1.61,.76,3.28,1.37,5.01,1.81,.91,.23,1.84,.43,2.77,.56,.33,.05,.67,.07,1,.02,.18,.22,.36,.41,.57,.6,1.07,2.56,1.96,5.18,2.72,7.86-.81-.6-1.66-1.16-2.55-1.64-2.64-1.43-5.58-2.29-8.57-2.5-.72-.05-1.43-.08-2.15-.06-.63,.02-1.48-.04-2.05,.3-1.65,1,.13,2.62,.98,3.37,2.56,2.27,5.57,3.97,8.82,5.02,1.73,.56,3.53,.9,5.34,.98,.51,.02,1.03,.01,1.54-.06,.51,2.32,.96,4.66,1.35,7,.03,.16,.05,.32,.08,.48-1.3-1.09-2.75-2.01-4.3-2.69-3.5-1.54-7.35-2.02-11.1-1.23-.66,.14-.91,1.08-.41,1.53,2.82,2.52,5.71,5.1,9.13,6.78,1.46,.72,3.03,1.32,4.64,1.58,.96,.15,1.99,.31,2.91,.07,.1,.84,.16,1.69,.34,2.51,.22,1,.97,1.77,.74,2.83-.05,.22,.22,.38,.38,.22,1.36-1.3,1.41-3.03,1.19-4.78-.08-.61-.18-1.22-.26-1.83,.03-.05,.05-.11,.05-.17-.01-.53-.1-.95-.26-1.34-.06-.42-.12-.84-.18-1.26,.49-.2,.95-.5,1.39-.76,.69-.41,1.36-.86,2.01-1.34,1.31-.97,2.52-2.06,3.61-3.27,1.07-1.18,2.03-2.46,2.85-3.82,.42-.69,.81-1.4,1.15-2.13,.36-.76,.61-1.6,1.01-2.34,.3-.55,.01-1.27-.61-1.43-1.55-.4-3.3,.23-4.74,.85-1.48,.65-2.86,1.59-3.99,2.74-1.22,1.24-2.11,2.73-2.81,4.31-.26,.59-.51,1.19-.76,1.78-.31-1.68-.66-3.35-1.05-5.01,.02-.07,.03-.15,.02-.24-.07-.44-.17-.79-.35-1.12-.04-.17-.08-.34-.12-.51-.07-.26-.14-.51-.21-.77,1-.71,1.76-1.93,2.48-2.84,.89-1.15,1.74-2.34,2.46-3.61,1.29-2.27,2.19-4.81,2.3-7.44,.04-.99,.14-2.65-.57-3.44-.87-.99-1.96-.1-2.59,.63-1.68,1.96-3,4.2-3.89,6.62-.51,1.38-.87,2.82-1.08,4.28-.08,.57-.21,1.27-.26,1.96-1.04-3.2-2.28-6.34-3.77-9.35,.03-.03,.06-.06,.09-.1,.44-.59,.78-1.32,1.08-1.99,.61-1.35,1.07-2.77,1.32-4.24,.52-3.01,.22-5.97-.84-8.83-.24-.63-1.13-.85-1.5-.19Z"/><path class="uuid-62981969-eeda-4b06-99a2-049158370f60" d="M176.51,22.13c2.4,.98,4.96,1.43,7.55,1.35,1.27-.04,2.54-.22,3.78-.52-.68,.53-1.35,1.07-2.01,1.64-.55,.48-1.09,.97-1.62,1.48-.1,0-.21,.04-.31,.1-.27,.17-.46,.47-.6,.8-.22,.23-.44,.45-.66,.68-.78,.33-1.54,.68-2.29,1.07-1.63,.83-3.2,1.8-4.53,3.06-2.97,2.81-4.2,6.67-4.83,10.61-.14,.84,.81,1.18,1.43,.83,3.18-1.81,5.96-4.28,8.16-7.21,1.06-1.42,1.99-2.95,2.77-4.54,.4-.82,.77-1.67,1.07-2.53,.05-.13,.1-.27,.15-.42,.29-.25,.57-.52,.85-.81,.07-.07,.07-.18,.04-.27,.26-.23,.51-.47,.78-.69,.99-.83,2.01-1.62,3.05-2.38-.51,.87-.95,1.78-1.31,2.71-1.45,3.74-1.77,7.79-2.03,11.76-.06,.95,1.1,1.48,1.73,.72,2.28-2.74,4.06-5.9,5.18-9.29,.54-1.64,.94-3.33,1.16-5.05,.12-.91,.19-1.83,.21-2.74,0-.33,0-.66-.1-.97,.19-.2,.36-.4,.51-.62,2.34-1.34,4.78-2.51,7.27-3.56-.49,.85-.92,1.74-1.28,2.65-1.07,2.73-1.55,5.66-1.4,8.58,.03,.7,.1,1.39,.2,2.09,.09,.61,.13,1.44,.53,1.94,1.16,1.48,2.52-.44,3.14-1.34,1.89-2.74,3.18-5.85,3.81-9.12,.33-1.74,.45-3.52,.31-5.28-.04-.49-.11-1-.24-1.48,2.19-.77,4.39-1.48,6.6-2.13,.15-.04,.3-.09,.46-.13-.9,1.39-1.61,2.9-2.09,4.48-1.08,3.56-1.08,7.35,.13,10.88,.21,.62,1.16,.75,1.53,.21,2.1-3.03,4.25-6.12,5.47-9.63,.52-1.5,.91-3.08,.98-4.67,.04-.95,.07-1.96-.27-2.82,.8-.19,1.62-.36,2.38-.62,.94-.33,1.59-1.15,2.65-1.05,.22,.02,.34-.25,.16-.4-1.42-1.16-3.1-1.01-4.76-.58-.58,.15-1.16,.32-1.74,.47-.05-.02-.11-.03-.17-.02-.51,.08-.91,.2-1.27,.41-.4,.11-.8,.22-1.2,.32-.25-.45-.59-.86-.9-1.25-.48-.62-1-1.21-1.54-1.78-1.1-1.15-2.29-2.19-3.59-3.1-1.26-.89-2.62-1.67-4.03-2.31-.72-.32-1.45-.61-2.19-.86-.78-.26-1.62-.4-2.38-.7-.57-.23-1.23,.14-1.31,.76-.2,1.55,.61,3.16,1.39,4.48,.8,1.36,1.87,2.57,3.13,3.53,1.34,1.03,2.89,1.72,4.5,2.21,.6,.18,1.21,.35,1.81,.53-1.59,.5-3.16,1.03-4.72,1.61-.07,0-.15,0-.23,.01-.42,.12-.74,.26-1.04,.47-.16,.06-.32,.12-.48,.18-.24,.1-.48,.2-.72,.3-.8-.88-2.07-1.48-3.04-2.06-1.22-.73-2.47-1.41-3.78-1.95-2.35-.98-4.91-1.55-7.46-1.34-.96,.08-2.57,.18-3.26,.96-.85,.96,.14,1.91,.92,2.43,2.09,1.4,4.41,2.4,6.86,2.98,1.4,.33,2.83,.51,4.26,.54,.56,.01,1.25,.05,1.93,.02-2.97,1.38-5.85,2.96-8.59,4.76-.04-.02-.06-.05-.1-.07-.63-.36-1.37-.59-2.06-.81-1.38-.43-2.81-.7-4.25-.77-2.97-.14-5.8,.49-8.43,1.86-.59,.3-.68,1.19,0,1.47Z"/></g></g></g></svg>