<?xml version="1.0" encoding="UTF-8"?><svg id="uuid-b8b393be-3f83-4bbb-a53d-cb5ec6232449" xmlns="http://www.w3.org/2000/svg" width="236.7" height="400.85" xmlns:xlink="http://www.w3.org/1999/xlink" viewBox="0 0 236.7 400.85"><defs><style>.uuid-e904b5a7-63e2-48f2-a612-b8a9c20f41ec{fill:#e6b49e;}.uuid-4dd008d3-3253-4a69-b000-5a5219833e9d{fill:#67856e;}.uuid-a115c5cb-f5bf-41e3-8b91-772c33c15c9c{fill:#fff;}.uuid-3ca20763-9159-4c1e-9bc2-e21e68c291ec{fill:#313132;}.uuid-583b5607-4d59-4a3d-9628-1e072c0cbab1{fill:#80a689;}.uuid-ee19fa97-54fe-4287-a3a0-a7d4d2e9aaf4{fill:#add0c2;}.uuid-84381db2-10a8-4cfc-9e5d-b40d1893f373{fill:#deebe8;}.uuid-79c5006c-702e-4d69-b05f-cc97fd51daec{fill:#dd967c;}.uuid-3410e9ac-e48e-4773-a171-e67daa71fb77{fill:#a4c8a6;}.uuid-e93b3f2a-89d9-4a82-89d8-49c810a26f4c{clip-path:url(#uuid-fc2595a0-b07c-4e7d-b1fb-71c2d42cd671);}.uuid-7aeedd78-f3ad-48d6-a6fd-7407a736bd48{fill:none;}.uuid-af72ac0c-673b-4ad5-94d3-c1ad27f3fb4d{fill:#cae0da;}.uuid-fe4d9dff-edd1-4f3e-9bc5-c0e9f958331d{fill:#5b5a5e;}.uuid-223d8493-7efa-41d0-b975-952c66d43595{fill:#414143;}</style><clipPath id="uuid-fc2595a0-b07c-4e7d-b1fb-71c2d42cd671"><rect class="uuid-7aeedd78-f3ad-48d6-a6fd-7407a736bd48" x="30.58" y="18.86" width="187.69" height="374.32"/></clipPath></defs><g id="uuid-ec105e4a-9c1e-4d0f-a9b3-98e2d36e5a44"><g><rect class="uuid-af72ac0c-673b-4ad5-94d3-c1ad27f3fb4d" x="30.58" y="18.86" width="187.69" height="374.32"/><g><path class="uuid-84381db2-10a8-4cfc-9e5d-b40d1893f373" d="M70.23,368.53c-13.7-19.16-26.91-38.66-39.65-58.47v83.13h58.65c-6.79-7.82-13-16.25-19-24.65Z"/><path class="uuid-84381db2-10a8-4cfc-9e5d-b40d1893f373" d="M142.72,146.04c13.46,37.76,42.53,67.4,67.22,98.99,2.83,3.62,5.62,7.34,8.34,11.12V18.86h-89.43c4.81,42.58-.5,86.86,13.87,127.18Z"/></g><path class="uuid-ee19fa97-54fe-4287-a3a0-a7d4d2e9aaf4" d="M30.58,243c12.85,13.7,26.03,27.08,39.54,40.12,7.12,6.87,16.11,14.17,25.75,11.96,5.64-1.29,10.01-5.65,13.78-10.04,10.16-11.86,18.57-26.7,17.1-42.25-1.49-15.8-12.64-28.67-21.68-41.71-16.3-23.5-26.84-50.42-37.24-77.07-4.05-10.37-8.09-20.73-12.14-31.1-3.34-8.54-6.68-17.12-8.83-26.03-3.75-15.51-3.96-32.13-5.89-48.04h-10.37V243Z"/><path class="uuid-ee19fa97-54fe-4287-a3a0-a7d4d2e9aaf4" d="M218.27,331.56c-2.34,.83-4.62,2.04-6.68,3.35-10.77,6.83-20.24,17.02-22.53,29.57-.85,4.67-.68,9.46-.5,14.21,.18,4.83,.36,9.65,.54,14.48h29.18v-61.61Z"/><g class="uuid-e93b3f2a-89d9-4a82-89d8-49c810a26f4c"><g><path class="uuid-3ca20763-9159-4c1e-9bc2-e21e68c291ec" d="M180.3,155.09c-1.48,.19-120.9,34.79-123.94,36.38-3.04,1.6,7.68,22.72,8.03,21.83,.36-.88,123-31.6,123-31.6l-7.1-26.62Z"/><path class="uuid-e904b5a7-63e2-48f2-a612-b8a9c20f41ec" d="M145.97,147.92c-6.71-6.16-16.35-3.04-17.18,6.56,0,0-17.03-9.25-21.03,4.23,0,0-12.65-4.03-15.09,6.88,0,0-10.81,.05-10.31,11.67,.5,11.62,4.92,28.35,11.49,35.97,6.56,7.62,13.26-.8,13.26-.8,0,0,14.68,11.38,17.07-.78,0,0,12.68,4.86,15.94-6.51,0,0,12.3,5.71,15.09-6.88s-2.3-43.98-9.23-50.34Z"/><path class="uuid-223d8493-7efa-41d0-b975-952c66d43595" d="M67.66,159.94c-3.72,.07-23.26,1.06-25.87,2.53-2.6,1.47,13.68,79.1,16.17,82.29,2.49,3.19,26.69-1.73,29.49-3.81,2.79-2.08-16.56-81.07-19.79-81.01Z"/><path class="uuid-223d8493-7efa-41d0-b975-952c66d43595" d="M181.38,208.77c3.7-.07,23.1-1.05,25.69-2.51,2.59-1.46-13.59-78.56-16.06-81.73-2.47-3.17-26.51,1.72-29.28,3.79-2.77,2.06,16.44,80.51,19.66,80.45Z"/><path class="uuid-e904b5a7-63e2-48f2-a612-b8a9c20f41ec" d="M97.29,216.53c.27,1.06,2.4,19.25,6.24,28.21,3.85,8.95,4.83,23.94,4.71,30.17-.11,6.23-10.55,100.84-10.55,100.84l58.91,5.38s-.74-107.57,.11-114.45c.85-6.87,13-58.7,13.17-70.48,.17-11.78-15.51-29.58-21.91-32.14-6.4-2.55-33.78,20.75-37.07,22.93-3.28,2.19-13.62,29.52-13.62,29.52Z"/><path class="uuid-79c5006c-702e-4d69-b05f-cc97fd51daec" d="M160.75,175.14c-.23-.68-.44-1.48-.81-2.1-.46-.76-1.4-1.39-2.08-1.94-1.39-1.12-2.85-2.13-4.43-2.97-3.16-1.67-6.6-2.79-10.13-3.31-3.57-.52-7.17-.48-10.72,.2-.3,.06-.6,.12-.89,.19-.01-.07-.03-.14-.04-.2-.24-1.32-.46-2.64-.65-3.97-.19-1.34-.34-2.68-.47-4.02-.06-.67-.12-1.34-.17-2.01-.05-.68,.03-1.49-.38-2.06-.29-.4-.85-.44-1.13,0-.34,.54-.26,1.15-.25,1.77,.01,.58,.03,1.15,.05,1.72,.05,1.29,.13,2.58,.23,3.87,.1,1.24,.22,2.48,.37,3.71,.07,.59,.15,1.17,.23,1.76-2.44,.73-4.83,1.8-6.78,3.32-3.01,2.35-3.79,6.13-1.32,9.19,2.48,3.08,6.67,4.49,10.13,6.12,.3,.14,.62,.28,.93,.42-.02,.04-.04,.08-.05,.13-.23,.9,.16,1.91,.39,2.79,.21,.82,.45,1.64,.71,2.45,.26,.81,.54,1.61,.84,2.4,.34,.9,.62,1.82,1.47,2.32-1.64,3.04-3.4,5.98-4.46,9.31-.63,1.99-1.05,4.05-1.28,6.14,0,0-.01,0-.02-.01-1.48-.44-2.85-.56-4.15-1.49-1.23-.88-2.24-2.1-3.09-3.35-2.16-3.16-3.76-6.79-5.27-10.29-3.16-7.34-5.47-15.08-6.87-22.95-.39-2.22-.68-4.46-1-6.7-.17-1.16-.31-2.32-.43-3.49-.11-1.05-.06-2.16-.62-3.09-.28-.45-1.02-.51-1.28,0-.44,.85-.38,1.7-.37,2.63,0,1.13,.04,2.26,.09,3.38,.09,2.16,.33,4.3,.63,6.44,.6,4.34,1.48,8.63,2.63,12.86,1.15,4.22,2.59,8.35,4.29,12.39,1.58,3.75,3.25,7.64,5.55,11.01,.32,.47,.69,.97,1.11,1.48-.13,.04-.26,.1-.38,.18-1.23,.78-2.16,1.64-3.61,1.98-1.41,.33-2.91,.23-4.31-.12-3.31-.84-5.72-3.25-7.42-6.12-1.93-3.25-3-6.85-4.27-10.38-1.53-4.24-3-8.49-4.21-12.83-.68-2.42-1.27-4.87-1.75-7.33-.24-1.26-.45-2.52-.63-3.79-.16-1.16-.19-2.45-.78-3.49-.32-.56-1.04-.35-1.25,.16-.44,1.07-.27,2.34-.18,3.47,.1,1.25,.25,2.49,.41,3.73,.33,2.45,.77,4.88,1.3,7.3,1.07,4.85,2.43,9.65,3.95,14.38,1.56,4.87,3.54,10.45,7.11,14.31-.43,.22-.83,.56-1.28,.83-.76,.45-1.6,.7-2.47,.86-1.88,.34-3.94,.15-5.77-.35-2.15-.59-3.46-1.95-4.64-3.77-.6-.92-1.17-1.87-1.75-2.8-.47-.76-.96-1.83-1.86-2.13-.08-.03-.17,.03-.19,.11-.28,1.06,.6,2.32,1.03,3.23,.55,1.15,1.05,2.33,1.72,3.42,1.28,2.08,3.05,3.47,5.38,4.2,2.16,.68,4.53,.94,6.77,.63,1.44-.2,4.25-.9,4.95-2.47,1.43,1.12,3.07,2,4.99,2.51,3.6,.95,9.15,.57,11.24-3.05,.07-.11,.11-.23,.15-.35,1.88,1.59,4.13,2.66,6.37,1.86-.02,1.45,.04,2.9,.21,4.34,.27,2.3,.75,4.57,1.5,6.76,.64,1.86,1.46,4.31,3.59,4.79,.23,.05,.43-.07,.5-.29,.6-1.71-.29-3.36-.88-4.97-.64-1.79-1.12-3.63-1.42-5.51-.59-3.66-.45-7.48,.37-11.09,.87-3.82,2.64-7.12,4.53-10.51,.97-1.74,1.89-3.51,2.58-5.38,.65-1.78,1.28-3.89,.04-5.55-1.08-1.45-3.11-2.06-4.68-2.8-2.07-.97-4.15-1.94-6.22-2.92-2.3-1.08-7.09-2.82-7.05-6,.04-3.07,4.83-4.68,7.27-5.45,.33,.22,.73,.28,1.11,0,.17-.13,.31-.26,.42-.4,2.67-.68,5.41-.97,8.17-.84,3.62,.16,7.26,1.01,10.56,2.53,1.66,.76,3.26,1.68,4.76,2.72,.77,.54,1.5,1.12,2.21,1.73,.73,.63,1.61,.86,2.48,1.25,.42,.19,1.04-.13,.86-.66Zm-22.95,12.29c.99,.6,.58,1.52,.28,2.48-.29,.9-.66,1.76-1.06,2.61-.1-.23-.21-.46-.33-.7-.36-.76-.69-1.52-1-2.3-.32-.79-.61-1.59-.89-2.4-.14-.4-.27-.81-.39-1.22-.02-.07-.04-.13-.07-.2,1.19,.53,2.37,1.08,3.47,1.73Z"/><path class="uuid-583b5607-4d59-4a3d-9628-1e072c0cbab1" d="M82.68,396.36c-1.73-5.78,5.5-30.27,8.71-36.23,3.21-5.96,1.38-19.26,3.21-29.81,1.83-10.55,4.13-14.22,5.04-22.47,.92-8.25,4.59-27.52,5.04-34.85,.46-7.34,54.57-4.59,55.95,.92,1.38,5.5,.92,28.43,2.29,33.02,1.38,4.59,3.67,21.1,2.29,29.35-1.38,8.25-.92,16.05,0,25.68s3.21,31.64,.92,36.23-82.09,2.75-83.46-1.83Z"/><path class="uuid-4dd008d3-3253-4a69-b000-5a5219833e9d" d="M158.68,308.35c-.98-.63-2.15-.77-3.28-.99-1.14-.22-2.29-.44-3.43-.65-2.26-.43-4.52-.87-6.79-1.29-4.65-.86-9.32-1.67-14.03-2.02-4.55-.34-9.09-.25-13.61,.36-2.25,.3-4.41,.82-6.6,1.41-1.67,.45-5.02,.84-5.86,2.56-.22,.45-.24,1.11,.19,1.47,1.55,1.29,4.17,.42,6.01,.21,2.2-.25,4.4-.44,6.6-.64,4.43-.41,8.87-.26,13.28,.27,4.34,.51,8.65,1.31,12.94,2.17,2.26,.45,4.52,.91,6.77,1.37,2.29,.47,5.09,1.5,7.39,.89,2.35-.62,2.66-4.26,.42-5.12Z"/><path class="uuid-4dd008d3-3253-4a69-b000-5a5219833e9d" d="M111.33,277.67c-.35-1.41-2.35-1.03-2.44,.33-.26,4.26-.98,8.37-1.84,12.55-.42,2.07-.84,4.15-1.03,6.26-.1,1.03-.15,2.07-.14,3.11,0,.52,.03,1.04,.07,1.55,.02,.25,.05,.51,.06,.76,0,.03,.02,.03,.03,.05-.37,.58-.46,1.36,.16,1.87,.81,.67,1.93,.83,2.81,.16,1.13-.88,.91-2.25,.85-3.5-.13-2.57,.17-5.16,.55-7.7,.76-5.04,2.19-10.36,.92-15.43Z"/><path class="uuid-4dd008d3-3253-4a69-b000-5a5219833e9d" d="M120.53,275.95c-.21-1.05-1.83-.99-2.07,0-.49,2-.59,4.08-.81,6.12-.24,2.18-.41,4.37-.67,6.56-.25,2.09-.5,4.19-.8,6.27-.27,1.91-1.17,4.37,.2,6,.37,.43,1.12,.49,1.59,.2,1.84-1.11,1.69-4.05,1.93-5.95,.27-2.09,.49-4.19,.65-6.29,.31-4.21,.8-8.75-.02-12.92Z"/><path class="uuid-4dd008d3-3253-4a69-b000-5a5219833e9d" d="M130.33,276.25c-.32-.43-1.02-.69-1.44-.19-1.26,1.5-.96,4.26-1.11,6.11-.2,2.4-.34,4.8-.51,7.19-.17,2.31-.37,4.63-.6,6.93-.16,1.62-1.17,5.1,.68,6.08,.24,.13,.54,.15,.8,.09,0,0,0,.01,0,.02,2.02-.54,1.78-3.84,1.93-5.45,.21-2.39,.4-4.78,.55-7.18,.15-2.31,.3-4.63,.31-6.94,0-1.16,0-2.32,0-3.48,0-1.06,.06-2.31-.6-3.2Z"/><path class="uuid-4dd008d3-3253-4a69-b000-5a5219833e9d" d="M142.51,293.51c-.05-2.46-.09-4.92-.22-7.37-.13-2.46-.27-4.92-.52-7.37-.08-.82-.06-4.34-1.48-4.12-1.53,.23-1.24,4.11-1.31,5.1-.15,2.29-.17,4.59-.22,6.88-.05,2.29,0,4.59,.03,6.88,.03,2.39-.22,5.01,.3,7.34,.41,1.84,3.56,1.5,3.39-.41,.34-2.25,.06-4.66,.02-6.93Z"/><path class="uuid-4dd008d3-3253-4a69-b000-5a5219833e9d" d="M152.96,280.1c-.25-1.68-.93-3.88-2.72-4.46-.45-.15-.97,.25-.95,.72,.03,.73,.28,1.41,.41,2.12,.17,.92,.21,1.88,.18,2.81-.05,2.05-.3,4.1-.41,6.16-.23,4.57-.55,9.15-.58,13.73,0,1.29,.22,4.52,2.18,4.38,.74-.05,1.25-.82,1.56-1.42,.57-1.09,.54-2.52,.57-3.71,.1-4.58,.09-9.15,.08-13.73,0-2.19-.01-4.42-.33-6.59Z"/><path class="uuid-4dd008d3-3253-4a69-b000-5a5219833e9d" d="M143.63,365.33c-4.11,.74-8.34,1.51-12.52,1.75-3.8,.22-7.44-.22-11.12-1.15-3.62-.92-7.23-2.47-10.31-4.59-1.51-1.04-2.92-2.2-4.23-3.47-1.43-1.39-2.57-2.97-3.89-4.45-1.21-1.36-3.29,.38-2.45,1.89,1.54,2.78,4.13,5.29,6.55,7.3,2.51,2.1,5.28,4.03,8.23,5.45,6.01,2.89,12.77,4.39,19.44,3.65,4.18-.47,8.48-1.99,10.77-5.78,.2-.33-.13-.66-.46-.6Z"/><path class="uuid-4dd008d3-3253-4a69-b000-5a5219833e9d" d="M157.91,346.04c-.31,.12-.63,.22-.95,.31-.6-.05-1.23,.2-1.8,.42-.8,.31-1.51,.79-2.29,1.15-1.46,.68-3.06,1.15-4.64,1.49-1.64,.36-3.3,.49-4.96,.73-.75,.11-4.31,.3-3.6,1.78,.34,.71,1.31,.8,2,.87,.87,.09,1.74,.16,2.61,.14,1.83-.05,3.66-.21,5.47-.51,1.74-.29,3.39-.79,4.99-1.53,.78-.36,1.61-.79,2.22-1.43,.47-.49,1.04-1.28,1.05-2.01,.13-.31,.26-.62,.36-.94,.09-.27-.2-.59-.48-.48Z"/><path class="uuid-4dd008d3-3253-4a69-b000-5a5219833e9d" d="M149.74,385.21c-.93,.39-1.92,.39-2.89,.65-.86,.24-1.71,.44-2.55,.76-1.84,.71-3.68,1.27-5.63,1.61-3.79,.68-7.64,.75-11.47,.54-3.54-.19-7.09-.57-10.49-1.62-1.69-.52-3.32-1.15-4.83-2.09-1.35-.84-2.51-2.26-4.04-2.74-.34-.11-.7,.18-.7,.53,.02,2.71,3.51,4.84,5.59,5.96,2.68,1.45,5.65,2.25,8.64,2.78,6.46,1.14,13.47,1.66,19.91,.17,1.8-.42,3.85-.93,5.41-1.95,.75-.49,1.46-1.11,2.06-1.78,.59-.66,.91-1.53,1.43-2.26,.19-.26-.13-.7-.44-.57Z"/><path class="uuid-3410e9ac-e48e-4773-a171-e67daa71fb77" d="M146.64,332.61c-3.82,2.74-7.1,5.13-11.77,6.29-4.21,1.05-8.86,.73-12.93,2.2-1.71,.62-2.69,2.92-1.14,4.31,3.98,3.58,11.62,2.05,16.5,1.37,5.92-.82,12.07-2.84,15.51-8.01,2.42-3.64-2.49-8.8-6.17-6.17Z"/><path class="uuid-3410e9ac-e48e-4773-a171-e67daa71fb77" d="M158.64,323.52c-.98-.57-2.55-.73-3.51,0-.36,.27-.72,.53-1.03,.85-.23,.24-.47,.54-.65,.82-.2,.31-.31,.64-.38,.97,0,.06-.02,.13-.04,.19-.01,.05,0,.1-.02,.15-.01,.09-.03,.18-.04,.27-.12,.92,.07,1.79,.67,2.56,.62,.81,1.62,1.41,2.68,1.35,1.36-.08,2.66-.56,3.38-1.83,.39-.7,.7-1.5,.66-2.32-.07-1.24-.62-2.36-1.72-3.01Z"/><path class="uuid-3410e9ac-e48e-4773-a171-e67daa71fb77" d="M120.04,327.32c.12-1.18-.26-2.34-.88-3.34-.13-.23-.29-.44-.46-.64-.13-.17-.2-.26-.24-.31-.26-.37-.5-.79-.82-1.11-.89-.89-2.58-1.36-3.71-.63-2.27,1.45-1.77,4.5-.52,6.48,.77,1.22,2.05,2.23,3.55,2.29,.23,0,.44,0,.67-.03,.39,0,.75-.1,1.08-.28,.05,0,.11-.02,.2-.03,.39-.05,.78-.31,.76-.76,0-.13,0-.2,0-.22,.08-.16,.15-.31,.19-.48,.09-.3,.14-.6,.18-.92Z"/><path class="uuid-3410e9ac-e48e-4773-a171-e67daa71fb77" d="M113.61,374.35c-2.7-.98-5.49-1.05-8.12-2.41-2.29-1.18-3.79-3.53-6.07-4.55-.94-.42-2.22-.71-3.14,0-.12,.09-.23,.18-.35,.27-1.77,1.37-2.04,4.78,.7,5.33,.75,.15,2.45,2.48,3.11,3,1.32,1.04,2.72,1.95,4.25,2.65,2.86,1.31,6.54,2.31,9.62,1.42,2.95-.85,2.67-4.75,0-5.72Z"/><path class="uuid-3410e9ac-e48e-4773-a171-e67daa71fb77" d="M157.67,370.49c-3.5,.35-5.64,2.9-8.42,4.81-1.48,1.02-3.66,1.69-3.8,3.77-.22,3.21,3.81,3.68,6.03,2.86,1.54-.57,2.95-1.52,4.37-2.33,1.88-1.06,3.7-1.95,4.79-3.92,1.15-2.09-.25-5.46-2.97-5.18Z"/><path class="uuid-3410e9ac-e48e-4773-a171-e67daa71fb77" d="M164.18,385.76c-.59-.76-1.55-1.35-2.56-1.28-.9,.06-1.83,.3-2.47,1-.39,.42-.68,.92-.86,1.47-.02,.05-.03,.1-.05,.16,.03-.07,.06-.13,.08-.2-.28,.75-.3,1.51,.03,2.29,.12,.38,.34,.71,.64,.99,.38,.38,.84,.65,1.36,.79,.36,.14,.77,.14,1.15,.19,.6,0,1.16-.15,1.68-.45,.5-.3,.9-.69,1.19-1.19,.15-.23,.32-.64,.38-.91,.24-1.03,.07-2-.58-2.84Z"/><path class="uuid-fe4d9dff-edd1-4f3e-9bc5-c0e9f958331d" d="M192.87,150.29c-1.46-5.44-2.98-10.86-4.49-16.29-1.37-4.93-8.67-2.85-7.62,2.1,1.11,5.21,2.2,10.43,3.35,15.63,1.06,4.8,1.33,10.34,3.61,14.68,1.66,3.16,6.92,2.49,7.71-1.01,1.14-5.05-1.25-10.22-2.56-15.11Z"/><path class="uuid-fe4d9dff-edd1-4f3e-9bc5-c0e9f958331d" d="M63.97,200.84c-1-10.53-5.44-21.21-8.8-31.19-1.68-4.99-9.32-2.98-7.94,2.19,1.33,5.02,2.61,10.06,3.79,15.12,1.17,5.01,1.87,10.33,3.73,15.13,1.75,4.51,9.77,4.47,9.23-1.25Z"/></g><path class="uuid-a115c5cb-f5bf-41e3-8b91-772c33c15c9c" d="M63.48,295.04c-2.39-2.29-5.2-4.03-8.32-5.16-1.53-.55-3.12-.94-4.73-1.16,1.06-.31,2.11-.64,3.15-1,.88-.3,1.75-.64,2.62-.99,.13,.04,.26,.05,.41,.03,.41-.08,.76-.34,1.09-.66,.37-.16,.74-.32,1.1-.49,1.08-.02,2.15-.09,3.22-.19,2.32-.22,4.64-.63,6.81-1.5,4.84-1.94,8.12-5.94,10.73-10.31,.56-.93-.41-1.78-1.3-1.65-4.63,.65-9.09,2.26-13.08,4.7-1.93,1.18-3.75,2.56-5.42,4.08-.86,.79-1.7,1.62-2.46,2.5-.11,.13-.24,.28-.38,.42-.47,.15-.92,.35-1.38,.56-.12,.05-.17,.18-.18,.3-.42,.15-.83,.31-1.25,.45-1.56,.52-3.15,.97-4.74,1.39,1.01-.79,1.96-1.66,2.83-2.59,3.49-3.76,5.77-8.41,7.95-13,.52-1.1-.6-2.28-1.71-1.67-4,2.17-7.59,5.09-10.52,8.58-1.42,1.69-2.68,3.51-3.75,5.45-.57,1.02-1.09,2.08-1.54,3.16-.16,.38-.3,.78-.34,1.2-.31,.14-.61,.31-.9,.49-3.41,.49-6.85,.73-10.3,.8,.98-.78,1.91-1.63,2.77-2.55,2.55-2.73,4.5-5.99,5.71-9.52,.29-.84,.54-1.7,.74-2.57,.18-.76,.52-1.77,.29-2.56-.68-2.3-3.19-.66-4.36,.11-3.53,2.36-6.53,5.45-8.81,9.03-1.22,1.9-2.2,3.96-2.86,6.12-.19,.6-.34,1.23-.42,1.86-2.96-.11-5.91-.31-8.84-.58-.2-.02-.4-.04-.6-.06,1.72-1.23,3.28-2.67,4.59-4.33,2.96-3.72,4.75-8.21,4.97-12.96,.04-.84-1.02-1.43-1.72-.97-3.91,2.6-7.93,5.26-11.03,8.84-1.33,1.53-2.54,3.22-3.36,5.09-.49,1.11-1,2.3-1.01,3.48-1.04-.15-2.08-.34-3.12-.38-1.27-.05-2.43,.61-3.64,0-.25-.13-.52,.14-.38,.39,1.13,2.05,3.2,2.66,5.37,2.93,.76,.1,1.53,.17,2.29,.26,.05,.05,.12,.09,.19,.11,.64,.15,1.17,.18,1.7,.11,.52,.06,1.05,.12,1.57,.18,.09,.65,.3,1.3,.48,1.9,.28,.96,.61,1.91,.99,2.84,.76,1.88,1.69,3.68,2.8,5.37,1.08,1.65,2.32,3.21,3.69,4.63,.7,.72,1.43,1.41,2.19,2.05,.8,.68,1.74,1.23,2.5,1.95,.57,.54,1.52,.42,1.91-.28,.96-1.74,.76-4.04,.46-5.97-.31-1.99-1.01-3.93-2.04-5.66-1.11-1.85-2.62-3.4-4.3-4.74-.63-.5-1.27-.99-1.9-1.48,2.12,.15,4.24,.27,6.36,.31,.08,.05,.18,.08,.28,.09,.55,.06,1,.04,1.46-.06,.22,0,.44,.01,.66,.01,.33,0,.66,0,.99-.01,.54,1.42,1.76,2.73,2.64,3.87,1.1,1.44,2.27,2.83,3.57,4.1,2.32,2.27,5.1,4.15,8.22,5.11,1.17,.36,3.14,1,4.32,.4,1.46-.74,.73-2.33,.05-3.31-1.82-2.64-4.1-4.93-6.73-6.76-1.5-1.05-3.12-1.94-4.81-2.65-.66-.28-1.46-.65-2.28-.93,4.17-.25,8.34-.75,12.43-1.6,.03,.04,.05,.09,.09,.14,.57,.72,1.35,1.35,2.06,1.92,1.43,1.16,3,2.15,4.68,2.92,3.45,1.57,7.11,2.15,10.88,1.77,.84-.08,1.37-1.09,.7-1.74Z"/><path class="uuid-a115c5cb-f5bf-41e3-8b91-772c33c15c9c" d="M203.54,331.5c-.71,3.23-.72,6.54-.05,9.78,.33,1.59,.83,3.15,1.48,4.64-.81-.74-1.64-1.47-2.5-2.17-.72-.59-1.46-1.16-2.21-1.71-.03-.13-.09-.25-.19-.37-.28-.31-.69-.47-1.13-.58-.33-.23-.66-.46-1-.68-.58-.9-1.2-1.79-1.84-2.65-1.4-1.86-2.96-3.63-4.84-5.02-4.18-3.12-9.3-3.82-14.4-3.76-1.09,.01-1.3,1.27-.73,1.97,2.97,3.61,6.68,6.57,10.84,8.69,2.02,1.03,4.14,1.86,6.31,2.49,1.12,.32,2.27,.6,3.42,.79,.17,.03,.36,.06,.56,.1,.37,.32,.78,.6,1.2,.89,.1,.07,.24,.05,.35,0,.34,.28,.7,.54,1.04,.83,1.26,1.06,2.47,2.17,3.66,3.31-1.2-.45-2.44-.8-3.69-1.06-5.03-1.01-10.19-.53-15.24,.01-1.21,.13-1.62,1.7-.53,2.33,3.94,2.27,8.31,3.82,12.81,4.49,2.19,.33,4.4,.45,6.6,.35,1.17-.05,2.34-.16,3.5-.33,.41-.06,.82-.15,1.2-.34,.29,.19,.58,.36,.89,.51,2.19,2.65,4.2,5.46,6.06,8.36-1.18-.43-2.39-.78-3.62-1.03-3.66-.75-7.46-.71-11.1,.11-.87,.2-1.73,.43-2.58,.71-.75,.25-1.78,.48-2.33,1.09-1.6,1.78,1.1,3.07,2.37,3.66,3.86,1.78,8.06,2.72,12.3,2.8,2.26,.04,4.52-.19,6.71-.76,.61-.16,1.23-.35,1.81-.62,1.45,2.58,2.82,5.2,4.12,7.84,.09,.18,.17,.36,.26,.54-1.94-.82-3.99-1.4-6.09-1.65-4.71-.58-9.48,.24-13.65,2.54-.73,.4-.69,1.62,.07,1.97,4.26,1.98,8.63,4.01,13.3,4.78,2,.33,4.07,.48,6.09,.21,1.2-.16,2.48-.35,3.49-.96,.41,.96,.8,1.95,1.31,2.86,.62,1.11,1.79,1.75,1.9,3.1,.02,.28,.39,.37,.53,.12,1.15-2.04,.59-4.12-.31-6.11-.32-.7-.65-1.39-.97-2.09,.02-.07,.02-.15,0-.22-.21-.63-.45-1.09-.79-1.5-.22-.48-.45-.96-.67-1.44,.51-.41,.95-.93,1.37-1.4,.67-.74,1.31-1.52,1.9-2.32,1.2-1.63,2.26-3.36,3.12-5.19,.84-1.78,1.53-3.66,2.02-5.57,.25-.97,.45-1.95,.61-2.94,.16-1.04,.14-2.13,.36-3.15,.16-.77-.44-1.52-1.24-1.48-1.99,.09-3.84,1.46-5.33,2.72-1.53,1.3-2.82,2.92-3.76,4.7-1,1.91-1.53,4.01-1.79,6.14-.1,.8-.18,1.6-.27,2.4-.98-1.89-1.99-3.75-3.05-5.59,0-.09-.02-.19-.07-.29-.24-.5-.49-.88-.82-1.21-.11-.19-.22-.38-.33-.56-.17-.28-.35-.56-.53-.84,.93-1.2,1.41-2.93,1.92-4.28,.65-1.69,1.23-3.41,1.63-5.18,.72-3.17,.87-6.51,.06-9.68-.31-1.19-.79-3.2-1.91-3.89-1.39-.86-2.37,.59-2.85,1.68-1.3,2.93-2.06,6.07-2.25,9.27-.11,1.83-.02,3.67,.25,5.48,.11,.71,.2,1.59,.4,2.43-2.39-3.43-5-6.71-7.85-9.76,.02-.05,.05-.09,.07-.15,.31-.86,.45-1.85,.57-2.76,.24-1.83,.27-3.68,.04-5.51-.47-3.76-1.88-7.18-4.17-10.2-.51-.67-1.65-.6-1.85,.32Z"/><path class="uuid-a115c5cb-f5bf-41e3-8b91-772c33c15c9c" d="M41.15,32.89c2.86,.03,5.66-.54,8.28-1.67,1.29-.56,2.52-1.25,3.66-2.07-.48,.82-.95,1.65-1.39,2.49-.37,.71-.72,1.44-1.06,2.17-.1,.05-.2,.12-.28,.23-.21,.29-.28,.66-.29,1.06-.14,.32-.27,.64-.4,.96-.66,.65-1.3,1.33-1.92,2.02-1.33,1.51-2.55,3.14-3.4,4.97-1.9,4.08-1.6,8.54-.65,12.83,.2,.92,1.31,.88,1.8,.27,2.53-3.15,4.38-6.8,5.45-10.69,.52-1.88,.85-3.83,1-5.77,.08-1.01,.11-2.02,.07-3.03,0-.15,0-.32-.01-.49,.2-.37,.37-.77,.54-1.17,.04-.1,0-.21-.07-.29,.17-.34,.34-.69,.52-1.02,.68-1.25,1.41-2.47,2.16-3.67-.17,1.09-.25,2.2-.25,3.3,.03,4.43,1.34,8.7,2.68,12.88,.32,1,1.72,1.08,2.07,.04,1.23-3.73,1.77-7.69,1.55-11.61-.11-1.91-.39-3.79-.86-5.65-.25-.98-.54-1.95-.9-2.9-.13-.34-.28-.67-.49-.96,.11-.28,.2-.55,.27-.84,1.86-2.32,3.88-4.51,6.01-6.59-.15,1.07-.24,2.16-.24,3.24,0,3.23,.71,6.43,2.04,9.37,.32,.7,.66,1.39,1.05,2.06,.34,.59,.72,1.42,1.33,1.78,1.78,1.04,2.4-1.47,2.68-2.65,.83-3.57,.89-7.29,.21-10.89-.36-1.92-.96-3.79-1.82-5.54-.24-.49-.51-.98-.84-1.42,1.93-1.68,3.9-3.29,5.9-4.86,.14-.11,.28-.21,.41-.32-.35,1.79-.48,3.62-.33,5.43,.34,4.09,1.87,7.97,4.54,11.09,.47,.55,1.49,.3,1.65-.4,.92-3.95,1.88-8,1.71-12.08-.07-1.75-.31-3.53-.89-5.19-.35-.98-.73-2.04-1.42-2.78,.74-.52,1.51-1.02,2.19-1.61,.83-.72,1.17-1.82,2.28-2.15,.23-.07,.24-.4,0-.47-1.92-.62-3.59,.22-5.11,1.33-.54,.39-1.06,.79-1.6,1.19-.06,0-.13,.01-.19,.05-.49,.29-.85,.58-1.13,.93-.37,.27-.73,.55-1.1,.82-.44-.36-.96-.64-1.43-.92-.74-.44-1.51-.84-2.3-1.2-1.59-.73-3.24-1.32-4.94-1.73-1.66-.4-3.36-.65-5.06-.73-.86-.04-1.73-.04-2.59,0-.91,.05-1.82,.25-2.73,.25-.68,0-1.2,.64-1.03,1.3,.42,1.67,1.91,2.99,3.24,4.03,1.37,1.07,2.96,1.88,4.63,2.35,1.79,.51,3.66,.59,5.51,.44,.69-.06,1.38-.13,2.07-.2-1.42,1.16-2.82,2.34-4.19,3.56-.08,.02-.16,.05-.23,.11-.38,.29-.65,.57-.88,.9-.14,.13-.28,.25-.42,.38-.21,.2-.41,.4-.62,.6-1.18-.57-2.72-.67-3.95-.88-1.54-.25-3.1-.44-4.67-.47-2.8-.05-5.66,.4-8.19,1.65-.95,.47-2.56,1.23-2.95,2.3-.48,1.33,.91,1.9,1.92,2.11,2.71,.58,5.49,.68,8.23,.27,1.56-.23,3.11-.62,4.59-1.18,.58-.22,1.3-.45,1.98-.76-2.48,2.62-4.8,5.4-6.87,8.35-.05,0-.09-.03-.14-.03-.79-.11-1.64-.05-2.43,0-1.59,.12-3.16,.42-4.67,.93-3.1,1.05-5.74,2.85-7.89,5.32-.48,.55-.22,1.5,.59,1.51Z"/></g><path class="uuid-223d8493-7efa-41d0-b975-952c66d43595" d="M53.25,340.41c-.07-.18-.15-.36-.22-.53-.14-.26-.33-.47-.57-.63-.14-.14-.3-.23-.49-.29-.27-.14-.55-.2-.86-.19-.16,0-.47,.05-.63,.08-.03,0-.06,.01-.1,.02-.11,.01-.21,.06-.3,.12-.2,.06-.37,.16-.52,.3-.1,.08-.2,.15-.29,.23-.12,.11-.23,.23-.35,.35-.24,.24-.49,.49-.73,.73-.12,.12-.24,.23-.35,.35-.23,.25-.4,.53-.57,.82-.16,.27-.34,.54-.42,.84-.04,.14-.06,.29-.09,.44-.11,.55-.04,1.04,.3,1.48,.12,.19,.28,.33,.48,.44,.26,.15,.55,.23,.86,.23,.29-.03,.59-.04,.88-.11,.3-.07,.59-.24,.87-.38,.08-.04,.16-.08,.23-.11,.17-.08,.28-.15,.44-.28,.21-.16,.41-.33,.62-.5,.27-.22,.53-.44,.8-.66,.13-.1,.26-.2,.38-.32,.02-.01,.03-.03,.05-.05,.12-.16,.25-.32,.37-.48l.24-.56,.08-.63s0-.06,0-.09c0-.13-.05-.53-.09-.65Z"/><path class="uuid-223d8493-7efa-41d0-b975-952c66d43595" d="M44.33,354.7c-.1-.14-.21-.28-.32-.42-.43-.53-1.37-.74-2-.53-.32,.11-.79,.28-1.09,.49-.2,.14-.4,.29-.6,.44-.09,.07-.19,.14-.28,.21-.22,.16-.47,.31-.65,.51-.17,.19-.31,.4-.47,.6-.1,.13-.2,.26-.31,.4-.14,.23-.22,.47-.23,.73-.06,.42,0,.89,.23,1.25,.18,.28,.42,.52,.7,.7,.39,.25,1.07,.35,1.51,.2,.23-.08,.45-.16,.67-.25,.27-.1,.52-.2,.75-.37,.1-.08,.21-.15,.31-.23,.2-.15,.4-.29,.6-.44,.24-.18,.46-.35,.65-.57,.19-.21,.36-.43,.52-.65,.39-.54,.39-1.54,0-2.08Z"/><path class="uuid-223d8493-7efa-41d0-b975-952c66d43595" d="M56.61,352.82c-.08-.42-.3-.83-.61-1.13,0,0,0,0,0-.01-.29-.29-.64-.49-1.04-.6-.42-.11-.83-.11-1.25,0-.29,.12-.6,.21-.87,.37-.11,.07-.23,.14-.34,.21-.36,.22-.77,.43-1.05,.74-.08,.09-.15,.18-.22,.27-.3,.36-.56,.66-.7,1.12-.03,.09-.05,.18-.08,.27-.07,.27-.08,.48-.04,.75,0,.11,.02,.21,.06,.31,.07,.24,.19,.45,.37,.63,.32,.42,1.15,.7,1.7,.69,.28,0,.56-.07,.84-.11,.12-.02,.24-.03,.35-.05,.38-.08,.8-.34,1.15-.53,.22-.11,.42-.22,.62-.37,.16-.12,.32-.24,.48-.37,.23-.21,.39-.46,.49-.76,.11-.18,.16-.38,.16-.59,.06-.28,.05-.56-.02-.83Z"/><path class="uuid-223d8493-7efa-41d0-b975-952c66d43595" d="M50.97,363.72c-.06-.26-.18-.48-.35-.67-.09-.15-.21-.27-.36-.36-.19-.18-.42-.29-.67-.35-.38-.06-.7-.11-1.09,0-.3,.08-.52,.24-.74,.41-.05,.04-.11,.08-.17,.12-.39,.27-.45,.34-.67,.63,0,0-.01,.02-.02,.02-.25,.3-.41,.49-.5,.88,0,.03-.01,.05-.02,.08-.03,.11-.06,.21-.09,.31-.06,.19-.07,.38-.03,.57,0,.19,.07,.37,.17,.53,.07,.1,.15,.19,.22,.29,.18,.18,.39,.3,.63,.37,.11,.05,.23,.09,.34,.13,.38,.12,.74,.11,1.13,.03,.08-.02,.15-.04,.23-.06,.23-.06,.45-.14,.65-.26,.18-.11,.4-.3,.58-.46,.06-.05,.11-.1,.17-.15,.41-.38,.72-.95,.67-1.53l-.07-.53Z"/><path class="uuid-223d8493-7efa-41d0-b975-952c66d43595" d="M43.26,372.4c-.09-.12-.19-.24-.28-.36-.22-.22-.49-.38-.79-.46-.31-.13-.72-.08-1.03-.02-.07,.01-.14,.02-.21,.04-.25,.06-.5,.18-.73,.31-.37,.21-.71,.4-1.04,.69-.19,.16-.39,.32-.55,.52-.31,.39-.66,.79-.72,1.29-.1,.37-.04,.87,.24,1.14,.13,.13,.29,.23,.45,.31,.11,.07,.23,.13,.37,.17,.16,.04,.35,.06,.52,.05,.12,0,.23-.02,.35-.03,.41-.04,.78-.11,1.17-.23,.39-.12,.75-.32,1.11-.5,.25-.13,.49-.3,.69-.5,.28-.27,.56-.62,.63-1.02,.09-.46,.09-.97-.18-1.39Z"/><path class="uuid-223d8493-7efa-41d0-b975-952c66d43595" d="M52.97,374.96c0-.49-.21-.96-.5-1.34-.16-.25-.38-.46-.66-.6-.05-.02-.1-.04-.14-.06,0,0,0,0,0,0-.42-.24-.87-.37-1.36-.37-.49,0-.94,.12-1.36,.37-.13,.07-.26,.14-.39,.21-.06,.03-.12,.06-.19,.09-.06,.03-.1,.07-.15,.1,0,0,0,0,0,0,0,0,0,0,0,0-.11,.07-.22,.14-.32,.23-.26,.19-.52,.38-.75,.61-.08,.08-.16,.15-.24,.23-.29,.28-.49,.66-.61,1.05-.07,.22-.09,.44-.08,.66,0,.37,.09,.71,.28,1.03,.12,.28,.38,.52,.62,.7,.25,.19,.51,.35,.82,.44,.08,.02,.16,.04,.25,.05,.29,.05,.58,.1,.88,.12,.32,.02,.63-.06,.95-.11,.62-.11,1.17-.38,1.67-.75,.18-.14,.36-.28,.55-.42,.26-.24,.45-.53,.56-.87,.12-.21,.18-.44,.18-.68,.05-.22,.05-.45,.02-.67Z"/><path class="uuid-223d8493-7efa-41d0-b975-952c66d43595" d="M65.64,362.68c-.11-.32-.29-.6-.54-.84-.33-.32-.71-.55-1.15-.67-.72-.27-1.44-.05-2.12,.2-.34,.13-.72,.24-1.02,.43-.13,.08-.25,.17-.37,.25-.27,.19-.58,.38-.8,.63-.09,.11-.18,.22-.27,.34-.32,.42-.5,.57-.65,1.09-.06,.22-.1,.45-.1,.67,0,.04,0,.07,0,.1,.02,.75,.39,1.31,.99,1.73,.69,.47,1.73,.42,2.53,.25,.18-.04,.35-.09,.53-.14,.24-.06,.47-.15,.7-.25,.1-.04,.2-.08,.29-.12,.08-.03,.15-.05,.23-.08,.45-.13,.84-.35,1.17-.68,.17-.18,.31-.38,.44-.58,.24-.41,.36-.85,.36-1.32,.01-.36-.06-.7-.23-1.01Z"/><path class="uuid-223d8493-7efa-41d0-b975-952c66d43595" d="M68.31,373.88s0-.08,0-.11c0-.39-.1-.75-.29-1.08-.19-.32-.45-.58-.77-.77-.57-.33-1.25-.36-1.85-.13-.4,.12-.76,.35-1.04,.64-.04,.05-.09,.08-.14,.13-.18,.16-.29,.35-.4,.53-.23,.26-.44,.54-.52,.89,0,.03-.01,.06-.02,.09,0,.01,0,.02,0,.03-.09,.33-.09,.67,0,1,.09,.32,.25,.6,.48,.83,.02,.02,.04,.04,.07,.07,.42,.38,.95,.66,1.54,.62,.29-.02,.59-.05,.88-.13,.06-.01,.11-.03,.16-.05,.42-.16,.8-.32,1.11-.67,.16-.18,.31-.38,.45-.58,.13-.18,.21-.4,.27-.61,.06-.23,.08-.47,.07-.7Z"/><path class="uuid-223d8493-7efa-41d0-b975-952c66d43595" d="M70.81,352.79c-.09-.5-.35-.99-.82-1.23,.07,.1,.03,.08-.12-.07,.04,.05,.04,.06,0,.02-.07-.01-.14-.11-.21-.13-.05-.01-.11-.01-.17,0-.32-.07-.63-.05-.93,.05-.55,.12-1.07,.45-1.43,.87-.17,.2-.36,.37-.56,.53,.14-.11,.27-.21,.41-.32-.17,.13-.33,.26-.49,.39-.31,.22-.66,.38-.92,.66-.04,.04-.08,.08-.12,.13-.26,.28-.35,.44-.48,.79-.13,.36-.13,.87,.11,1.19,.1,.13,.19,.26,.3,.38,.21,.24,.51,.37,.8,.47,.07,.02,.14,.05,.21,.07,.39,.1,.72,.07,1.1,0,.47-.08,.92-.25,1.36-.45,.14-.07,.27-.16,.4-.26,.25-.19,.51-.38,.74-.6,.05-.05,.11-.1,.16-.16,.3-.33,.45-.61,.61-1.03,.03-.07,.05-.15,.07-.22,.04-.16,.06-.4,.07-.56,0-.19-.03-.36-.08-.52Z"/><path class="uuid-223d8493-7efa-41d0-b975-952c66d43595" d="M210.43,91c-.39-.6-.97-1.14-1.69-1.3-.74-.17-1.51-.11-2.18,.29-.19,.11-.38,.22-.57,.33-.37,.22-.69,.51-1.02,.78-.31,.25-.64,.49-.92,.77-.4,.41-.75,.84-1.06,1.32l-.3,.45c-.11,.16-.19,.34-.25,.52-.07,.11-.13,.23-.16,.35-.09,.39-.02,.72,.14,1.08,.12,.26,.34,.47,.58,.64,.37,.3,.86,.47,1.33,.42,.17-.02,.35-.04,.52-.06,.36-.04,.75-.06,1.1-.14,.21-.05,.41-.11,.61-.18,.59-.19,1.16-.48,1.72-.73,.19-.08,.38-.16,.56-.26,.2-.12,.39-.26,.59-.38,.62-.4,1.1-.97,1.3-1.69,.19-.68,.1-1.58-.29-2.18Z"/><path class="uuid-223d8493-7efa-41d0-b975-952c66d43595" d="M196.82,92.71c-.06-.27-.19-.5-.37-.7-.26-.33-.65-.66-1.07-.74-.2-.04-.4-.06-.6-.08-.19,.03-.38,.05-.56,.08-.06,.02-.11,.04-.17,.07-.21,.08-.44,.16-.64,.27-.21,.1-.38,.27-.56,.42-.21,.18-.38,.37-.56,.58-.17,.2-.33,.4-.5,.6-.09,.1-.17,.21-.25,.32-.2,.25-.24,.38-.37,.72-.09,.23-.16,.43-.14,.71,.03,.75,.49,1.36,1.21,1.58,.26,.08,.45,.08,.69,.05,.2-.02,.41-.03,.61-.08,.19-.05,.39-.16,.57-.25,.24-.11,.49-.23,.73-.34,.24-.11,.46-.22,.68-.37,.19-.13,.39-.26,.55-.43,.16-.16,.28-.36,.42-.55,.04-.05,.07-.1,.11-.15,.24-.35,.28-.73,.31-1.13-.02-.18-.05-.37-.07-.55Z"/><path class="uuid-223d8493-7efa-41d0-b975-952c66d43595" d="M200.38,102.22c-.01-.31-.11-.6-.28-.87-.21-.35-.49-.63-.84-.84-.34-.2-.54-.25-.89-.29-.21-.06-.41-.06-.62,0-.11,0-.22,.02-.32,.05-.21,.05-.4,.13-.58,.25-.06,.03-.12,.06-.18,.1l-.25,.17c-.31,.21-.63,.42-.9,.67-.39,.37-.77,.74-.91,1.3-.03,.14-.06,.28-.1,.42-.1,.44-.07,.97,.18,1.37,.25,.39,.6,.69,1.06,.81,.13,.04,.27,.08,.4,.11,.44,.12,.91,.08,1.34-.06,.09-.03,.18-.06,.28-.09,.36-.12,.7-.28,1.03-.46,.35-.18,.67-.36,.94-.67,.29-.29,.49-.64,.6-1.03,.1-.31,.11-.62,.04-.93Z"/><path class="uuid-223d8493-7efa-41d0-b975-952c66d43595" d="M189.54,106.72c-.08-.29-.23-.55-.44-.76-.22-.21-.47-.36-.76-.44-.45-.18-.92-.19-1.39-.06-.16,.05-.33,.11-.49,.17-.47,.18-.95,.36-1.39,.6-.39,.21-.8,.62-1.1,.96-.35,.38-.51,.9-.67,1.38-.21,.66,.35,1.3,1.01,1.32,.46,.01,.87,.08,1.33-.04,.17-.04,.35-.08,.52-.11,.33-.06,.62-.19,.94-.33-.15,.06-.3,.13-.45,.19,.3-.13,.61-.24,.93-.34,.15-.05,.31-.09,.46-.13,.44-.14,.78-.37,1.07-.72,.21-.22,.36-.47,.44-.76,.08-.31,.08-.61,0-.92Z"/><g><path class="uuid-223d8493-7efa-41d0-b975-952c66d43595" d="M191.33,113.37s.03-.02,.04-.03h.02s-.04,.02-.06,.03Z"/><path class="uuid-223d8493-7efa-41d0-b975-952c66d43595" d="M196.83,113.3c0-.1-.01-.19-.03-.29,.02-.06,.04-.11,.06-.17,.08-.2,0-.49-.27-.47-.03,0-.16,0-.22,.01-.03-.02-.07-.03-.1-.05-.02-.02-.04-.04-.06-.05-.38-.34-.94-.57-1.45-.55-.51,.02-.89,.18-1.35,.37,.17-.07,.34-.15,.52-.22-.48,.2-.96,.37-1.41,.63-.41,.24-.78,.53-1.16,.82-.18,.15-.35,.31-.48,.53-.02,.03-.03,.07-.05,.11-.19,.22-.3,.46-.36,.74-.08,.31-.07,.65,.11,.9-.03-.07-.06-.14-.1-.22,.09,.54,.6,.9,1.07,1.07,.03,0,.05,.01,.08,.02,.83,.39,1.85,.21,2.69-.05,1.29-.41,2.68-1.42,2.52-2.89,0-.08-.02-.17-.03-.25Z"/><path class="uuid-223d8493-7efa-41d0-b975-952c66d43595" d="M191.39,113.32c.11-.09,.22-.17,.34-.26-.12,.09-.23,.17-.34,.26Z"/></g><path class="uuid-223d8493-7efa-41d0-b975-952c66d43595" d="M209.25,107.12c-.08-.32-.22-.6-.44-.84-.11-.19-.26-.33-.44-.44-.24-.22-.52-.37-.84-.44-.22-.03-.44-.06-.66-.09-.45,0-.86,.11-1.25,.34-.12,.09-.25,.18-.37,.27-.21,.15-.45,.3-.63,.49-.13,.13-.23,.28-.34,.43-.44,.53-.93,1.07-1.03,1.77-.01,.04-.03,.08-.04,.13-.07,.36-.07,.69,.08,1.04,.13,.3,.35,.61,.65,.76,.15,.07,.3,.12,.46,.18,.02,0,.04,.03,.07,.03,.09,.04,.18,.08,.28,.11,.18,.02,.37,.05,.55,.07,.02,0,.04,0,.07,0,.08,0,.16-.02,.24-.03,.39-.05,.7-.09,1.06-.2,.08-.02,.15-.05,.23-.07,.05-.02,.09-.03,.14-.05,.2-.08,.4-.17,.6-.25,.21-.1,.39-.24,.55-.41,.15-.12,.29-.24,.43-.36,.24-.22,.41-.49,.51-.8,.16-.3,.23-.61,.21-.96l-.09-.66Z"/></g></g></svg>