<?xml version="1.0" encoding="UTF-8"?><svg id="uuid-4a4499c3-e9a2-4507-8348-dfca882aec7d" xmlns="http://www.w3.org/2000/svg" width="202.94" height="418.46" xmlns:xlink="http://www.w3.org/1999/xlink" viewBox="0 0 202.94 418.46"><defs><style>.uuid-aca9471c-331c-40a7-ae3e-327325a8b2c6{fill:#e6b49e;}.uuid-f6a4f1ea-7320-4504-b6cb-5c4aa99ef247{clip-path:url(#uuid-aa663294-b5d7-4d90-b3cd-653f32b2b685);}.uuid-e530f320-035a-47a6-9999-72abf555082e{fill:#fff;}.uuid-b4e98e16-b5f8-478f-8f60-7812dc4f1879{fill:#fcd006;}.uuid-1a22df5a-92e3-4380-ae28-71bd1de8162b{fill:#fdef9d;}.uuid-bd8a2781-f7e6-4740-aeaa-66a350b6581d{fill:#e4a724;}.uuid-d9e59386-5b08-4f97-ae1b-96fa34c8afa8{fill:#feec64;}.uuid-3eac624c-725b-4dcc-9378-8aecc764bee1{fill:#183f5b;}.uuid-2515f150-929e-418b-907c-ecc91f08dbba{fill:#dd967c;}.uuid-b1a5b1e3-75b5-49d3-be2a-b8995640faa0{fill:#edc026;}.uuid-4de0a0a6-c66a-4d96-b84a-803e4becc947{fill:#e2a324;}.uuid-4261e3d5-f260-46ab-bafa-f5fc92ffe678{fill:#fffbeb;}.uuid-df424170-1b61-45d7-a86d-8c1c0c909bb3{fill:none;}.uuid-13a46cea-da5d-4006-b155-51e8317af376{fill:#fef5cb;}.uuid-d8d0d8c5-8583-40c3-9a1e-a1e6f29b1772{fill:#c16420;}</style><clipPath id="uuid-aa663294-b5d7-4d90-b3cd-653f32b2b685"><rect class="uuid-df424170-1b61-45d7-a86d-8c1c0c909bb3" x="5.44" y="32.22" width="187.69" height="374.32"/></clipPath></defs><g id="uuid-27589e6a-bfe3-48c5-83de-5b2223a57751"><g><rect class="uuid-13a46cea-da5d-4006-b155-51e8317af376" x="5.44" y="32.22" width="187.69" height="374.32"/><g><path class="uuid-1a22df5a-92e3-4380-ae28-71bd1de8162b" d="M193.13,261.03c-5.3,2.31-10.38,5.04-15.05,8.52-31.43,23.36-34.48,71.37-63.92,97.2-14.48,12.7-33.69,18.49-49.71,29.18-4.69,3.13-9.08,6.7-13.13,10.62H193.13v-145.51Z"/><path class="uuid-1a22df5a-92e3-4380-ae28-71bd1de8162b" d="M24.47,79.33c9.39-18.61,23.35-34.69,40.07-47.11H5.44V110.19c9.08-7.83,13.55-19.99,19.03-30.86Z"/></g><path class="uuid-4261e3d5-f260-46ab-bafa-f5fc92ffe678" d="M35.77,161.85c-7.33-8.81-18.92-13.49-30.33-13.28v253.95c15.31-20.1,30.63-40.19,45.94-60.29,14.53-19.07,29.73-39.99,29.86-63.96,.16-28.07-20.19-51.6-29.62-78.05-4.68-13.12-6.95-27.66-15.86-38.37Z"/><path class="uuid-4261e3d5-f260-46ab-bafa-f5fc92ffe678" d="M107.19,66.66c.48,19.98,8.88,38.99,19.33,56.02,16.66,27.14,39.4,50.99,66.6,67.3V32.22H107.49c1.42,10.93-.57,23.17-.3,34.44Z"/><g class="uuid-f6a4f1ea-7320-4504-b6cb-5c4aa99ef247"><g><g><path class="uuid-3eac624c-725b-4dcc-9378-8aecc764bee1" d="M165.74,210.43c5.38-3.46,10.75-7.8,14.45-13.08,6.9-9.84,5.03-22.89,.15-33.32-.31-1.87-.86-3.7-1.63-5.44,2.75-9.67-1.52-20.01-9.08-26.61-9.24-8.07-22.52-9.45-34.22-7.6-6.92,1.09-13.73,3.32-19.12,7.93-5.15,4.41-8.93,10.24-12.17,16.14-2.6,4.74-4.82,9.68-7.02,14.63-1.46-.33-2.92-.66-4.38-.96-1.52-.31-3.05-.6-4.59-.86-12.44-3.98-25.43-8.79-38.57-8.74-11.17,.04-23.24,4.46-29.38,14.35-6.96,11.21-2.47,24.44,3.56,34.98,6.3,11,16.34,20.93,29.6,22.07,7,.61,13.64-1.76,19.6-5.29,6.13-3.63,11.94-7.97,17.19-12.78,10.07-9.23,16.95-20.84,24.8-31.85,12.03,3.55,24.54,7.29,37.17,5.42,9.01-1.33,17.94-6.14,23.17-13.71,.43,4.98-1.51,9.85-4.35,13.95-3.65,5.28-8.73,10.14-14.12,13.62-5.65,3.64-12.17,6.17-18.73,7.58-2.21,.48-1.77,3.78,.5,3.5,13.16-1.63,26.15-8.54,34.58-18.83,3.21-3.91,5.86-8.55,6.93-13.55,.44,1.59,.8,3.21,1.04,4.85,.87,5.88,.51,12.06-2.7,17.22-3.13,5.04-7.94,8.84-12.9,11.97-3.13,1.98-6.47,3.64-9.88,5.08-1.73,.73-3.49,1.38-5.28,1.95-1.69,.54-3.58,.75-4.93,1.96-1.2,1.07-.55,2.75,.9,3.09,1.6,.38,3.17-.28,4.69-.76,1.79-.57,3.55-1.22,5.28-1.94,3.29-1.38,6.42-3.06,9.42-4.99Zm-59.51-57.59c3.12-6.13,6.8-12.41,11.95-17.07,5.53-5,12.7-7.08,19.97-7.99,12.18-1.52,25.62,1.25,33.17,11.72,2.92,4.04,4.57,8.96,4.28,13.92-2.53-3.22-5.64-5.63-9.08-7.33-.07-.03-.13-.07-.2-.09-6.88-3.32-15.08-3.74-22.68-1.62-13.09,3.66-22.89,13.48-30.81,24.1-.08,.11-.17,.23-.25,.34,.02-.54-.25-1.04-.95-1.23-3.14-.83-6.06-2.45-9.24-3.25-.46-.11-.91-.22-1.37-.33,1.66-3.77,3.34-7.52,5.2-11.18ZM24.07,190.83c-2.26-5.62-3.55-12.04-1.36-17.9,1.85-4.96,5.82-8.92,10.39-11.47,10.41-5.79,22.42-4.45,33.54-1.62-10.51,.6-21.03,3.39-29.47,9.86-4.66,3.57-8.62,8.4-10.5,14.02-1.23,3.68-1.39,7.63-.68,11.43-.7-1.44-1.34-2.89-1.92-4.33Zm12.11,13.71c-3.85-3.2-5.82-8.55-5.68-13.47,.36-12.17,11.3-20.29,21.93-23.77,11.99-3.92,24.85-3.03,37.1-.87,1.79,.53,3.58,1.07,5.37,1.61-2.61,5.82-5.34,11.58-8.78,16.97-3.53,5.53-7.72,10.68-12.97,14.67-5.62,4.27-12.06,6.45-19.01,7.37-5.99,.79-12.97,1.64-17.97-2.5Zm50.2-2.14c-5.3,4.74-11.17,9.25-17.44,12.61-5.86,3.14-12.22,4.79-18.79,3.11-5.17-1.32-9.62-4.12-13.42-7.74,.19,.09,.36,.2,.55,.28,6.02,2.67,13.46,1.63,19.74,.54,6.69-1.16,12.94-3.62,18.39-7.7,5.17-3.87,9.46-8.93,13.01-14.3,4.16-6.3,7.31-13.13,10.34-20.02,3.72,1.12,7.44,2.23,11.16,3.33-7.35,10.39-13.96,21.3-23.55,29.87Zm45.97-27.93c-5.03-1.02-9.94-2.46-14.84-3.98,7.59-10.07,17.17-19.63,29.98-22.14,5.97-1.17,12.38-.63,17.67,2.56,3.69,2.22,6.87,5.5,8.67,9.44-1.58,3.33-4.07,6.22-6.95,8.51-9.89,7.84-22.67,8.02-34.53,5.62Z"/><path class="uuid-b4e98e16-b5f8-478f-8f60-7812dc4f1879" d="M41.74,225.48c-4.35,3.46,1.03,19.46,4.5,19.58s98.09-33.75,101.09-36.54c3-2.79-3.61-20.13-7.94-20.87-4.32-.74-93.48,34.5-97.66,37.82Z"/><path class="uuid-b4e98e16-b5f8-478f-8f60-7812dc4f1879" d="M47.22,244.44c-4.48,3.31,.27,19.56,3.73,19.82,3.46,.26,99.08-30.4,102.18-33.08,3.1-2.68-2.82-20.33-7.11-21.24-4.28-.91-94.5,31.33-98.8,34.5Z"/><path class="uuid-aca9471c-331c-40a7-ae3e-327325a8b2c6" d="M123.28,189.73c-6.12-6.04-15.31-3.43-16.42,5.59,0,0-15.74-9.3-19.96,3.26,0,0-11.78-4.23-14.46,5.97,0,0-10.19-.33-10.12,10.65,.07,10.97,3.67,26.89,9.59,34.3,5.93,7.41,12.52-.3,12.52-.3,0,0,13.45,11.23,16.12-.15,0,0,11.79,5.02,15.25-5.58,0,0,11.4,5.8,14.46-5.97,3.06-11.78-.66-41.54-6.97-47.76Z"/><path class="uuid-aca9471c-331c-40a7-ae3e-327325a8b2c6" d="M75.04,252.74c.22,1.01,1.6,18.23,4.92,26.8,3.32,8.57,3.73,22.73,3.41,28.6-.32,5.87-13.41,94.69-13.41,94.69l55.34,7.09s2.99-101.42,4.03-107.87c1.04-6.45,14.26-54.88,14.83-65.98s-13.6-28.42-19.55-31.04c-5.95-2.63-32.56,18.4-35.73,20.35-3.17,1.95-13.85,27.35-13.85,27.35Z"/><path class="uuid-b4e98e16-b5f8-478f-8f60-7812dc4f1879" d="M71.72,248.56s2.77,2.23,7.74,1.44,7.01-2.34,7.01-2.34l6.2,3.98s-15.18,4.93-18.38,5.39-5.92-3.97-5.92-3.97l3.34-4.5Z"/><path class="uuid-2515f150-929e-418b-907c-ecc91f08dbba" d="M136.27,215.9c-.2-.65-.36-1.41-.69-2.01-.4-.73-1.28-1.36-1.89-1.9-1.27-1.11-2.62-2.11-4.08-2.95-2.92-1.68-6.12-2.86-9.43-3.47-3.35-.62-6.74-.7-10.11-.18-.28,.04-.57,.1-.85,.15-.01-.06-.02-.13-.03-.19-.18-1.25-.34-2.5-.47-3.76-.13-1.27-.23-2.54-.31-3.81-.04-.63-.07-1.27-.09-1.9-.02-.64,.08-1.4-.29-1.95-.26-.39-.79-.45-1.07-.04-.34,.5-.28,1.07-.29,1.66,0,.54-.01,1.09-.01,1.63,0,1.22,.03,2.44,.08,3.66,.05,1.17,.12,2.34,.22,3.51,.05,.55,.1,1.11,.15,1.66-2.32,.61-4.62,1.53-6.51,2.89-2.92,2.11-3.78,5.65-1.56,8.62,2.23,2.99,6.13,4.46,9.34,6.12,.28,.15,.57,.28,.86,.43-.02,.04-.04,.08-.05,.12-.24,.84,.09,1.8,.27,2.64,.17,.78,.37,1.56,.58,2.33,.21,.77,.45,1.54,.71,2.29,.29,.86,.53,1.73,1.3,2.24-1.65,2.81-3.41,5.52-4.52,8.62-.66,1.85-1.13,3.78-1.42,5.74,0,0-.01,0-.02-.01-1.38-.46-2.67-.63-3.86-1.54-1.13-.87-2.04-2.06-2.8-3.26-1.93-3.05-3.31-6.53-4.62-9.88-2.73-7.03-4.64-14.4-5.69-21.87-.29-2.11-.48-4.23-.71-6.35-.12-1.1-.21-2.2-.29-3.3-.07-.99,.02-2.04-.48-2.93-.25-.44-.94-.51-1.21-.04-.44,.78-.42,1.59-.44,2.47-.03,1.06-.04,2.13-.03,3.19,.01,2.04,.17,4.06,.38,6.09,.42,4.11,1.1,8.19,2.04,12.21,.94,4.02,2.15,7.96,3.62,11.82,1.36,3.59,2.8,7.31,4.85,10.57,.28,.45,.62,.94,.99,1.43-.12,.04-.24,.08-.37,.16-1.18,.7-2.09,1.47-3.47,1.75-1.34,.27-2.75,.12-4.05-.26-3.09-.91-5.28-3.26-6.79-6.02-1.71-3.12-2.59-6.56-3.67-9.93-1.29-4.05-2.54-8.11-3.53-12.24-.55-2.31-1.03-4.63-1.4-6.97-.19-1.19-.34-2.39-.46-3.6-.11-1.1-.1-2.32-.62-3.31-.28-.54-.97-.36-1.18,.11-.45,.99-.34,2.2-.29,3.27,.05,1.18,.15,2.36,.26,3.53,.23,2.32,.56,4.63,.98,6.92,.84,4.61,1.96,9.18,3.23,13.69,1.3,4.65,2.98,9.97,6.21,13.73-.42,.19-.8,.5-1.24,.73-.73,.39-1.53,.61-2.36,.73-1.78,.26-3.72,0-5.43-.53-2.01-.63-3.19-1.96-4.24-3.71-.54-.89-1.04-1.8-1.55-2.7-.42-.73-.84-1.76-1.68-2.07-.07-.03-.16,.02-.18,.1-.3,.99,.48,2.2,.86,3.08,.48,1.1,.91,2.23,1.51,3.28,1.14,2,2.75,3.37,4.93,4.14,2.01,.71,4.23,1.04,6.36,.83,1.36-.14,4.04-.7,4.75-2.16,1.31,1.11,2.83,1.99,4.61,2.53,3.36,1.02,8.61,.86,10.7-2.49,.07-.1,.11-.21,.15-.32,1.71,1.56,3.8,2.65,5.94,1.97-.07,1.37-.06,2.74,.05,4.1,.18,2.18,.55,4.33,1.18,6.42,.54,1.77,1.23,4.11,3.22,4.64,.21,.06,.41-.05,.49-.25,.63-1.59-.16-3.18-.65-4.72-.54-1.71-.93-3.46-1.15-5.24-.43-3.47-.17-7.06,.73-10.44,.95-3.57,2.73-6.62,4.63-9.75,.97-1.61,1.9-3.24,2.61-4.99,.67-1.65,1.34-3.62,.23-5.23-.97-1.41-2.86-2.05-4.32-2.8-1.92-.99-3.84-1.97-5.76-2.96-2.13-1.1-6.58-2.9-6.44-5.9,.14-2.89,4.72-4.24,7.04-4.88,.3,.22,.68,.29,1.04,.03,.17-.12,.3-.24,.41-.37,2.54-.55,5.14-.73,7.73-.51,3.4,.28,6.81,1.2,9.86,2.74,1.54,.78,3.02,1.7,4.4,2.73,.71,.53,1.37,1.11,2.02,1.71,.67,.62,1.49,.86,2.3,1.26,.39,.19,.99-.09,.83-.59Zm-22.05,10.79c.92,.6,.5,1.45,.18,2.34-.3,.84-.68,1.64-1.09,2.42-.09-.22-.19-.44-.29-.67-.31-.73-.6-1.46-.87-2.2-.27-.76-.52-1.52-.75-2.29-.12-.38-.23-.77-.33-1.16-.02-.07-.04-.13-.05-.19,1.1,.54,2.2,1.1,3.21,1.75Z"/><path class="uuid-bd8a2781-f7e6-4740-aeaa-66a350b6581d" d="M63.33,238.95c-1.4,.15-2.88,.86-4.23,1.29-1.46,.47-2.91,.95-4.37,1.42-1.36,.44-2.71,.9-4.08,1.32-.66,.2-1.33,.38-1.99,.58-.63,.18-1.38,.29-1.83,.8-.29,.33-.36,.93,.11,1.18,1.14,.61,2.88-.08,4.06-.39,1.43-.38,2.85-.8,4.27-1.2,1.47-.42,2.94-.84,4.41-1.26,1.47-.42,3.18-.69,4.53-1.41,1.35-.72,.45-2.47-.88-2.33Z"/><path class="uuid-bd8a2781-f7e6-4740-aeaa-66a350b6581d" d="M145.58,209.55c-.1-.42-.5-.66-.88-.78-.5-.15-.93,.03-1.38,.2-.69,.25-1.39,.5-2.08,.75-.7,.24-1.4,.47-2.09,.72-.35,.13-.69,.26-1.04,.39-.46,.17-.94,.29-1.28,.65-.44,.46-.37,1.38,.35,1.54,.79,.18,1.65-.15,2.42-.35,.74-.19,1.46-.43,2.19-.65,.7-.22,1.4-.44,2.1-.67,.44-.14,.93-.25,1.27-.58,.3-.3,.54-.79,.43-1.21Z"/><path class="uuid-bd8a2781-f7e6-4740-aeaa-66a350b6581d" d="M62.08,256.45c-.06-.21-.18-.4-.36-.51-.09-.06-.18-.12-.27-.18-.35-.25-.75-.29-1.16-.21-.25,.05-.51,.09-.76,.12-.04,0-.08,0-.12,0-.31,.02-.56,.06-.84,.21-.23,.12-.43,.24-.58,.46-.15,.23-.23,.51-.16,.78,.08,.31,.26,.56,.54,.73,.16,.1,.34,.19,.51,.26,.32,.12,.73,.07,1.06,.04,.38-.03,.81-.04,1.17-.18,.32-.12,.57-.34,.74-.64,.05-.09,.1-.18,.14-.27,.1-.2,.17-.41,.11-.64Z"/><path class="uuid-bd8a2781-f7e6-4740-aeaa-66a350b6581d" d="M66.62,255.68c-.06-.24-.19-.44-.38-.59-.34-.29-.83-.34-1.23-.13-.05,.03-.11,.05-.16,.08-.14,.06-.27,.16-.39,.26-.07,.07-.15,.12-.22,.18-.05,.03-.1,.06-.15,.1-.09,.06-.14,.1-.2,.17-.03,.03-.06,.06-.09,.09-.17,.17-.32,.34-.41,.57-.02,.05-.03,.09-.05,.14l-.04,.22c0,.11,.01,.22,.06,.32,.07,.18,.17,.28,.32,.41,.23,.18,.5,.28,.79,.27,.17,0,.33-.02,.5-.04,.17-.02,.33-.1,.48-.18,.22-.12,.42-.27,.61-.43,.27-.22,.41-.53,.52-.85,.02-.1,.03-.2,.05-.29,0-.1-.02-.2-.03-.3Z"/><g><path class="uuid-bd8a2781-f7e6-4740-aeaa-66a350b6581d" d="M67.27,252.66s0,0,0,0c.04-.04,.07-.08,.11-.13-.03,.04-.07,.08-.1,.12Z"/><path class="uuid-bd8a2781-f7e6-4740-aeaa-66a350b6581d" d="M67.22,252.72s.03-.03,.04-.05c0,0-.01,0-.02,.02,0,.01-.02,.02-.03,.04Z"/><path class="uuid-bd8a2781-f7e6-4740-aeaa-66a350b6581d" d="M69.94,252.92c-.08-.27-.23-.53-.48-.67-.24-.14-.48-.17-.75-.14,.01,0,.03,0,.04,0-.07,0-.15,0-.22,0-.11,0-.25,.01-.35,.04-.04,0-.07,.02-.11,.03-.06,.02-.12,.02-.18,.04-.28,.06-.47,.23-.63,.44-.16,.2-.24,.47-.17,.72-.03-.26-.03-.3-.01-.11,0,.04,0,.08,.01,.12,0,0,0,.02,0,.03,.06,.19,.12,.34,.26,.49,.17,.19,.41,.3,.65,.36,.09,.02,.17,.04,.26,.05,.06,.02,.12,.03,.18,.02l.3-.03s.05,0,.08-.01c.1-.02,.2-.05,.3-.08,.14-.03,.27-.09,.38-.18,.12-.07,.22-.17,.29-.29,.14-.23,.22-.57,.14-.83Z"/><polygon class="uuid-bd8a2781-f7e6-4740-aeaa-66a350b6581d" points="67.26 252.67 67.26 252.66 67.26 252.66 67.26 252.67"/></g><path class="uuid-bd8a2781-f7e6-4740-aeaa-66a350b6581d" d="M54.29,259.88c-.12-.19-.34-.23-.52-.09-.08,.07-.16,.15-.24,.22-.02,.01-.04,.02-.06,.03-.03,.02-.06,.03-.09,.04-.03,.01-.06,.02-.1,.03-.14,.03-.26,.09-.39,.14,.07-.03,.14-.05,.22-.08-.1,.04-.21,.07-.31,.09-.19,.03-.35,.12-.53,.18l.23-.09c-.13,.05-.26,.09-.38,.17-.05,.03-.1,.06-.16,.09-.26,.12-.42,.41-.43,.69,0,.27,.13,.59,.38,.72,.14,.07,.29,.15,.44,.19,.25,.07,.52,.06,.77,0,.24-.06,.46-.22,.65-.38,.11-.09,.2-.19,.29-.3,.21-.25,.3-.61,.34-.94,.02-.23,.01-.52-.11-.72Z"/><g><path class="uuid-bd8a2781-f7e6-4740-aeaa-66a350b6581d" d="M148.6,228.14c0-.05,0-.1-.01-.16,0-.15-.04-.3-.12-.43-.17-.3-.45-.53-.79-.6-.16-.03-.32-.07-.48-.08-.16-.01-.33,.01-.49,.03-.06,0-.13,.02-.19,.03-.12,.03-.25,.07-.35,.13-.08,.05-.19,.12-.25,.19-.07,.06-.13,.16-.19,.23-.12,.15-.2,.33-.26,.5-.09,.26-.03,.56,.13,.78,.06,.1,.14,.18,.24,.24,.14,.09,.28,.13,.44,.14,.06,0,.11,0,.17,0,.12,.03,.22,.03,.36,.02,.02,0,.04,0,.06,0,.05,0,.1,0,.14,0,0,0,.02,0,.03,0,.01,0,.03,.01,.04,.02,.15,.06,.32,.06,.48,.05,.16-.02,.31-.05,.45-.13,.16-.08,.27-.21,.38-.34,.07-.09,.14-.19,.17-.32,.02-.06,.05-.24,.05-.3Z"/><path class="uuid-bd8a2781-f7e6-4740-aeaa-66a350b6581d" d="M148.43,228.7s-.03,.04-.05,.05c-.04,.05-.09,.11-.14,.17,.06-.07,.12-.15,.18-.22Z"/></g><path class="uuid-bd8a2781-f7e6-4740-aeaa-66a350b6581d" d="M152.73,228.77c-.03-.14-.08-.26-.17-.36-.07-.12-.16-.21-.28-.28-.1-.06-.21-.1-.32-.13-.08-.04-.17-.08-.27-.08-.17-.04-.33-.04-.5,0-.02,0-.04,0-.06,0-.04,0-.07,0-.11,.01-.11,.03-.22,.07-.33,.12-.15,.08-.23,.15-.33,.26-.02,.02-.05,.05-.07,.07-.22,.22-.37,.52-.38,.84,0,.23,.04,.4,.14,.61,.16,.33,.51,.55,.86,.63,.17,.06,.34,.07,.52,.04,.07,0,.13,0,.2-.02,.26-.05,.4-.17,.6-.33,.04-.03,.08-.06,.11-.09,.25-.21,.39-.55,.4-.89,.02-.14,.03-.27,0-.41Z"/><path class="uuid-bd8a2781-f7e6-4740-aeaa-66a350b6581d" d="M50.08,238.45c.12-.1,.12-.3,.02-.42,0,0-.02-.02-.03-.03-.05-.16-.14-.3-.26-.41-.04-.05-.07-.1-.13-.15-.18-.15-.4-.25-.64-.25-.31,0-.62,.04-.92,.12-.18,.05-.38,.1-.54,.19-.17,.1-.32,.23-.46,.36-.32,.3-.43,.84-.2,1.23,.09,.15,.21,.28,.35,.38,.23,.16,.51,.17,.78,.13,.01,0,.03,0,.04,0,.04,0,.09,0,.13-.01,.14-.01,.17-.02,.27-.05,0,0,0,0,0,0,.25-.09,.51-.15,.77-.24,.23-.07,.41-.18,.57-.36,.07-.08,.12-.17,.16-.26,.05-.07,.08-.15,.1-.23,0,0,0,0,0,0Z"/><path class="uuid-bd8a2781-f7e6-4740-aeaa-66a350b6581d" d="M54.96,237.84c-.08-.17-.22-.33-.39-.42-.09-.04-.18-.08-.27-.12-.15-.05-.3-.07-.45-.04-.1,0-.2,.02-.29,.07-.14,.04-.27,.12-.38,.22-.07,.05-.14,.11-.2,.16-.04,.03-.08,.06-.11,.09-.08,.06-.16,.17-.22,.25-.07,.09-.11,.2-.15,.31-.03,.07-.05,.14-.08,.21-.01,.04-.03,.07-.04,.11-.03,.08-.05,.2-.05,.28,0,.05,.01,.1,.02,.15-.02,.1-.03,.2-.01,.3,.03,.12,.09,.23,.17,.32,.09,.09,.19,.16,.31,.2,.1,.03,.21,.03,.31,.01,0,0,0,0,.01,0,.13,.02,.27,.03,.4,0,.04,0,.07-.02,.11-.03,.08-.02,.15-.04,.23-.07,.05-.02,.1-.03,.15-.06,.1-.02,.19-.07,.26-.14,.06-.04,.12-.07,.16-.13,.03-.03,.06-.06,.09-.1,.06-.07,.12-.14,.18-.2,.06-.07,.12-.15,.19-.22,.09-.13,.14-.27,.15-.42,.03-.1,.03-.2,.01-.3,0-.15-.04-.3-.12-.43Z"/><path class="uuid-bd8a2781-f7e6-4740-aeaa-66a350b6581d" d="M59.1,235.1c-.17-.2-.46-.28-.72-.28-.16,0-.32,.01-.48,.02-.22,0-.43,.01-.62,.13-.06,.04-.12,.08-.19,.12-.06,.04-.11,.08-.17,.11-.09,.06-.21,.12-.29,.21-.13,.14-.2,.29-.18,.48,.02,.19,.11,.32,.26,.43,.14,.1,.35,.15,.51,.22,.07,.03,.14,.06,.2,.08,.21,.07,.43,.05,.64,0l.45-.09c.23-.04,.44-.14,.59-.32,.15-.18,.23-.4,.2-.63-.02-.2-.1-.35-.23-.5Z"/><path class="uuid-bd8a2781-f7e6-4740-aeaa-66a350b6581d" d="M62.35,236.93c-.02-.12-.07-.22-.15-.31-.06-.1-.14-.18-.24-.24-.13-.08-.28-.13-.44-.14-.1,0-.19,.02-.29,.03-.09,.01-.15,.03-.25,.09-.06,.05-.13,.09-.19,.14-.07,.05-.12,.12-.16,.19,0,0,0,0,0,0,0,0-.01,.02-.02,.02,0,0,.01,0,.02-.01,0,.01-.02,.03-.03,.04-.14,.13-.25,.3-.26,.49,0,.25,.12,.5,.33,.63,.12,.07,.24,.14,.38,.17,.11,.02,.22,.05,.33,.05,.17,0,.32-.03,.47-.11,.06-.05,.13-.09,.19-.14,.06-.05,.12-.12,.16-.2,.05-.08,.1-.17,.12-.26,.05-.15,.05-.31,.02-.47Z"/><path class="uuid-bd8a2781-f7e6-4740-aeaa-66a350b6581d" d="M138.77,205.96s-.03,0-.05,0c-.16-.16-.41-.3-.59-.35-.27-.08-.54-.03-.81,.01-.22,.01-.44,.02-.65,.09-.16,.05-.32,.1-.46,.18-.07,.04-.15,.08-.23,.11-.28,.13-.46,.46-.48,.76-.01,.32,.15,.62,.42,.8,.19,.12,.4,.26,.62,.31,.16,.03,.33,.08,.49,.09,.17,0,.36-.04,.53-.07,.16-.04,.32-.08,.48-.13,.3-.1,.58-.27,.73-.57,.1-.21,.18-.38,.17-.61,.02-.04,.05-.07,.07-.11,.12-.21,0-.47-.25-.48Z"/><path class="uuid-bd8a2781-f7e6-4740-aeaa-66a350b6581d" d="M142.92,206.48c-.06-.2-.17-.4-.36-.51-.2-.11-.41-.16-.64-.11-.04,0-.09,.02-.14,.02,.02,0,.05,0,.07,0-.1,0-.19,0-.28,.05-.11,.03-.2,.09-.28,.17-.05,.04-.12,.13-.15,.18-.02,.03-.03,.06-.05,.08h0c-.05,.08-.08,.16-.08,.24-.02,.14,0,.27,.06,.4,.01,.02,.02,.05,.03,.07,0,0,0,.02,.02,.03,.07,.13,.18,.25,.31,.33,.07,.03,.13,.06,.2,.09,.07,.01,.15,.03,.22,.04,.07,0,.17-.01,.24-.02,.02,0,.04,0,.07-.01,.05-.01,.1-.03,.15-.05,.11-.02,.2-.07,.29-.14,.09-.06,.17-.13,.22-.22,.06-.09,.1-.19,.11-.3,.03-.11,.03-.22,0-.33Z"/><path class="uuid-d9e59386-5b08-4f97-ae1b-96fa34c8afa8" d="M134.64,191c-.18-.34-.45-.59-.83-.71-.09-.03-.18-.04-.28-.06-.29-.05-.26-.03-.62,0-.17,.02-.33,.04-.5,.09-.25,.08-.53,.15-.77,.27-.25,.12-.45,.33-.59,.56-.02,.03-.04,.07-.07,.1,.01-.01,.02-.03,.03-.04-.11,.14-.19,.3-.21,.47-.04,.21-.03,.5,.1,.69,.17,.25,.32,.41,.57,.59,.2,.14,.47,.22,.71,.23,.15,0,.3-.02,.45-.03,.1,0,.2-.02,.29-.03,.09,0,.18-.01,.27-.03,.11-.01,.21-.05,.31-.09,.33-.11,.5-.18,.77-.41,.31-.25,.45-.6,.48-.98,.09-.22,.03-.47-.13-.64Z"/><path class="uuid-d9e59386-5b08-4f97-ae1b-96fa34c8afa8" d="M138.6,193.13c-.04-.1-.07-.19-.11-.29-.06-.08-.12-.17-.18-.25-.1-.12-.23-.21-.38-.26-.12-.07-.25-.1-.39-.11-.03-.02-.06-.03-.27-.03-.11,.01-.22,.02-.33,.03-.05,.02-.11,.04-.16,.06-.1,.02-.18,.07-.25,.14,.02-.01,.04-.03,.06-.04-.02,.01-.04,.02-.06,.03-.08,.06-.16,.11-.23,.17-.11,.1-.2,.22-.25,.35-.05,.09-.08,.18-.09,.28-.04,.15-.04,.3,0,.45,.04,.1,.07,.24,.14,.34,.06,.09,.13,.19,.2,.27,.07,.09,.2,.19,.26,.22,.1,.05,.2,.09,.29,.14,.11,.04,.22,.06,.34,.06,.28,.01,.47-.07,.72-.17,.03-.01,.07-.03,.1-.05,.08-.06,.17-.12,.25-.18,.12-.1,.21-.23,.26-.38,.06-.09,.09-.19,.09-.3,.04-.16,.04-.32,0-.48Z"/><path class="uuid-d9e59386-5b08-4f97-ae1b-96fa34c8afa8" d="M48.97,227.1c-.18-.18-.37-.33-.62-.41-.3-.1-.6-.06-.9,0-.1,.02-.2,.05-.3,.07-.1,.03-.19,.07-.28,.11-.06,.02-.12,.03-.18,.04-.16,.02-.31,.05-.47,.13-.04,.02-.08,.05-.12,.06,.06-.02,.12-.05,.18-.07-.31,.11-.55,.29-.7,.6-.15,.33-.15,.68,.02,1.01,.18,.36,.52,.69,.92,.78,.4,.08,.67,.1,1.08,.03,.17-.03,.38-.09,.51-.17,.08-.05,.16-.11,.24-.16,.24-.16,.49-.3,.66-.56,.09-.14,.13-.29,.19-.44,.12-.34,.02-.78-.23-1.04Z"/><path class="uuid-d9e59386-5b08-4f97-ae1b-96fa34c8afa8" d="M52.71,228.41c.02-.16-.01-.32-.08-.47-.02-.09-.04-.17-.07-.25-.04-.12-.05-.26-.09-.38-.03-.09-.09-.16-.19-.18-.09-.01-.19,.02-.24,.11-.03,.05-.07,.11-.1,.16,0,0-.02,.02-.04,.04-.02,.01-.04,.02-.06,.03-.11,.01-.22,.05-.33,.09-.22,0-.45,.06-.63,.18-.06,.04-.12,.07-.18,.1-.06,.03-.14,.05-.2,.09-.08,.06-.17,.12-.25,.18-.12,.1-.21,.23-.26,.37,0,.01,0,.02-.01,.03-.05,.08-.1,.17-.13,.26-.05,.17-.06,.35-.02,.53,.08,.33,.34,.62,.67,.72,0,0,.01,0,.02,0,.06,.03,.12,.07,.19,.09,.21,.06,.42,.07,.63,.02,.33-.08,.62-.3,.87-.51,.03-.02,.05-.04,.08-.07,.17-.16,.19-.21,.27-.38,.06-.09,.09-.18,.09-.29,.01-.05,.02-.11,.03-.16,0-.05,0-.1,0-.14,.01-.06,.02-.12,.03-.18Z"/><path class="uuid-d9e59386-5b08-4f97-ae1b-96fa34c8afa8" d="M57.66,223.61c.01-.06,.03-.11,.04-.17,.05-.17,.04-.35,0-.53-.06-.19-.15-.37-.28-.52-.04-.06-.09-.12-.13-.18-.13-.16-.3-.27-.49-.34-.12-.07-.25-.11-.39-.12-.2-.05-.41-.05-.62,0-.08,0-.15,.01-.23,.02-.02,0-.04,0-.06,0-.13,.05-.25,.1-.38,.14,0,0-.02,0-.02,.01-.04,.02-.07,.03-.11,.05-.03,.01-.07,.03-.1,.04-.08,.03-.09,.06-.19,.13-.11,.06-.21,.15-.28,.26-.05,.05-.09,.1-.13,.15-.03,.05-.05,.1-.07,.14-.05,.1-.09,.2-.14,.3-.06,.17-.07,.34-.04,.51,0,.12,.02,.23,.08,.33,.05,.16,.13,.3,.25,.42,.08,.07,.15,.14,.23,.21,.19,.15,.12,.11,.34,.21,.11,.07,.24,.11,.37,.12,.07,.02,.14,.03,.21,.03,.04,0,.08,0,.12,0,.04,0,.07,0,.11,0,.02,0,.04,0,.06,0,.14-.01,.28-.03,.42-.04,0,0,.02,0,.03,0,.08-.02,.16-.04,.25-.06,.12-.05,.25-.09,.37-.14,.18-.09,.33-.22,.45-.38,.1-.09,.17-.2,.21-.33,.02-.03,.02-.06,.04-.09,.03-.06,.06-.12,.08-.18,0,0,0-.01,0-.02Z"/><path class="uuid-d9e59386-5b08-4f97-ae1b-96fa34c8afa8" d="M54.66,247.68c-.09-.32-.28-.63-.57-.8-.31-.18-.65-.25-1-.17-.18,.04-.36,.07-.54,.09-.28,.03-.51,.18-.76,.3-.08,.06-.16,.12-.25,.18-.06,.08-.13,.15-.19,.23-.14,.22-.19,.49-.17,.75,.05,.47,.36,.85,.81,1.01,.09,.03,.17,.06,.26,.09,.14,.04,.28,.08,.42,.08,.13,0,.31-.03,.46-.05,.19-.03,.37-.07,.56-.12,.32-.09,.62-.28,.8-.57,.17-.27,.26-.68,.17-1Z"/><path class="uuid-d9e59386-5b08-4f97-ae1b-96fa34c8afa8" d="M58.09,247.94c-.03-.17-.1-.31-.21-.44-.05-.1-.13-.18-.22-.24-.12-.12-.26-.2-.42-.24-.11-.02-.22-.04-.34-.06-.16,0-.31,.03-.46,.08,.03-.01,.07-.03,.1-.04-.01,0-.02,0-.03,.01,0,0-.01,0-.02,0-.25,.06-.28,.1-.45,.22-.09,.05-.16,.12-.21,.2,.01-.02,.03-.03,.04-.05,0,0-.01,.01-.02,.02-.01,.01-.02,.02-.03,.04,0,0-.02,.01-.02,.02-.04,.04-.08,.08-.11,.13,0,0,0,0,0,.01,0,0-.01,.01-.02,.02-.06,.1-.12,.2-.15,.31-.07,.22-.07,.44-.02,.66,.05,.21,.15,.4,.3,.56,.15,.16,.33,.27,.53,.34,.01,0,.03,0,.04,.01,0,0,.01,0,.02,0,0,0,0,0,.01,0,.17,.06,.34,.07,.51,.04,.17,0,.33-.05,.48-.14,.09-.06,.18-.13,.27-.2,0,0,.01-.01,.02-.02,.01-.01,.03-.02,.04-.04,.13-.11,.22-.24,.28-.4,.09-.15,.13-.31,.13-.49-.01-.11-.02-.23-.03-.34Z"/><path class="uuid-d9e59386-5b08-4f97-ae1b-96fa34c8afa8" d="M143.68,215.81s-.01-.04-.02-.06c0-.06-.02-.12-.06-.18-.03-.05-.07-.08-.11-.12,0,0,.01,0,.02,.01-.02-.02-.03-.04-.05-.06-.11-.12-.24-.2-.39-.25-.15-.04-.29-.05-.44-.02-.02,0-.03,0-.05,0-.04,0-.09,0-.13,.01-.08,0-.16,.02-.24,.06-.04,.01-.09,.03-.13,.05-.06,.05-.13,.09-.19,.14-.05,.06-.1,.12-.15,.18,0,.01-.01,.03-.02,.04,0,0,0,.02-.01,.02-.03,.05-.05,.1-.07,.16,0,0,0,0,0,.01,0,0,0,0,0,0-.06,.14-.09,.3-.04,.45,.03,.08,.06,.17,.1,.25,.06,.12,.14,.21,.24,.29,.06,.06,.12,.1,.2,.13,.04,.02,.08,.04,.12,.05,.04,.01,.09,.02,.13,.02,.12,.03,.25,.03,.37,0,.04,0,.09-.02,.13-.04,.12-.04,.23-.08,.35-.14l.19-.13c.09-.08,.16-.17,.2-.28,.04-.07,.07-.14,.07-.23,.03-.12,.03-.24,0-.36Z"/></g><path class="uuid-4de0a0a6-c66a-4d96-b84a-803e4becc947" d="M65.57,409.57c-.07-10.56-.62-33.52,1.89-39.4,2.51-5.87,6.21-6.66,7.31-11.67,1.1-5.01,1.55-17.38,3.68-25.56s48.78-3.73,51.38,.49c2.6,4.22,.37,27.55,2.06,31.74,1.68,4.19,8.08,4.88,8.57,16.83,.48,11.95-6.33,35.11-7.29,36.45"/><path class="uuid-d8d0d8c5-8583-40c3-9a1e-a1e6f29b1772" d="M127.28,360.97c-1.67-1.15-4.01-1.73-5.92-2.34-1.99-.64-4.04-1.08-6.08-1.52-4.19-.89-8.4-1.56-12.68-1.77-2.76-.14-5.55-.05-8.31,.2,.07-.2,.09-.41,.03-.61,.04-.79-.1-1.62-.18-2.4-.1-.96-.17-1.93-.23-2.9-.11-1.79-.12-3.58-.15-5.38-.03-1.8-.09-3.58-.03-5.38,.05-1.66,.56-3.66-.07-5.22-.16-.41-.69-.31-.91-.03-1.02,1.29-1,3.58-1.22,5.17-.26,1.91-.53,3.84-.59,5.77-.06,1.93-.03,3.86,.06,5.78,.08,1.77,.03,3.8,.67,5.48-.53,.07-1.05,.12-1.58,.2-2.05,.31-4.12,.69-6.12,1.25-1.91,.54-4.26,1-5.96,2.04-.51,.31-.45,1.05,.12,1.25,1.82,.67,4.01-.12,5.84-.41,1.92-.31,3.84-.61,5.77-.8,4.08-.41,8.18-.45,12.27-.22,3.98,.22,7.99,.69,11.87,1.67,1.96,.49,3.85,1.15,5.76,1.8,.99,.33,1.97,.69,2.94,1.07,.96,.38,1.91,.9,2.92,1.11,2.3,.48,3.86-2.39,1.78-3.83Z"/><path class="uuid-d8d0d8c5-8583-40c3-9a1e-a1e6f29b1772" d="M85.81,335.61c-.28-.98-1.47-.92-1.86-.07-.4,.87-.4,1.82-.49,2.76-.08,.84-.15,1.67-.23,2.51-.17,1.85-.37,3.71-.51,5.56-.14,1.8-.26,3.59-.38,5.39-.05,.72-.14,1.51,.27,2.16,.46,.72,1.23,.99,2.01,.62,.37-.17,.58-.58,.6-.97,.01-.19-.01-.38-.08-.53,.2,.26-.11-.13-.15-.34-.06-.32,.04-.71,.06-1.03l.17-2.15c.12-1.56,.24-3.11,.33-4.67,.09-1.56,.17-3.11,.26-4.67,.08-1.46,.42-3.15,0-4.58Z"/><path class="uuid-d8d0d8c5-8583-40c3-9a1e-a1e6f29b1772" d="M100.95,347.58c.03-1.65,.08-3.29,.17-4.94,.08-1.58,.13-3.17,.21-4.75,.08-1.56,.32-3.24-.01-4.78-.13-.63-1.15-.88-1.46-.24-.71,1.45-.86,3.17-1.08,4.75-.22,1.58-.42,3.15-.54,4.74-.12,1.58-.22,3.17-.29,4.75-.07,1.63-.4,3.57-.01,5.15,.25,1.01,1.45,1.45,2.29,.85,.26-.19,.44-.47,.53-.77l.02,.02c.37-1.5,.14-3.23,.17-4.78Z"/><path class="uuid-d8d0d8c5-8583-40c3-9a1e-a1e6f29b1772" d="M108.06,330.97c-.22-.42-.79-.4-1.04-.04-.96,1.35-.94,3.6-1.09,5.2-.18,1.84-.32,3.69-.48,5.53-.16,1.84-.35,3.69-.48,5.53-.07,.96-.12,1.91-.18,2.87-.06,.92-.25,1.87,.29,2.67,.57,.85,1.95,.68,2.22-.17,.34-.6,.38-1.22,.43-1.98,.07-.96,.14-1.91,.2-2.87,.13-1.91,.19-3.83,.28-5.74,.09-1.91,.19-3.83,.26-5.74,.06-1.59,.35-3.8-.42-5.25Z"/><path class="uuid-d8d0d8c5-8583-40c3-9a1e-a1e6f29b1772" d="M116.89,333.63c-.19-.75-.62-1.4-1.42-1.56-.58-.12-1.39,.28-1.21,1,.09,.36,.24,.68,.25,1.16,0,.88-.22,1.83-.32,2.71l-.69,5.99c-.22,1.93-.44,3.85-.62,5.79-.09,.96-.18,1.93-.28,2.89-.09,.98-.29,2,.27,2.87,.45,.69,1.3,.7,1.79,.28,0,0,0,.01,.01,.02,.87-.91,.84-2.07,.96-3.27,.12-1.24,.24-2.48,.36-3.72,.24-2.48,.4-4.96,.59-7.45,.09-1.17,.18-2.34,.27-3.52,.08-1.03,.32-2.17,.06-3.19Z"/><path class="uuid-d8d0d8c5-8583-40c3-9a1e-a1e6f29b1772" d="M125.09,340.08c-.09-1.78-.28-3.46-1.04-5.09-.06-.14-.24-.08-.29,.03-.74,1.59-.98,3.23-1.16,4.97-.2,1.86-.41,3.71-.59,5.57-.18,1.79-.32,3.58-.49,5.36-.09,.89-.21,1.78-.28,2.68-.08,1.04,0,1.73,.46,2.67,.42,.86,1.49,.71,2,.07,1.19-1.48,1.07-3.67,1.22-5.5,.14-1.79,.26-3.58,.29-5.37,.03-1.8-.02-3.59-.12-5.39Z"/><path class="uuid-d8d0d8c5-8583-40c3-9a1e-a1e6f29b1772" d="M111.76,399.81c-.81,.28-1.38,.11-2.19-.08-1.02-.24-2.01-.34-3.06-.36-2.22-.05-4.43-.13-6.65-.22-4.1-.18-8.37-.17-12.43-.8-3.39-.52-6.32-2.37-8.78-4.7-1.24-1.18-2.35-2.47-3.46-3.77-.79-.92-2.17-2.83-3.53-2.82-.11,0-.2,.06-.23,.16-.47,1.4,1.11,3.33,1.9,4.39,1.18,1.57,2.48,3.07,3.89,4.43,2.84,2.73,6.18,4.73,10.1,5.38,4.72,.79,9.63,.84,14.4,1.03,2.38,.1,4.93,.43,7.29,.03,1.18-.2,3.36-.68,3.29-2.23-.01-.25-.24-.53-.53-.43Z"/><path class="uuid-d8d0d8c5-8583-40c3-9a1e-a1e6f29b1772" d="M130.14,381.58c-1.44-.16-2.88-.26-4.29,.1-1.41,.36-2.81,.75-4.25,.99-2.82,.48-5.74,.63-8.58,.21-2.45-.37-4.87-1.19-7-2.45-.49-.29-4.48-3.45-4.93-2.48-.91,1.94,2.56,4.12,3.84,4.92,2.37,1.47,5.03,2.47,7.77,2.97,3.05,.56,6.13,.58,9.19,.09,1.58-.25,3.17-.6,4.7-1.09,1.55-.49,2.7-1.5,3.75-2.72,.18-.21,.08-.51-.2-.54Z"/><path class="uuid-b1a5b1e3-75b5-49d3-be2a-b8995640faa0" d="M92.81,366.43c-2.84-2.03-8.24-1.63-11.3-.34-2.95,1.25-7.28,3.86-7.35,7.43-.02,.91,.43,2.09,1.32,2.51,3.87,1.82,5.5-1.25,8.97-2.18,3.28-.88,7.42,1.4,9.43-2.62,.87-1.75,.59-3.61-1.07-4.79Z"/><path class="uuid-b1a5b1e3-75b5-49d3-be2a-b8995640faa0" d="M105.49,365.85c-.57-.58-1.07-1.16-1.89-1.42-1.19-.38-2.26-.28-3.38,.3-1.75,.9-1.9,3.11-.75,4.52,1.05,1.29,2.77,1.63,4.29,1.06,1.09-.42,1.85-1.35,2.18-2.46,.21-.68,.06-1.48-.45-2Z"/><path class="uuid-b1a5b1e3-75b5-49d3-be2a-b8995640faa0" d="M119.29,391.89c-1.22,.02-2.4,.3-3.62,.36-1.44,.07-2.62,.21-3.72,1.26-.76,.73-.78,1.67-.43,2.59,1.64,4.29,12.04,4,12.16-1.32,.05-2.11-2.73-2.92-4.39-2.89Z"/><path class="uuid-b1a5b1e3-75b5-49d3-be2a-b8995640faa0" d="M124.25,402.04c-2.5,1-5.06,1.92-7.71,2.5-2.63,.58-5.32,.43-7.75,1.68-1.7,.88-1.69,3.29-.16,4.31,4.98,3.33,15.51,1.22,19.85-2.56,3.38-2.94-.61-7.38-4.24-5.93Z"/><path class="uuid-b1a5b1e3-75b5-49d3-be2a-b8995640faa0" d="M135.43,393.84c-.56-2.04-3.08-2.91-4.68-1.42-1.19,1.1-2.09,2.65-2.01,4.33,.14,2.7,3.03,4.14,5.18,2.37,1.54-1.27,2.02-3.42,1.51-5.28Z"/></g><path class="uuid-e530f320-035a-47a6-9999-72abf555082e" d="M166.61,281.57c.09,3,.81,5.92,2.12,8.62,.64,1.33,1.42,2.59,2.33,3.75-.88-.47-1.77-.93-2.67-1.35-.76-.36-1.54-.7-2.33-1.02-.06-.11-.14-.2-.25-.28-.31-.21-.71-.26-1.12-.26-.34-.13-.68-.26-1.03-.38-.71-.67-1.45-1.31-2.21-1.93-1.64-1.33-3.41-2.54-5.37-3.35-4.37-1.82-9.03-1.31-13.5-.13-.95,.25-.87,1.41-.21,1.9,3.41,2.52,7.33,4.3,11.46,5.25,2,.46,4.05,.73,6.11,.8,1.06,.04,2.13,.03,3.18-.06,.16-.01,.33-.02,.51-.03,.4,.2,.82,.35,1.25,.52,.11,.04,.22,0,.31-.08,.36,.17,.73,.32,1.09,.5,1.34,.66,2.66,1.37,3.95,2.11-1.16-.13-2.32-.17-3.48-.11-4.65,.22-9.08,1.79-13.4,3.38-1.03,.38-1.05,1.86,.05,2.17,3.97,1.13,8.15,1.52,12.26,1.12,2-.2,3.97-.58,5.89-1.15,1.02-.3,2.03-.65,3-1.07,.35-.15,.69-.32,.98-.56,.3,.11,.59,.19,.9,.25,2.52,1.85,4.9,3.88,7.18,6.02-1.13-.11-2.27-.16-3.41-.11-3.39,.15-6.72,1.02-9.74,2.55-.72,.36-1.43,.76-2.11,1.19-.6,.38-1.46,.82-1.81,1.47-1.02,1.92,1.65,2.46,2.9,2.69,3.79,.71,7.69,.61,11.44-.26,2-.46,3.93-1.17,5.74-2.15,.5-.27,1-.58,1.45-.94,1.84,1.95,3.63,3.95,5.36,5.99,.12,.14,.23,.28,.35,.42-1.89-.29-3.82-.35-5.72-.11-4.28,.53-8.29,2.31-11.45,5.25-.56,.52-.25,1.58,.49,1.72,4.19,.8,8.48,1.62,12.76,1.27,1.83-.15,3.69-.48,5.41-1.16,1.02-.41,2.11-.85,2.86-1.62,.58,.75,1.14,1.54,1.78,2.23,.79,.84,1.97,1.15,2.36,2.31,.08,.24,.43,.24,.5-.01,.57-2.05-.39-3.75-1.62-5.31-.43-.55-.88-1.08-1.31-1.62,0-.07-.02-.13-.06-.19-.32-.51-.64-.86-1.03-1.15-.3-.37-.6-.74-.9-1.12,.35-.48,.63-1.03,.9-1.54,.43-.8,.82-1.62,1.16-2.46,.7-1.7,1.24-3.46,1.6-5.26,.35-1.76,.53-3.55,.55-5.35,0-.91-.03-1.82-.12-2.72-.09-.95-.34-1.9-.38-2.85-.03-.71-.72-1.24-1.42-1.03-1.73,.52-3.06,2.13-4.09,3.57-1.06,1.48-1.84,3.19-2.27,4.97-.46,1.9-.46,3.87-.22,5.8,.09,.72,.19,1.45,.3,2.17-1.28-1.44-2.58-2.86-3.92-4.24-.02-.08-.06-.16-.12-.24-.32-.39-.63-.66-.99-.89-.14-.14-.28-.28-.42-.42-.21-.21-.44-.42-.65-.62,.55-1.26,.59-2.88,.75-4.19,.2-1.63,.33-3.27,.29-4.92-.07-2.95-.67-5.92-2.09-8.53-.53-.98-1.4-2.64-2.54-3-1.42-.45-1.95,1.04-2.14,2.11-.5,2.87-.47,5.8,.07,8.66,.31,1.63,.79,3.23,1.44,4.77,.25,.6,.53,1.35,.89,2.05-2.86-2.49-5.88-4.81-9.07-6.85,0-.05,.02-.09,.03-.14,.08-.83-.02-1.73-.11-2.55-.19-1.66-.58-3.3-1.18-4.86-1.24-3.21-3.24-5.9-5.93-8.05-.6-.48-1.58-.16-1.56,.69Z"/><path class="uuid-e530f320-035a-47a6-9999-72abf555082e" d="M15.81,54.57c2.51-1.65,4.61-3.79,6.23-6.32,.8-1.24,1.46-2.57,1.97-3.95,.06,1,.14,1.99,.25,2.99,.09,.84,.22,1.68,.35,2.51-.06,.1-.1,.22-.11,.36-.01,.38,.15,.74,.37,1.09,.07,.36,.14,.72,.21,1.08-.2,.96-.36,1.92-.48,2.89-.27,2.1-.37,4.23-.04,6.33,.74,4.67,3.62,8.38,6.97,11.56,.71,.68,1.65,0,1.72-.82,.35-4.23-.18-8.5-1.53-12.51-.66-1.94-1.51-3.83-2.52-5.62-.52-.92-1.09-1.83-1.72-2.68-.09-.13-.19-.27-.3-.42-.04-.44-.13-.88-.22-1.34-.02-.11-.12-.19-.23-.22-.05-.4-.11-.79-.15-1.19-.15-1.49-.23-2.98-.27-4.47,.5,1.05,1.07,2.07,1.73,3.02,2.62,3.84,6.28,6.8,9.9,9.64,.87,.68,2.13-.08,1.82-1.18-1.12-3.97-2.98-7.74-5.48-11.03-1.21-1.6-2.57-3.08-4.07-4.41-.79-.71-1.62-1.38-2.48-2-.31-.22-.63-.42-.99-.54-.06-.31-.15-.6-.26-.9,.26-3.11,.73-6.21,1.36-9.27,.5,1.02,1.06,2.02,1.7,2.96,1.9,2.81,4.39,5.19,7.28,6.96,.69,.42,1.4,.82,2.12,1.18,.64,.31,1.46,.81,2.2,.77,2.17-.14,1.23-2.69,.78-3.88-1.38-3.6-3.51-6.87-6.22-9.61-1.44-1.46-3.06-2.74-4.84-3.76-.5-.29-1.02-.55-1.57-.74,.69-2.59,1.47-5.16,2.29-7.7,.06-.17,.12-.35,.17-.52,.74,1.76,1.71,3.44,2.9,4.93,2.7,3.36,6.31,5.85,10.47,7,.73,.2,1.47-.61,1.2-1.32-1.52-3.99-3.06-8.07-5.61-11.53-1.09-1.48-2.34-2.89-3.83-3.99-.88-.65-1.83-1.35-2.88-1.59,.34-.89,.72-1.78,.97-2.69,.3-1.12-.05-2.28,.73-3.22,.16-.19-.02-.49-.27-.42-2.04,.59-2.99,2.3-3.67,4.16-.24,.65-.46,1.31-.69,1.97-.05,.04-.1,.08-.14,.15-.26,.54-.4,1-.44,1.48-.16,.45-.32,.9-.48,1.36-.59-.05-1.21,0-1.78,.04-.91,.05-1.81,.16-2.71,.3-1.81,.29-3.59,.75-5.32,1.39-1.68,.62-3.31,1.41-4.84,2.34-.78,.47-1.53,.98-2.26,1.53-.76,.57-1.44,1.29-2.23,1.82-.59,.4-.67,1.26-.13,1.74,1.35,1.2,3.42,1.49,5.18,1.61,1.82,.13,3.68-.11,5.42-.67,1.86-.61,3.54-1.63,5.06-2.85,.57-.46,1.13-.92,1.69-1.39-.56,1.84-1.09,3.7-1.56,5.56-.06,.06-.11,.14-.14,.23-.16,.48-.24,.88-.24,1.3-.05,.19-.1,.38-.14,.58-.07,.29-.13,.59-.19,.88-1.36,.19-2.77,1.01-3.96,1.56-1.49,.69-2.96,1.44-4.34,2.33-2.47,1.6-4.69,3.68-6.17,6.25-.55,.97-1.51,2.58-1.22,3.74,.36,1.44,1.91,1.12,2.92,.71,2.7-1.08,5.18-2.64,7.33-4.6,1.23-1.12,2.34-2.37,3.31-3.72,.38-.53,.87-1.16,1.28-1.83-.62,3.74-1.01,7.53-1.08,11.31-.05,.02-.09,.03-.14,.05-.75,.36-1.46,.92-2.12,1.43-1.32,1.04-2.51,2.22-3.52,3.55-2.08,2.74-3.33,5.86-3.75,9.27-.09,.76,.69,1.43,1.4,.97Z"/><path class="uuid-e530f320-035a-47a6-9999-72abf555082e" d="M40.85,373.49c-2.96,.48-5.76,1.57-8.27,3.21-1.24,.81-2.38,1.75-3.42,2.8,.35-.93,.69-1.88,1-2.83,.26-.8,.49-1.62,.71-2.44,.1-.07,.18-.16,.24-.28,.16-.34,.17-.74,.11-1.15,.08-.36,.17-.71,.24-1.07,.57-.79,1.11-1.61,1.62-2.44,1.11-1.8,2.07-3.71,2.63-5.76,1.24-4.57,.13-9.13-1.62-13.4-.37-.91-1.51-.68-1.91,.04-2.05,3.71-3.32,7.82-3.72,12.04-.2,2.04-.19,4.11,0,6.16,.1,1.06,.25,2.11,.47,3.15,.03,.15,.07,.33,.1,.5-.14,.42-.24,.86-.35,1.31-.03,.11,.03,.22,.12,.29-.12,.38-.22,.77-.35,1.15-.48,1.42-1.01,2.81-1.58,4.19-.02-1.16-.13-2.33-.34-3.47-.82-4.58-2.95-8.77-5.09-12.85-.51-.98-1.98-.8-2.15,.33-.61,4.08-.45,8.28,.48,12.3,.45,1.95,1.08,3.86,1.9,5.69,.43,.97,.91,1.92,1.45,2.84,.19,.33,.4,.64,.68,.9-.07,.31-.11,.61-.13,.92-1.51,2.74-3.21,5.36-5.04,7.9-.03-1.14-.14-2.28-.34-3.4-.59-3.34-1.88-6.53-3.79-9.33-.45-.67-.94-1.32-1.46-1.94-.46-.55-1-1.34-1.7-1.6-2.03-.76-2.22,1.95-2.3,3.22-.21,3.85,.39,7.7,1.74,11.31,.72,1.92,1.67,3.75,2.88,5.41,.34,.46,.71,.92,1.12,1.32-1.69,2.08-3.45,4.11-5.24,6.09-.12,.14-.25,.27-.37,.4,.05-1.91-.15-3.84-.63-5.69-1.08-4.17-3.36-7.92-6.69-10.67-.58-.48-1.6-.04-1.64,.71-.25,4.26-.51,8.62,.4,12.82,.39,1.8,.95,3.6,1.85,5.21,.53,.96,1.12,1.98,1.97,2.63-.67,.67-1.38,1.33-1.98,2.06-.73,.89-.88,2.1-1.98,2.64-.23,.11-.18,.45,.08,.49,2.1,.3,3.67-.87,5.05-2.29,.49-.5,.96-1.01,1.44-1.51,.06-.01,.13-.03,.19-.08,.46-.38,.77-.75,1.01-1.17,.33-.35,.66-.7,.99-1.04,.52,.29,1.1,.49,1.64,.69,.85,.32,1.72,.6,2.59,.83,1.77,.47,3.59,.78,5.42,.9,1.79,.12,3.59,.07,5.37-.15,.9-.11,1.8-.27,2.69-.47,.93-.21,1.84-.59,2.78-.74,.7-.12,1.13-.88,.84-1.54-.74-1.65-2.51-2.75-4.07-3.59-1.61-.86-3.4-1.41-5.22-1.61-1.95-.21-3.89,.04-5.78,.53-.71,.18-1.41,.38-2.11,.57,1.27-1.45,2.5-2.93,3.7-4.44,.08-.03,.16-.08,.22-.16,.34-.37,.58-.71,.75-1.09,.12-.16,.25-.31,.37-.47,.18-.24,.36-.49,.53-.73,1.32,.38,2.94,.21,4.25,.2,1.64-.02,3.29-.1,4.91-.35,2.91-.45,5.79-1.43,8.19-3.17,.9-.65,2.43-1.73,2.65-2.91,.26-1.46-1.29-1.8-2.37-1.85-2.91-.12-5.81,.28-8.57,1.19-1.58,.52-3.1,1.2-4.54,2.04-.56,.33-1.27,.7-1.92,1.14,2.1-3.16,4-6.45,5.62-9.88,.05,0,.1,.01,.15,.01,.83-.02,1.71-.24,2.52-.44,1.62-.41,3.2-1,4.67-1.8,3.02-1.65,5.43-3.98,7.22-6.92,.4-.65-.04-1.59-.88-1.46Z"/></g><path class="uuid-3eac624c-725b-4dcc-9378-8aecc764bee1" d="M179.92,40.64c-.14,.09-.29,.17-.44,.24-.22,.1-.4,.28-.58,.44-.32,.23-.65,.44-1.01,.61-.03,.01-.06,.03-.1,.04-.21,.07-.37,.11-.59,.23-.32,.18-.51,.4-.71,.7-.23,.36-.31,.95-.18,1.36,.14,.43,.4,.83,.81,1.05,.53,.29,1.11,.33,1.68,.14,.27-.09,.54-.21,.8-.32,.29-.13,.57-.29,.82-.48,.24-.17,.46-.34,.65-.56,.19-.22,.37-.45,.53-.68,.32-.45,.39-1.01,.41-1.55,.06-1.05-1.24-1.78-2.12-1.21Z"/><path class="uuid-3eac624c-725b-4dcc-9378-8aecc764bee1" d="M170.74,42.88c-.11-.26-.26-.4-.49-.57-.42-.31-.95-.35-1.46-.35-.44,0-.9,.12-1.32,.23-.45,.12-.86,.35-1.25,.59-.14,.09-.27,.17-.4,.27-.51,.36-.84,.76-1.03,1.35-.35,1.11,.59,2.21,1.7,2.23,.43,0,.87-.12,1.23-.34,.14-.08,.27-.17,.41-.25,.28-.16,.57-.3,.83-.5,.35-.26,.73-.49,1.06-.78,.11-.1,.23-.18,.33-.28,.23-.23,.33-.52,.46-.81,.01-.11,.03-.21,.04-.32,0-.16-.03-.32-.1-.46Z"/><path class="uuid-3eac624c-725b-4dcc-9378-8aecc764bee1" d="M173.62,51.07s0-.03,0-.04c.02-.38-.29-.78-.66-.87-.32-.07-.62,.02-.85,.22-.14,.05-.27,.11-.4,.19-.04,.03-.09,.05-.14,.07-.26,.04-.52,.11-.79,.15-.03,0-.05,0-.08,.01-.17,.05-.33,.14-.49,.21,.14-.06,.29-.12,.43-.18-.12,.05-.25,.09-.37,.13-.19,.05-.38,.11-.55,.21-.4,.24-.71,.66-.82,1.11-.06,.09-.09,.21-.05,.33,.01,.02,.01,.04,0,.06-.07,.15-.06,.32,.05,.5,.12,.37,.32,.67,.63,.91,.34,.26,.75,.44,1.19,.39,.3-.03,.61-.06,.91-.15,.44-.12,.77-.38,1.11-.67,.27-.24,.48-.54,.59-.87,.11-.2,.21-.41,.28-.63,.03-.09,.06-.18,.08-.27,.07-.29,.04-.57-.06-.82Z"/><path class="uuid-3eac624c-725b-4dcc-9378-8aecc764bee1" d="M162.59,52.87c-.07-.15-.21-.31-.33-.37-.07-.04-.14-.05-.22-.07-.03-.01-.06-.03-.09-.04-.19-.05-.4-.05-.59,0-.03,0-.07,.02-.1,.03-.06,.01-.12,.02-.18,.03-.25,.03-.5,.08-.71,.21-.1,.06-.19,.11-.29,.16-.13,.05-.27,.11-.4,.18l-.29,.23c-.14,.13-.24,.29-.3,.47-.07,.11-.1,.23-.1,.37-.04,.19-.03,.39,.03,.58,.08,.24,.2,.45,.37,.64,.25,.27,.66,.42,1.02,.42,.19,0,.4-.01,.58-.07,.18-.06,.36-.14,.53-.22,.07-.03,.13-.06,.2-.1,.27-.15,.5-.35,.68-.62,.13-.2,.23-.43,.29-.66,.02-.06,.03-.13,.04-.19,.02-.12,.04-.25,.05-.37,.02-.21-.06-.42-.18-.59Z"/><path class="uuid-3eac624c-725b-4dcc-9378-8aecc764bee1" d="M171.62,58.57c.02,.12,.03,.25,.05,.37v-.02c0-.25-.07-.48-.19-.7-.09-.16-.21-.29-.36-.39-.13-.12-.29-.21-.47-.25-.13-.03-.26-.05-.39-.05-.05,0-.11,0-.16,0-.15-.08-.3-.15-.48-.21-.18-.02-.35-.05-.53-.07-.18,.02-.35,.05-.53,.07-.16,.07-.32,.13-.47,.2-.23,.12-.42,.3-.56,.51-.12,.12-.21,.27-.26,.44-.09,.15-.13,.32-.14,.5-.05,.18-.05,.35,0,.53,.01,.26,.09,.51,.24,.74,.17,.3,.29,.39,.52,.57,.07,.05,.15,.12,.23,.18,.02,.02,.05,.03,.08,.05,.17,.09,.36,.16,.54,.23,.03,.01,.06,.02,.09,.03,.17,.05,.35,.07,.54,.07,.18-.02,.35-.05,.53-.07,.01,0,.03,0,.04,0,.03,0,.05-.02,.08-.03,.15-.06,.34-.13,.49-.21,.01,0,.02-.01,.03-.02,.16-.09,.31-.22,.44-.33,.1-.09,.18-.2,.26-.31,.06-.08,.13-.16,.19-.25,.04-.07,.08-.14,.1-.23,.03-.07,.06-.14,.09-.22,.05-.15,.05-.32,.07-.48,0-.05,0-.09,0-.14-.01-.18-.04-.36-.07-.54Z"/><path class="uuid-3eac624c-725b-4dcc-9378-8aecc764bee1" d="M183.7,52.84c0-.26-.07-.51-.19-.74,0-.01,0-.03,0-.04-.04-.26-.31-.57-.53-.69-.22-.12-.46-.15-.71-.13-.22-.03-.45-.03-.66,.04l-.39,.17c-.13,.09-.25,.19-.37,.29-.08,.07-.17,.14-.26,.21,.12-.09,.24-.18,.35-.27-.26,.2-.51,.36-.67,.66-.02,.03-.03,.07-.05,.11-.04,.08-.08,.15-.11,.23-.09,.18-.19,.36-.24,.56-.05,.19-.05,.41-.08,.61,0,.27,.07,.52,.2,.75,.09,.17,.22,.31,.38,.42,.38,.3,.83,.38,1.3,.27,.14-.03,.25-.07,.39-.13,.11-.05,.18-.07,.27-.13,.12-.07,.28-.21,.41-.32,.06-.05,.12-.1,.18-.15,.04-.03,.07-.06,.11-.09l.27-.36c.07-.15,.13-.31,.19-.46-.06,.14-.12,.28-.18,.42,.1-.23,.19-.45,.29-.68,.07-.17,.08-.36,.08-.54Z"/><path class="uuid-3eac624c-725b-4dcc-9378-8aecc764bee1" d="M181.35,61.24c-.06-.24-.17-.45-.33-.63-.08-.14-.19-.25-.33-.33-.18-.16-.39-.27-.63-.33-.16-.02-.33-.04-.49-.07-.34,0-.65,.09-.94,.25-.02,.02-.04,.03-.06,.04-.01,0-.02,.01-.03,.02-.13,.1-.25,.2-.38,.29-.07,.06-.12,.12-.16,.2-.02,.03-.04,.05-.06,.08-.08,.1-.17,.2-.24,.31-.32,.55-.32,1.24,0,1.79,.16,.27,.37,.48,.64,.64,.28,.16,.57,.24,.89,.24,.15,.01,.48-.04,.68-.1,.02,0,.04-.01,.05-.02l.45-.19c.13-.1,.26-.2,.39-.31,.03-.03,.05-.06,.08-.09,.18-.17,.31-.37,.38-.6,.12-.22,.17-.46,.16-.72-.02-.16-.04-.33-.07-.49Z"/><path class="uuid-3eac624c-725b-4dcc-9378-8aecc764bee1" d="M52.71,341.49c-.28-.44-.68-.76-1.19-.91-1.27-.39-2.49,.5-3.47,1.21-.31,.23-.56,.44-.8,.72-.12,.14-.24,.28-.35,.42-.21,.26-.42,.52-.62,.79-.12,.16-.2,.34-.28,.53-.12,.25-.21,.51-.21,.79,0,.35,.13,.68,.34,.95,.36,.46,1.07,.78,1.65,.56,.3-.11,.6-.2,.88-.35,.16-.08,.32-.17,.48-.25,.35-.18,.75-.31,1.08-.53,.33-.22,.66-.42,1-.61,.17-.1,.35-.18,.51-.29,.21-.14,.42-.31,.59-.49,.3-.32,.45-.6,.59-1.01,.15-.45,.06-1.13-.2-1.53Z"/><path class="uuid-3eac624c-725b-4dcc-9378-8aecc764bee1" d="M64.89,342.71c-.38-.38-1.02-.59-1.54-.41-.2,.07-.41,.14-.6,.23-.21,.09-.39,.21-.58,.33-.26,.17-.52,.34-.79,.51-.37,.23-.67,.51-.98,.81-.37,.35-.73,.69-.84,1.19-.03,.08-.06,.17-.09,.25-.19,.49,.21,1.2,.73,1.29,.07,.01,.14,.02,.22,.03,.34,.13,.71,.13,1.06,0,.15-.05,.3-.1,.44-.15,.4-.14,.81-.27,1.17-.5,.26-.17,.53-.33,.79-.51,.13-.08,.25-.16,.37-.25,.27-.19,.43-.36,.64-.6,.28-.31,.46-.69,.46-1.12,0-.41-.18-.83-.46-1.12Z"/><path class="uuid-3eac624c-725b-4dcc-9378-8aecc764bee1" d="M57.31,350.35c-.05-.11-.12-.21-.2-.31-.03-.05-.06-.09-.1-.13-.12-.23-.33-.34-.57-.3-.01,0-.03,0-.04,0-.06-.01-.11-.02-.17-.03-.55-.12-1.17,.1-1.56,.47-.09,.08-.17,.17-.25,.25-.19,.18-.32,.31-.49,.55-.03,.05-.07,.1-.1,.14-.02,.02-.03,.04-.05,.06-.17,.21-.25,.33-.37,.54-.14,.25-.2,.51-.3,.77-.09,.25-.03,.65,.11,.87,.15,.24,.39,.46,.67,.52,.09,.02,.18,.03,.26,.05,.12,.02,.3,.05,.45,.06,.17,.01,.35-.04,.52-.07,.35-.06,.66-.22,.96-.4,.2-.12,.47-.28,.61-.44,.16-.19,.3-.38,.45-.58,.06-.09,.13-.18,.19-.28,.33-.55,.28-1.22-.03-1.75Z"/><path class="uuid-3eac624c-725b-4dcc-9378-8aecc764bee1" d="M64.22,336.19c-.01-.24-.08-.47-.22-.68,0-.02-.02-.05-.03-.07-.09-.16-.22-.29-.33-.44-.16-.17-.34-.29-.55-.35-.2-.11-.42-.16-.66-.15-.44,.02-.9,.17-1.21,.5-.05,.05-.09,.11-.13,.17-.14,.06-.28,.13-.42,.22-.03,.02-.06,.04-.09,.06-.01,.01-.03,.02-.04,.03-.27,.16-.48,.37-.64,.64-.04,.05-.07,.1-.11,.15-.08,.12-.15,.24-.21,.37-.11,.23-.2,.48-.2,.74l.05,.39c.05,.19,.13,.36,.26,.5,.07,.11,.15,.2,.26,.26,.09,.09,.2,.15,.33,.19,.12,.07,.24,.1,.37,.1,.14,.03,.28,.03,.42,0,.07,0,.14-.01,.21-.01,.28,0,.56-.05,.83-.11,.13-.03,.26-.06,.39-.1,.13-.04,.27-.08,.4-.11,.15-.06,.29-.12,.44-.19,.22-.12,.39-.27,.52-.48,.11-.12,.19-.25,.24-.41,.12-.22,.17-.46,.16-.71,0-.19,0-.36-.03-.55Z"/><g><path class="uuid-3eac624c-725b-4dcc-9378-8aecc764bee1" d="M52.42,332.78s.05,.06,.07,.09c0,0,.01,0,.02,.01-.03-.03-.05-.06-.08-.09,0,0-.01,0-.02-.01Z"/><path class="uuid-3eac624c-725b-4dcc-9378-8aecc764bee1" d="M57.46,330.34c-.24-.05-.46-.14-.69-.22-.21-.12-.45-.17-.7-.21-.36-.06-.67-.22-1.05-.21-.37,.01-.74,.14-1.1,.23-.39,.1-.73,.29-1.08,.48-.39,.21-.64,.6-.74,1.02,0,.03,0,.05-.01,.08,0,0,0,0,0-.01,0,.04-.01,.07-.02,.11-.09,.43,.03,.87,.34,1.19-.03-.04-.06-.08-.09-.12,.03,.05,.07,.09,.11,.14,.07,.07,.13,.14,.22,.2-.05-.03-.1-.07-.14-.1,.3,.31,.7,.51,1.14,.49,.17,0,.35-.01,.52-.03,.34-.03,.61-.11,.93-.2,.28-.09,.57-.16,.83-.31,.35-.21,.56-.52,.79-.83-.08,.1-.15,.2-.23,.29,.26-.24,.56-.46,.72-.77,.06-.08,.12-.17,.19-.25,.06-.07,.15-.16,.25-.26,.21-.21,.12-.62-.18-.69Z"/></g><path class="uuid-3eac624c-725b-4dcc-9378-8aecc764bee1" d="M73.11,333.75c.05,.13,.11,.25,.16,.38-.09-.25-.2-.51-.4-.7-.1-.1-.22-.18-.35-.26-.14-.09-.32-.16-.47-.21-.16-.05-.33-.07-.5-.07l-.49,.07c-.2,.06-.39,.16-.56,.27-.1,.06-.2,.11-.31,.16-.1,.05-.19,.13-.29,.19-.05,.03-.1,.05-.15,.08-.11,.04-.21,.08-.3,.13-.07,.04-.13,.1-.19,.15-.01,.01-.03,.02-.04,.03-.04,.02-.06,.05-.1,.08-.03,.03-.07,.06-.1,.08,.02-.02,.04-.03,.07-.05-.37,.3-.62,.7-.62,1.2,0,.28,.07,.53,.21,.77,.14,.23,.32,.41,.55,.55,.06,.05,.13,.09,.19,.13,.33,.2,.68,.25,1.05,.27,.32,.01,.64-.04,.95-.09,.32-.05,.62-.2,.87-.39,.18-.13,.38-.28,.54-.43,.62-.59,.77-1.62,.28-2.34Z"/><g><path class="uuid-3eac624c-725b-4dcc-9378-8aecc764bee1" d="M69.31,326.09s.03-.04,.04-.05c0,0,0,0,0,0-.01,.02-.03,.04-.04,.05,0,0,0,0,0,0Z"/><path class="uuid-3eac624c-725b-4dcc-9378-8aecc764bee1" d="M69.66,324.29c-.11-.19-.32-.33-.53-.38-.08-.02-.16-.02-.24-.04-.09-.02-.18-.05-.26-.07-.21-.05-.42-.05-.63-.03-.74-.03-1.35,.42-1.94,.8-.29,.19-.6,.37-.83,.63-.17,.19-.34,.39-.52,.58-.38,.43-.54,1.1-.21,1.62,.33,.51,.91,.76,1.51,.61l.71-.18c.36-.09,.67-.26,.99-.45,.21-.12,.42-.24,.62-.36,.22-.12,.41-.27,.6-.43,.16-.15,.28-.32,.38-.51-.06,.08-.13,.17-.19,.25,.07-.08,.13-.17,.2-.26,.06-.11,.12-.23,.17-.35-.04,.1-.08,.2-.13,.3,.11-.16,.2-.32,.25-.51,.02-.08,.04-.17,.06-.26,.07-.33,.2-.64,0-.97Z"/><path class="uuid-3eac624c-725b-4dcc-9378-8aecc764bee1" d="M69.35,326.03s0,0,0,0c0,.02-.02,.04-.03,.06,0-.02,.02-.04,.03-.07Z"/></g></g></g></svg>